<?xml version="1.0" encoding="UTF-8"?>
<svg version="1.1" xmlns="http://www.w3.org/2000/svg" width="512" height="512">
<path d="M0 0 C1.15113281 -0.02900391 2.30226563 -0.05800781 3.48828125 -0.08789062 C16.50080777 -0.18433466 24.90949978 4.81007015 34.3125 13.625 C34.83682617 14.1106543 35.36115234 14.59630859 35.90136719 15.09667969 C39.26280263 18.22528844 42.52697688 21.4335972 45.7421875 24.7109375 C47.51630008 26.45109577 49.36486551 28.06850214 51.25 29.6875 C55.07515661 32.98097461 58.59750317 36.51738253 62.140625 40.109375 C64.80805372 42.73949702 67.59440538 45.1904584 70.453125 47.609375 C72.375 49.3125 72.375 49.3125 74.57843018 51.88169861 C78.01336356 54.86737084 79.55127755 54.92918928 84.04199219 54.90844727 C84.69150848 54.9125058 85.34102478 54.91656433 86.01022339 54.92074585 C87.41411103 54.92624605 88.81808093 54.92030224 90.22188568 54.90408516 C92.45166841 54.87856526 94.6796111 54.88349496 96.90948486 54.89598083 C101.64819346 54.91669912 106.38632932 54.89709059 111.125 54.875 C116.60601026 54.85382381 122.08642246 54.84949231 127.56742096 54.87550163 C129.75068527 54.87883571 131.9327791 54.85773009 134.11590576 54.83509827 C142.99864714 54.81631195 150.01812505 55.59418993 156.93359375 61.49609375 C157.55363281 62.23988281 158.17367188 62.98367187 158.8125 63.75 C159.45058594 64.49121094 160.08867187 65.23242188 160.74609375 65.99609375 C163.87501865 70.44562005 164.61800362 74.07121933 164.48754883 79.47290039 C164.45441338 81.30619652 164.45441338 81.30619652 164.42060852 83.17652893 C164.39137802 84.49112595 164.36214752 85.80572296 164.33203125 87.16015625 C164.30290029 89.96023222 164.28809149 92.76037181 164.27148438 95.56054688 C164.24198535 99.96350507 164.19443345 104.36380382 164.0769043 108.76538086 C162.8213861 125.62827869 162.8213861 125.62827869 168.13598633 140.78833008 C171.20146329 143.93672488 174.62437575 146.05219717 178.375 148.3125 C180.48981633 150.08457542 182.44419585 151.96187423 184.4375 153.875 C185.42727495 154.78648093 186.41917582 155.69566382 187.4140625 156.6015625 C188.14737793 157.27300293 188.14737793 157.27300293 188.89550781 157.95800781 C189.38374023 158.40499023 189.87197266 158.85197266 190.375 159.3125 C200.80616714 168.86235401 200.80616714 168.86235401 205.59765625 173.28515625 C206.137854 173.78378174 206.67805176 174.28240723 207.23461914 174.79614258 C208.32477609 175.80387659 209.41381452 176.812822 210.50170898 177.82299805 C213.20230067 180.32700583 215.92027576 182.80405868 218.6875 185.234375 C225.05185959 190.85739583 230.60672107 196.0076632 233.375 204.3125 C233.46902136 205.93046049 233.50589853 207.55203047 233.50922108 209.17271709 C233.51367892 210.18045797 233.51813676 211.18819885 233.52272969 212.22647732 C233.52245315 213.89191019 233.52245315 213.89191019 233.52217102 215.59098816 C233.52584771 216.76805354 233.5295244 217.94511892 233.5333125 219.15785295 C233.54244099 222.43069111 233.5470494 225.70349981 233.54970181 228.97634852 C233.55360467 232.50409705 233.56318304 236.03183105 233.57191467 239.55957031 C233.59167978 248.08197306 233.60174543 256.60437699 233.61064246 265.12679693 C233.61502536 269.13993992 233.62039217 273.15308158 233.62563133 277.16622353 C233.64264379 290.50653274 233.65713798 303.84684114 233.66438007 317.18715954 C233.66628998 320.64926848 233.66821031 324.11137741 233.67016602 327.57348633 C233.67064976 328.43397901 233.6711335 329.29447169 233.6716319 330.18103991 C233.67993225 344.12055006 233.70526916 358.05997439 233.73774669 371.99944707 C233.77081717 386.31005945 233.78882883 400.62062821 233.79202431 414.931279 C233.79418944 422.96648467 233.80293845 431.0015652 233.82848549 439.03673363 C233.85019236 445.87989683 233.85824302 452.72290451 233.84851871 459.56609824 C233.84397388 463.05676609 233.8458703 466.54711305 233.86528015 470.03773689 C233.88292699 473.82512748 233.8759271 477.61170298 233.86274719 481.39909363 C233.87920106 483.04779608 233.87920106 483.04779608 233.89598733 484.72980565 C233.83165261 492.38303859 232.39749041 497.33183081 227.69921875 503.51953125 C227.15910156 504.04933594 226.61898438 504.57914062 226.0625 505.125 C225.26392578 505.93904297 225.26392578 505.93904297 224.44921875 506.76953125 C219.14769119 510.71322877 214.34035581 511.6876524 207.82054234 511.69281673 C206.7230211 511.69980661 206.7230211 511.69980661 205.60332772 511.7069377 C203.15623047 511.71887047 200.7096902 511.70949914 198.2625885 511.70018005 C196.48858107 511.70435372 194.7145763 511.70983142 192.94057649 511.71649987 C188.06910692 511.73096876 183.19780632 511.72670522 178.32632744 511.71933305 C173.07129009 511.71460729 167.81628961 511.72710597 162.56126404 511.73735046 C152.26771061 511.75455519 141.97421819 511.75537503 131.68065412 511.75013756 C123.31513129 511.74609787 114.9496265 511.74753702 106.58410454 511.75288582 C105.39395742 511.75363424 104.2038103 511.75438266 102.97759811 511.75515376 C100.5599047 511.75668522 98.14221128 511.75822357 95.72451787 511.75976873 C73.04701666 511.77349974 50.36954993 511.76805177 27.6920495 511.75658352 C6.94031482 511.74664971 -13.81133071 511.75959332 -34.56305163 511.78351771 C-55.86631494 511.80789312 -77.16953669 511.81752047 -98.47281367 511.81086498 C-110.43485866 511.8073694 -122.39683508 511.80962724 -134.35886955 511.82711601 C-144.5414833 511.84181845 -154.72398018 511.84249901 -164.90659159 511.8250451 C-170.10251323 511.81651677 -175.29822592 511.81443033 -180.49413681 511.82969666 C-185.250617 511.84349897 -190.00670834 511.83883805 -194.76316578 511.81945742 C-196.48381313 511.81568341 -198.20449129 511.81865958 -199.92511129 511.82906907 C-209.62877493 511.88360016 -216.79627329 511.73820576 -224.83203125 505.63671875 C-225.36183594 505.09660156 -225.89164063 504.55648438 -226.4375 504 C-226.98019531 503.46761719 -227.52289063 502.93523437 -228.08203125 502.38671875 C-232.46391145 496.49614055 -233.07387596 491.02693133 -233.1015625 483.9140625 C-233.11714203 483.03849701 -233.13272156 482.16293152 -233.14877319 481.26083374 C-233.19600964 478.48639709 -233.22398258 475.71220968 -233.25 472.9375 C-233.28647948 470.14153994 -233.32700874 467.34572169 -233.37265015 464.54989624 C-233.39990799 462.8149754 -233.4212457 461.07994977 -233.43618774 459.34487915 C-233.11349549 455.51853361 -233.11349549 455.51853361 -234.625 452.3125 C-234.72557069 449.43699042 -234.76115362 446.58546393 -234.75439453 443.70947266 C-234.75614685 442.80706345 -234.75789917 441.90465424 -234.75970459 440.97489929 C-234.76412546 437.97543444 -234.7611838 434.97602801 -234.7578125 431.9765625 C-234.75848559 429.90009551 -234.75945566 427.82362859 -234.76071167 425.74716187 C-234.76218906 421.38742322 -234.76003322 417.02770502 -234.75537109 412.66796875 C-234.74968086 407.07335083 -234.75294808 401.47878095 -234.75894356 395.88416481 C-234.7625541 391.59314613 -234.76140818 387.30213886 -234.75881577 383.01111984 C-234.7581475 380.94819508 -234.75897144 378.88526929 -234.76129532 376.82234573 C-234.76382912 373.93964131 -234.75997057 371.057015 -234.75439453 368.17431641 C-234.75743088 366.88842369 -234.75743088 366.88842369 -234.76052856 365.57655334 C-234.74853276 362.23625638 -234.68871933 359.503658 -233.625 356.3125 C-233.53010153 354.27577242 -233.49599698 352.23603369 -233.49369812 350.19709778 C-233.48968994 348.91716949 -233.48568176 347.63724121 -233.48155212 346.31852722 C-233.48202723 344.89700315 -233.48256334 343.4754791 -233.4831543 342.05395508 C-233.48012263 340.55912168 -233.47660116 339.0642892 -233.47262573 337.56945801 C-233.46473568 334.34792287 -233.45959136 331.12639881 -233.45633507 327.90485573 C-233.45042345 322.80703471 -233.43388074 317.70928345 -233.41499329 312.61149597 C-233.40865577 310.86576943 -233.40233015 309.12004284 -233.39601612 307.37431622 C-233.39285031 306.49999081 -233.3896845 305.6256654 -233.38642275 304.72484529 C-233.34436293 292.85653365 -233.31138177 280.98825423 -233.29907227 269.11987305 C-233.29068446 261.1149088 -233.26816592 253.11011705 -233.2297166 245.10523909 C-233.20997776 240.87063008 -233.19754405 236.63627881 -233.20255089 232.40162086 C-233.20720709 228.41485255 -233.19333934 224.42857216 -233.16553879 220.44190216 C-233.15864292 218.98268676 -233.15848316 217.52342073 -233.16573906 216.06420708 C-233.20869054 206.45175784 -232.67650158 200.11504524 -226.328125 192.58984375 C-225.11382812 191.43162109 -225.11382812 191.43162109 -223.875 190.25 C-222.98683594 189.39792969 -222.09867188 188.54585937 -221.18359375 187.66796875 C-218.49788544 185.19547698 -215.77613708 182.78084772 -213.00390625 180.40625 C-209.73084094 177.52552257 -206.55634582 174.54381871 -203.375 171.5625 C-197.79300466 166.33352442 -192.18543982 161.13592075 -186.5390625 155.9765625 C-184.50935775 154.12098791 -182.48304605 152.2622403 -180.4609375 150.3984375 C-179.93395264 149.91334717 -179.40696777 149.42825684 -178.86401367 148.9284668 C-177.41268826 147.59224257 -175.96217334 146.25513819 -174.51171875 144.91796875 C-171.625 142.3125 -171.625 142.3125 -169.83862305 141.24076843 C-166.4864174 139.04267028 -164.85569671 137.38778147 -163.9992218 133.39573669 C-163.78396637 129.66228317 -163.78718461 125.96217821 -163.86328125 122.2265625 C-163.86405464 120.84182471 -163.86116019 119.45708049 -163.8547821 118.07235718 C-163.84521269 114.43515052 -163.8737508 110.79937631 -163.91394043 107.16241455 C-163.97548764 101.35002998 -163.99509341 95.53802314 -163.98412132 89.72535324 C-163.98819482 87.70688899 -164.01935569 85.68853731 -164.05110168 83.6703186 C-164.07103589 75.06397791 -163.28135772 69.50069157 -157.4765625 62.8515625 C-156.74179688 62.21992187 -156.00703125 61.58828125 -155.25 60.9375 C-154.52039063 60.29039063 -153.79078125 59.64328125 -153.0390625 58.9765625 C-148.21800369 55.65330837 -143.66560564 55.07095857 -137.90795898 55.19995117 C-136.58896103 55.22204147 -135.26996307 55.24413177 -133.91099548 55.26689148 C-133.21259993 55.28217077 -132.51420437 55.29745007 -131.79464531 55.31319237 C-128.05028484 55.38602156 -124.30549338 55.3954197 -120.56054688 55.41601562 C-115.81540096 55.44551488 -111.07272299 55.49312412 -106.32885742 55.6105957 C-86.84497622 57.02878915 -86.84497622 57.02878915 -69.83827209 49.76509094 C-67.46055836 47.10069041 -65.56629512 44.31234777 -63.625 41.3125 C-61.29663086 39.08862305 -61.29663086 39.08862305 -59.3125 37.5 C-55.89446155 34.59789188 -52.76957556 31.47495955 -49.625 28.28125 C-47.06245258 25.75874238 -44.3536558 23.43726542 -41.625 21.09765625 C-39.53042107 19.22808091 -37.58112984 17.26343833 -35.625 15.25 C-24.88881222 4.40896664 -15.15192839 0.12474145 0 0 Z " fill="#000000" transform="translate(256.625,-0.3125)"/>
<path d="M0 0 C1.4796609 -0.01173486 1.4796609 -0.01173486 2.98921394 -0.02370679 C4.07567648 -0.01701463 5.16213902 -0.01032246 6.28152466 -0.00342751 C7.433533 -0.00810748 8.58554134 -0.01278745 9.77245903 -0.01760924 C12.97524879 -0.02752668 16.1776993 -0.02392795 19.38048077 -0.01465058 C22.83247909 -0.00787941 26.28443058 -0.01833169 29.73641968 -0.02659035 C36.50088688 -0.03995061 43.26525439 -0.03703978 50.02972555 -0.02835242 C55.52591872 -0.02158528 61.02208389 -0.02065495 66.51828003 -0.02392387 C67.69034888 -0.02461342 67.69034888 -0.02461342 68.88609588 -0.0253169 C70.47330809 -0.02627605 72.0605203 -0.02724869 73.6477325 -0.02823468 C88.54122664 -0.03679528 103.43466544 -0.02694393 118.32815051 -0.01083358 C131.11553342 0.00257022 143.90283463 0.00024232 156.69021606 -0.01358986 C171.52935444 -0.02963385 186.36844427 -0.03597125 201.2075901 -0.02675307 C202.78905868 -0.02579739 204.37052726 -0.02485428 205.95199585 -0.02392387 C207.11925384 -0.02322963 207.11925384 -0.02322963 208.31009281 -0.02252137 C213.80153813 -0.01992793 219.29295274 -0.02431008 224.78439331 -0.03136253 C231.47398631 -0.03976463 238.16347367 -0.03752469 244.85305452 -0.0215203 C248.26810555 -0.01362008 251.68298025 -0.01057552 255.09803009 -0.02046776 C258.79511547 -0.02861284 262.49169825 -0.01844658 266.18875122 -0.00342751 C267.27521376 -0.01011967 268.36167629 -0.01681184 269.48106194 -0.02370679 C270.46750254 -0.01588355 271.45394314 -0.00806031 272.47027588 0 C273.32415956 0.00048706 274.17804325 0.00097411 275.0578022 0.00147593 C277.7707478 0.47002856 278.65236047 1.14295859 280.23513794 3.37752342 C280.60773343 5.26335782 280.60773343 5.26335782 280.60428143 7.43236637 C280.61025457 8.26042087 280.61622772 9.08847537 280.62238187 9.94162244 C280.61364334 10.85114771 280.60490482 11.76067298 280.59590149 12.69775963 C280.59846476 13.66404126 280.60102804 14.63032289 280.60366899 15.62588578 C280.6086279 18.87814526 280.59207904 22.12994507 280.57571411 25.38216209 C280.5748683 27.70769807 280.57534209 30.03323486 280.57704163 32.35877037 C280.57790478 38.68490695 280.5602272 45.01087398 280.53931975 51.33697104 C280.52250094 57.27447709 280.51945272 63.21197638 280.51636413 69.14950303 C280.50979601 80.9110074 280.48982509 92.67244941 280.4614563 104.43391991 C280.43392505 115.8600235 280.41268691 127.28611016 280.39993286 138.71224022 C280.39914469 139.41638301 280.39835652 140.12052579 280.39754447 140.84600624 C280.39362939 144.37843504 280.38983826 147.91086397 280.38610876 151.44329298 C280.35500162 180.75474335 280.30193322 210.06613272 280.23513794 239.37752342 C277.69385397 240.81002646 275.15221885 242.24190029 272.61038208 243.67342186 C271.89756325 244.07531731 271.18474442 244.47721275 270.45032501 244.89128685 C264.56149671 248.20676672 258.62810811 251.43337712 252.67263794 254.62752342 C244.80341068 258.86575683 236.99533438 263.19312545 229.23513794 267.62752342 C218.48171305 273.76369059 207.56143091 279.56497886 196.6086731 285.33455467 C189.70123614 288.97718622 182.85558216 292.6909593 176.11013794 296.62752342 C156.82584724 307.71315009 135.66431655 309.9788578 114.21560669 304.62361717 C95.88431272 298.85977012 79.03316719 287.45435551 62.42874146 277.9927578 C55.83534027 274.24568827 49.1678119 270.67695833 42.43655396 267.18514061 C35.1326612 263.37414735 27.98531573 259.30231808 20.83035278 255.22029686 C13.60172967 251.11098309 6.29462477 247.17930187 -1.09103394 243.3599453 C-6.67447854 240.46790694 -6.67447854 240.46790694 -7.76486206 239.37752342 C-7.86955022 236.35035879 -7.90817654 233.34579641 -7.90530396 230.31798363 C-7.90827508 229.35552754 -7.9112462 228.39307146 -7.91430736 227.40145004 C-7.92303538 224.15013907 -7.92450605 220.89886474 -7.92599487 217.64754295 C-7.93062013 215.32716861 -7.93564438 213.00679503 -7.94104004 210.68642235 C-7.95419377 204.364168 -7.96061471 198.04192428 -7.9650507 191.71965837 C-7.96797648 187.77460682 -7.97208031 183.82955821 -7.97655487 179.88450813 C-7.98866809 168.9693706 -7.99904882 158.05423562 -8.00242996 147.13909149 C-8.00264953 146.44002504 -8.00286909 145.7409586 -8.00309531 145.02070832 C-8.00331359 144.31993507 -8.00353187 143.61916182 -8.00375676 142.89715302 C-8.00420023 141.4770356 -8.0046468 140.05691818 -8.00509644 138.63680077 C-8.00531787 137.93236811 -8.0055393 137.22793546 -8.00576743 136.50215636 C-8.00971658 125.08433144 -8.02717301 113.66657029 -8.05045596 102.24877001 C-8.074148 90.53614278 -8.08663083 78.82354758 -8.08779788 67.11089599 C-8.08884872 60.53068868 -8.09481555 53.95057126 -8.11261749 47.37038612 C-8.12902957 41.18330727 -8.13128721 34.99638654 -8.12247849 28.80929375 C-8.12170443 26.53361782 -8.1260989 24.25793362 -8.13593674 21.98227882 C-8.14854518 18.88500455 -8.14284016 15.78829981 -8.13235474 12.6910305 C-8.14041114 11.78218735 -8.14846755 10.87334419 -8.15676808 9.93696034 C-8.15017824 9.10952254 -8.1435884 8.28208473 -8.13679886 7.42957306 C-8.13739595 6.71434231 -8.13799304 5.99911156 -8.13860822 5.26220715 C-7.22634648 0.66195959 -4.24395487 0.00242076 0 0 Z " fill="#DEF5FB" transform="translate(120.76486206054688,74.62247657775879)"/>
<path d="M0 0 C2.53839119 1.26420466 5.07622955 2.52949895 7.61376953 3.79541016 C8.32511551 4.14954483 9.03646149 4.5036795 9.7693634 4.86854553 C15.87242701 7.91493326 21.88955479 11.10350323 27.875 14.375 C28.90109375 14.93316406 29.9271875 15.49132812 30.984375 16.06640625 C37.72502448 19.73930379 44.44202188 23.45336796 51.14331055 27.19750977 C57.29374629 30.62707232 63.48852364 33.97166026 69.6875 37.3125 C77.55445101 41.55414228 85.36270181 45.88246359 93.125 50.3125 C102.63234234 55.73381 112.25884548 60.90346167 121.93103027 66.0218811 C130.48894724 70.55298232 138.96802015 75.19226946 147.375 80 C156.10845667 84.98503619 164.89878588 89.72019919 174 94 C174.84691406 94.40605469 175.69382813 94.81210937 176.56640625 95.23046875 C195.58099549 103.62777466 217.10609478 104.33147847 237 99 C238.09183594 98.72929687 239.18367187 98.45859375 240.30859375 98.1796875 C258.87446947 92.82698326 276.25741496 81.67285961 292.93237305 72.11401367 C301.30071497 67.33693235 309.79319817 62.8123922 318.3125 58.3125 C327.43952777 53.4905119 336.55005859 48.65262123 345.55126953 43.59814453 C351.56065641 40.22702506 357.62142888 36.95532791 363.6875 33.6875 C371.78416783 29.32260318 379.81976026 24.8647812 387.8125 20.3125 C399.10178465 13.88735916 410.52249654 7.73321038 422.14295959 1.92713928 C422.8648198 1.56640855 423.58668001 1.20567781 424.33041477 0.83401585 C424.8813779 0.55879062 425.43234102 0.28356539 426 0 C426.07001268 24.59070626 426.12295017 49.18139764 426.15543652 73.77218342 C426.17091993 85.1895461 426.19203758 96.60684693 426.22631836 108.02416992 C426.25617562 117.97294902 426.27556427 127.92168334 426.28226548 137.87050599 C426.28618398 143.14065383 426.29542351 148.41067355 426.31719017 153.68078041 C426.33749733 158.63750289 426.34384553 163.59404401 426.33932304 168.55080414 C426.34015084 170.37335634 426.34615074 172.19591438 426.35761642 174.01843071 C426.37247044 176.5005344 426.36897988 178.98194696 426.36076355 181.46406555 C426.36950207 182.19071626 426.3782406 182.91736696 426.38724393 183.66603738 C426.34406212 188.46873029 426.34406212 188.46873029 424.90943223 190.68395644 C422.00785734 192.68381738 419.57707852 192.3761855 416.0799408 192.37752342 C415.3682611 192.38188374 414.65658141 192.38624407 413.92333567 192.39073652 C411.5202336 192.40175185 409.11769823 192.39124197 406.71459961 192.38095093 C404.98172936 192.38440502 403.24886131 192.3891679 401.51599789 192.39513266 C396.73984745 192.4077065 391.96387584 192.4014434 387.18772459 192.39217401 C382.04246501 192.38540988 376.89723703 192.3958516 371.75198364 192.40411377 C361.66676838 192.41748156 351.58161995 192.41455983 341.49640203 192.40587585 C333.30284274 192.39911166 325.10930224 192.39817709 316.91574097 192.4014473 C315.75136188 192.401907 314.5869828 192.40236669 313.38731951 192.40284032 C311.02220129 192.40379946 308.65708309 192.4047721 306.29196489 192.4057581 C284.09343078 192.41432091 261.89493379 192.40446389 239.69640577 192.388357 C220.63254619 192.37495302 201.5687414 192.37728086 182.50488281 192.39111328 C160.38794457 192.40715336 138.27103889 192.41349686 116.15409565 192.40427649 C113.79748345 192.4033208 111.44087124 192.40237769 109.08425903 192.4014473 C107.92463982 192.40098447 106.76502061 192.40052164 105.57026142 192.40004479 C97.38276035 192.39745018 89.19527986 192.40183602 81.00778198 192.40888596 C71.03537905 192.41728371 61.063047 192.41505724 51.09065223 192.39904372 C45.99870002 192.39113772 40.90686614 192.3881089 35.8149147 192.39799118 C31.15913021 192.40689058 26.50357443 192.40208431 21.84781086 192.38605852 C20.15808945 192.38269044 18.46834895 192.38444987 16.77863967 192.39168589 C14.49216649 192.40073098 12.20648987 192.39153194 9.9200592 192.37752342 C8.64696427 192.37703637 7.37386934 192.37654931 6.06219578 192.37604749 C3 192 3 192 1.09056777 190.68395644 C-0.74377181 187.85153461 -0.40001113 184.72769246 -0.36076355 181.46406555 C-0.36332682 180.68971088 -0.3658901 179.91535621 -0.36853105 179.11753625 C-0.3734847 176.51475256 -0.35695028 173.91254497 -0.34057617 171.30981445 C-0.33973024 169.4473268 -0.34020438 167.58483814 -0.34190369 165.72235107 C-0.34276639 160.65855347 -0.32509617 155.59496793 -0.30418181 150.53121972 C-0.28546077 145.24211205 -0.28366819 139.95299982 -0.28010559 134.66386414 C-0.27077166 124.64473987 -0.24613965 114.62571351 -0.21605712 104.60663241 C-0.18255502 93.20171501 -0.16603765 81.796793 -0.15097082 70.39183867 C-0.11959127 46.92783811 -0.0668046 23.46392454 0 0 Z " fill="#FECA7B" transform="translate(44,299)"/>
<path d="M0 0 C2.21484375 1.1171875 2.21484375 1.1171875 4.4375 2.5 C5.34628906 3.05945313 6.25507813 3.61890625 7.19140625 4.1953125 C22.36099934 14.39093017 31.20556781 31.02347773 35.1875 48.5625 C39.16685457 70.31776264 35.763287 93.36255823 23.34375 111.91015625 C20.32892249 116.00612068 17.16676223 120.02792827 13.4375 123.5 C12.7775 123.5 12.1175 123.5 11.4375 123.5 C11.96859375 124.14324219 12.4996875 124.78648437 13.046875 125.44921875 C19.97328813 134.30946621 24.35010684 143.87488553 23.828125 155.33984375 C23.06012733 159.58687088 20.93980299 162.30851832 17.625 164.9375 C14.34608129 165.78065053 11.7128093 165.21461294 8.4375 164.5 C6.9525 163.51 6.9525 163.51 5.4375 162.5 C2.01732443 162.10041513 -1.43543041 161.9364652 -4.5625 163.5 C-4.56836624 164.15795563 -4.57423248 164.81591125 -4.58027649 165.49380493 C-4.6447241 172.40596972 -4.72926947 179.31769078 -4.82495117 186.22949219 C-4.85799426 188.80137239 -4.88608875 191.37332151 -4.90893555 193.9453125 C-5.28335487 234.98804298 -5.28335487 234.98804298 -20.03515625 251.109375 C-22.68768237 253.62750647 -24.50243796 254.49051652 -28.125 255.0625 C-32.08624737 254.41429589 -33.75049374 253.31200626 -36.5625 250.5 C-38.22011466 247.18477068 -38.3233469 244.0546767 -37.5625 240.5 C-35.98759966 238.03420429 -34.20913112 235.88936554 -32.31640625 233.66015625 C-25.63643118 225.43292637 -26.38981549 214.82034608 -26.24609375 204.78515625 C-26.22531265 203.57427841 -26.20453156 202.36340057 -26.18312073 201.11582947 C-26.11796976 197.2647749 -26.05890086 193.41365473 -26 189.5625 C-25.956782 186.94465479 -25.91316668 184.32681612 -25.86914062 181.70898438 C-25.76232381 175.30605805 -25.66049465 168.9030671 -25.5625 162.5 C-27.33833774 162.45776284 -29.11446295 162.42748354 -30.890625 162.40234375 C-32.3741748 162.37515259 -32.3741748 162.37515259 -33.88769531 162.34741211 C-37.14955353 162.53348927 -38.84831032 163.76593437 -41.5625 165.5 C-45.98940138 165.57905181 -47.97709793 164.94839308 -51.5 162.25 C-55.05302226 157.33224071 -54.25781459 151.23147164 -53.5625 145.5 C-51.80962036 137.48963384 -48.49278654 131.00797823 -43.5625 124.5 C-44.0471875 124.07332031 -44.531875 123.64664063 -45.03125 123.20703125 C-60.32285403 108.9446698 -66.78821377 89.37801483 -67.8125 68.96484375 C-68.54501931 47.47906848 -61.97473649 27.21406238 -47.40234375 11.11328125 C-35.22348505 -0.49089446 -16.27519048 -5.99751338 0 0 Z " fill="#030202" transform="translate(272.5625,101.5)"/>
<path d="M0 0 C9.75140839 4.4550552 15.96905617 13.73576146 19.84375 23.41015625 C21.67299503 28.67417074 23.22556092 33.76697744 23.6171875 39.34765625 C23.68035156 40.23195312 23.74351562 41.11625 23.80859375 42.02734375 C24.42826798 58.05891575 20.41119714 75.32974806 9.3671875 87.34765625 C3.93122828 92.39010327 -1.64415413 94.82293227 -8.9453125 95.84765625 C-17.16484916 94.65208728 -24.07797933 90.6505934 -29.12890625 84.07421875 C-39.4924333 68.87437908 -42.20961756 52.05358954 -39.6953125 34.09765625 C-37.04746026 20.4695496 -30.46923662 9.65125327 -19.3828125 1.34765625 C-13.87965513 -2.13535474 -6.10592983 -1.67162341 0 0 Z " fill="#F4818B" transform="translate(265.3828125,120.65234375)"/>
<path d="M0 0 C45 0 45 0 49 3 C49.53485107 5.90866089 49.53485107 5.90866089 49.58105469 9.50341797 C49.60120636 10.48689209 49.60120636 10.48689209 49.62176514 11.49023438 C49.65976311 13.65786036 49.66757436 15.82424922 49.671875 17.9921875 C49.6847293 19.50050363 49.6981859 21.00881474 49.71221924 22.51712036 C49.7361744 25.67966265 49.74358017 28.84176791 49.74121094 32.00439453 C49.74080458 36.05291543 49.79538543 40.09862735 49.86429977 44.14648247 C49.9088319 47.26246948 49.91688646 50.37778026 49.91477203 53.49405289 C49.91948596 54.9860413 49.93714581 56.47804806 49.9681015 57.96972275 C50.18668736 69.59180255 50.18668736 69.59180255 47.36697388 72.93785095 C45.28857684 74.26674911 43.3110218 75.14945348 41 76 C39.98599121 76.56952393 38.97198242 77.13904785 37.92724609 77.72583008 C36.96898926 78.23525146 36.01073242 78.74467285 35.0234375 79.26953125 C33.40779907 80.13263916 33.40779907 80.13263916 31.75952148 81.01318359 C30.64262939 81.60695801 29.5257373 82.20073242 28.375 82.8125 C19.92092408 87.33010794 11.51956279 91.90165115 3.24609375 96.7421875 C1 98 1 98 0 98 C0 65.66 0 33.32 0 0 Z " fill="#FDC97B" transform="translate(421,205)"/>
<path d="M0 0 C0 32.34 0 64.68 0 98 C-8.72095138 93.63952431 -17.25521609 89.28182665 -25.6875 84.4375 C-27.58675907 83.35202339 -29.48649746 82.26738503 -31.38671875 81.18359375 C-32.30372559 80.66007324 -33.22073242 80.13655273 -34.16552734 79.59716797 C-38.04812856 77.40940077 -41.9675948 75.29215472 -45.89379883 73.18383789 C-48 72 -48 72 -49 71 C-49.11527157 68.89963134 -49.15969926 66.79535279 -49.17700195 64.69189453 C-49.18357315 64.03332458 -49.19014435 63.37475464 -49.19691467 62.69622803 C-49.21668793 60.50842182 -49.22831877 58.32068435 -49.23828125 56.1328125 C-49.24235678 55.38725979 -49.2464323 54.64170708 -49.25063133 53.87356186 C-49.27150878 49.92791773 -49.28580347 45.98230856 -49.29516602 42.03662109 C-49.30623716 37.95512816 -49.34063963 33.87417945 -49.38033772 29.7928791 C-49.40644766 26.65993212 -49.41485276 23.5271159 -49.41844749 20.39406967 C-49.42332771 18.88932492 -49.43498244 17.38458656 -49.45348549 15.87994766 C-49.4777607 13.7751546 -49.47693449 11.67178388 -49.4699707 9.56689453 C-49.47583694 8.36855988 -49.48170319 7.17022522 -49.48774719 5.93557739 C-46.76463254 -10.45388406 -16.61414458 0 0 0 Z " fill="#FDC97B" transform="translate(93,205)"/>
<path d="M0 0 C0.87140625 -0.02835938 1.7428125 -0.05671875 2.640625 -0.0859375 C10.85921912 1.1323968 16.50623125 5.3976335 22.25 11.125 C23.62461906 12.45612266 24.99963383 13.78683679 26.375 15.1171875 C27.08269531 15.8090918 27.79039062 16.50099609 28.51953125 17.21386719 C30.84241353 19.46454078 33.19638114 21.67767354 35.5625 23.8828125 C36.34560547 24.61274414 37.12871094 25.34267578 37.93554688 26.09472656 C39.46235478 27.51652616 40.98968729 28.93776264 42.51757812 30.35839844 C43.20271484 31.00067383 43.88785156 31.64294922 44.59375 32.3046875 C45.20412109 32.87429199 45.81449219 33.44389648 46.44335938 34.03076172 C47.75 35.375 47.75 35.375 47.75 36.375 C16.73 36.375 -14.29 36.375 -46.25 36.375 C-42.2177661 31.67072712 -38.37483726 27.46504421 -33.8125 23.375 C-30.31194101 20.19795589 -26.84376743 17.03126809 -23.5625 13.625 C-16.89229725 6.85499371 -9.93485483 0.14524642 0 0 Z " fill="#FDC97B" transform="translate(256.25,18.625)"/>
<path d="M0 0 C8.93693694 6.7027027 8.93693694 6.7027027 12.0625 10 C14.60921501 12.62740301 17.19655497 15.08531373 20 17.4375 C20.99 18.283125 21.98 19.12875 23 20 C23 20.33 23 20.66 23 21 C15.41 21 7.82 21 0 21 C0 14.07 0 7.14 0 0 Z " fill="#FAC779" transform="translate(421,164)"/>
<path d="M0 0 C0 6.93 0 13.86 0 21 C-7.59 21 -15.18 21 -23 21 C-20.35662889 17.69578611 -18.46573093 15.35410521 -15.375 12.75 C-11.16902562 9.16185237 -7.08354079 5.45349761 -3.00390625 1.72265625 C-1 0 -1 0 0 0 Z " fill="#FBC87A" transform="translate(93,164)"/>
<path d="M0 0 C5.04155242 3.05576109 5.04155242 3.05576109 6.484375 5.94140625 C5.88109375 6.06257812 5.2778125 6.18375 4.65625 6.30859375 C3.85703125 6.47617188 3.0578125 6.64375 2.234375 6.81640625 C1.05101562 7.06003906 1.05101562 7.06003906 -0.15625 7.30859375 C-2.53936733 7.86126974 -2.53936733 7.86126974 -4.66015625 9.02734375 C-7.28793724 10.32187165 -8.74664569 9.75183922 -11.515625 8.94140625 C-12.32 8.61140625 -13.124375 8.28140625 -13.953125 7.94140625 C-16.79512409 6.83233343 -19.50155692 6.36197389 -22.515625 5.94140625 C-21.35183917 2.45004877 -20.00889904 1.44709494 -16.8046875 -0.25390625 C-11.37652851 -2.16209866 -5.31980081 -2.23861183 0 0 Z " fill="#EB7D86" transform="translate(265.515625,237.05859375)"/>
</svg>
