<?xml version="1.0" encoding="UTF-8"?>
<svg version="1.1" xmlns="http://www.w3.org/2000/svg" width="512" height="512">
<path d="M0 0 C0.78626343 -0.00320648 1.57252686 -0.00641296 2.38261646 -0.0097166 C5.00927841 -0.01799787 7.63571123 -0.0120989 10.26237679 -0.00622082 C12.16781359 -0.00924235 14.07324919 -0.01313184 15.97868264 -0.01781338 C21.20884972 -0.02810182 26.43894831 -0.02590939 31.66912103 -0.02163279 C37.31204039 -0.01916712 42.95494321 -0.02817775 48.59785652 -0.03567028 C59.65060096 -0.04842363 70.70332111 -0.05021018 81.75607167 -0.04787002 C90.73939892 -0.04608744 99.72271879 -0.04783521 108.70604515 -0.05209446 C109.9842909 -0.05268965 111.26253664 -0.05328484 112.5795171 -0.05389806 C115.17622152 -0.05510981 117.77292594 -0.05632394 120.36963035 -0.05754044 C137.80615965 -0.06532823 155.24268405 -0.06924637 172.67921448 -0.06522369 C173.70176617 -0.06498913 173.70176617 -0.06498913 174.74497547 -0.06474983 C178.20001501 -0.06394406 181.65505453 -0.06309829 185.11009406 -0.06223653 C185.79626149 -0.06206544 186.48242892 -0.06189435 187.18938931 -0.06171808 C188.57698598 -0.06137142 189.96458266 -0.06102289 191.35217933 -0.06067249 C212.94336522 -0.05531525 234.53451028 -0.06324634 256.12568855 -0.08170605 C280.39032556 -0.10242723 304.65492975 -0.11311746 328.91957772 -0.10913056 C341.76474326 -0.10721726 354.60987159 -0.10971871 367.45503044 -0.1238451 C378.3899936 -0.13574902 389.32489665 -0.13717485 400.25986062 -0.12505493 C405.83877824 -0.11915939 411.41758586 -0.11808558 416.9964962 -0.13005733 C422.10517169 -0.14089262 427.213645 -0.13784072 432.32231094 -0.12379565 C434.16880538 -0.12114225 436.01531554 -0.1235354 437.86179458 -0.13153151 C450.2178913 -0.18131828 460.95536538 -0.01373883 470.84785652 8.21541309 C476.12316943 13.64680034 478.9487413 20.11598261 478.96254635 27.64288998 C478.96700419 28.7684496 478.97146204 29.89400923 478.97605497 31.05367672 C478.97577842 32.91652477 478.97577842 32.91652477 478.97549629 34.81700611 C478.97917298 36.13220671 478.98284967 37.4474073 478.98663777 38.80246246 C478.99666281 42.46101875 479.00037538 46.11955863 479.00302708 49.77812672 C479.00692868 53.72103034 479.01650717 57.66392096 479.02523994 61.60681629 C479.0450092 71.1333124 479.05507148 80.65980958 479.06396773 90.18632108 C479.06835018 94.67203104 479.07371713 99.15773981 479.0789566 103.64344883 C479.0959699 118.5544539 479.11046394 133.46545823 479.11770535 148.37647152 C479.11961526 152.24661351 479.12153559 156.1167555 479.12349129 159.98689747 C479.12397503 160.94880874 479.12445877 161.91072001 479.12495717 162.90178011 C479.13325694 178.48310809 479.15859252 194.06435929 479.19107196 209.64565374 C479.224143 225.64111925 479.24215418 241.63654574 479.24534959 257.63204563 C479.24751472 266.6135181 479.2562638 275.59487863 479.28181076 284.57631779 C479.30351842 292.22569759 479.31156789 299.87493825 479.30184398 307.52434535 C479.29729935 311.42625339 479.29919471 315.32787435 479.31860542 319.229743 C479.3362388 322.80527504 479.33523842 326.38031064 479.31970813 329.95584796 C479.31621092 331.85485907 479.33235723 333.7538754 479.3493126 335.65281403 C479.28353584 344.40072053 477.50218642 350.28188189 472.64082527 357.50447559 C462.32692149 367.58918152 449.3294715 367.58222413 435.76582527 367.87947559 C434.31333 367.91773755 432.86085543 367.95679378 431.4084034 367.99666309 C427.88190215 368.09175664 424.35524249 368.17610673 420.82832527 368.25447559 C421.20416756 368.90593555 421.58000984 369.55739552 421.96724129 370.22859669 C422.76666145 371.61425831 422.76666145 371.61425831 423.58223152 373.02791309 C424.18253181 374.06834766 424.78283211 375.10878223 425.40132332 376.18074512 C426.74032798 378.50186181 428.07907753 380.82312353 429.4174366 383.14461231 C432.60284427 388.66913461 435.79017948 394.192479 438.99063301 399.7083025 C440.01204962 401.46887657 441.03251032 403.23000123 442.05269051 404.991292 C443.33416762 407.20299942 444.61745234 409.41366077 445.90278816 411.62312794 C455.67899717 428.51137823 455.67899717 428.51137823 454.48848152 435.20369434 C453.35404089 438.72784422 451.88947887 440.21370653 448.82832527 442.25447559 C442.73036863 443.70397544 437.12227168 443.1126965 431.07441902 441.82088184 C430.28809593 441.66409458 429.50177284 441.50730732 428.69162178 441.34576893 C426.21362087 440.84870639 423.73989287 440.33322089 421.26582527 439.81697559 C419.57271514 439.4739462 417.8793571 439.13213807 416.18574715 438.79158497 C412.06360919 437.95995606 407.94519266 437.11179868 403.82832527 436.25447559 C401.50408776 441.83571979 399.38131067 447.45881764 397.42598152 453.18025684 C396.80239754 454.99300098 396.80239754 454.99300098 396.1662159 456.84236622 C395.31037322 459.3417414 394.46413021 461.84442278 393.6271534 464.35017872 C393.21014168 465.5522295 392.79312996 466.75428028 392.36348152 467.99275684 C391.99617928 469.07597218 391.62887703 470.15918751 391.25044441 471.27522755 C389.38251684 475.18841555 386.91488929 478.41824185 382.80098152 480.06697559 C377.93373677 480.54474195 374.89914273 480.2859354 370.82832527 477.25447559 C365.52672349 471.20301947 361.86121647 463.88046494 358.02388191 456.85603809 C353.74825488 449.03592025 349.25244682 441.35035871 344.73823738 433.66609669 C343.89144417 432.22291065 343.89144417 432.22291065 343.02754402 430.75056934 C342.48533211 429.82743946 341.94312019 428.90430958 341.38447762 427.95320606 C339.47778041 424.64654918 337.66473047 421.29385134 335.88228035 417.91878223 C334.92260155 416.08645313 334.92260155 416.08645313 332.82832527 415.25447559 C332.52475105 416.40689747 332.52475105 416.40689747 332.21504402 417.58260059 C330.26579342 422.74399654 327.46249098 427.2755942 324.64082527 432.00447559 C323.3783366 434.14204188 322.11664704 436.2800803 320.85566902 438.41853809 C320.19808601 439.5313213 319.54050301 440.6441045 318.86299324 441.79060841 C316.78739783 445.31450595 314.74364187 448.85625958 312.70723152 452.40291309 C312.37079124 452.98859058 312.03435097 453.57426807 311.68771553 454.17769337 C310.05762958 457.0167924 308.42996002 459.8572586 306.80415535 462.69881153 C297.84761074 478.28663227 297.84761074 478.28663227 291.82832527 480.25447559 C287.64597684 480.45167866 284.83089582 479.9431388 281.34639168 477.54964161 C278.5660427 475.0154104 277.71914856 473.34152393 276.51191902 469.81697559 C276.14002449 468.75607716 275.76812996 467.69517872 275.3849659 466.60213184 C274.83099129 464.945042 274.83099129 464.945042 274.26582527 463.25447559 C273.89264168 462.18068653 273.51945808 461.10689747 273.1349659 460.00056934 C272.01319702 456.75816958 270.91869113 453.50755461 269.82832527 450.25447559 C269.44305672 449.12654591 269.05778816 447.99861622 268.6608448 446.83650684 C268.29458992 445.75756153 267.92833504 444.67861622 267.55098152 443.56697559 C267.21977303 442.59373341 266.88856453 441.62049122 266.54731941 440.61775684 C265.82832527 438.25447559 265.82832527 438.25447559 265.82832527 436.25447559 C264.74414314 436.46652637 263.65996101 436.67857716 262.54292488 436.89705372 C258.49812514 437.68636041 254.45169909 438.46703893 250.40474129 439.24519825 C248.65754494 439.582385 246.91079068 439.92187138 245.16450691 440.26375294 C242.64603886 440.75638741 240.1260666 441.24057264 237.60566902 441.72322559 C236.83246819 441.87634205 236.05926735 442.0294585 235.26263618 442.18721485 C223.83266034 444.35118723 223.83266034 444.35118723 218.51582527 441.44197559 C215.85030055 439.27236245 214.13604784 437.65811051 213.38472176 434.23103809 C212.9492121 425.89141773 216.65390178 420.16643073 220.89082527 413.25447559 C221.61525787 412.0369406 222.33747393 410.81808428 223.05757332 409.59798145 C224.54889992 407.07631295 226.05079195 404.5614172 227.56074715 402.05086231 C231.17525756 396.02390425 234.64645799 389.91402908 238.14082527 383.81697559 C239.36482292 381.69254962 240.58999166 379.56879774 241.81660652 377.44588184 C242.3274781 376.561021 242.83834969 375.67616016 243.36470222 374.76448536 C244.83190384 372.2483386 246.32770902 369.75079915 247.82832527 367.25447559 C245.88134554 367.25862366 245.88134554 367.25862366 243.89503288 367.26285553 C213.05230397 367.32789222 182.20959364 367.37732871 151.36681257 367.40767158 C147.56687398 367.4114235 143.76693553 367.41530649 139.96699715 367.41927052 C139.21052872 367.42005745 138.45406029 367.42084438 137.67466858 367.42165516 C125.44161823 367.43469306 113.20861037 367.45833797 100.97558519 367.48593398 C88.41431205 367.5140332 75.8530611 367.53066138 63.29175782 367.53674108 C55.54681314 367.54084817 47.80198858 367.55379891 40.05708089 367.57822499 C34.10857076 367.59602478 28.16012157 367.59782984 22.21158409 367.59379864 C19.77843043 367.59462169 17.34527208 367.60055868 14.91214561 367.61209202 C-15.3494721 367.74845968 -15.3494721 367.74845968 -25.26151848 359.29353809 C-30.43743358 353.76832811 -33.29205675 347.41150831 -33.30589581 339.86606121 C-33.31035365 338.74050158 -33.31481149 337.61494196 -33.31940442 336.45527446 C-33.31922006 335.21337577 -33.3190357 333.97147707 -33.31884575 332.69194508 C-33.32252244 331.37674448 -33.32619913 330.06154389 -33.32998723 328.70648873 C-33.34001227 325.04793244 -33.34372484 321.38939255 -33.34637654 317.73082447 C-33.35027814 313.78792084 -33.35985663 309.84503022 -33.3685894 305.9021349 C-33.38835865 296.37563879 -33.39842094 286.8491416 -33.40731719 277.32263011 C-33.41169963 272.83692015 -33.41706659 268.35121138 -33.42230606 263.86550236 C-33.43931936 248.95449729 -33.4538134 234.04349295 -33.4610548 219.13247967 C-33.46296471 215.26233767 -33.46488504 211.39219569 -33.46684074 207.52205372 C-33.46732448 206.56014245 -33.46780822 205.59823117 -33.46830662 204.60717107 C-33.4766064 189.02584309 -33.50194197 173.4445919 -33.53442142 157.86329745 C-33.56749245 141.86783194 -33.58550363 125.87240544 -33.58869904 109.87690556 C-33.59086418 100.89543309 -33.59961326 91.91407256 -33.62516022 82.9326334 C-33.64686788 75.2832536 -33.65491735 67.63401294 -33.64519344 59.98460583 C-33.6406488 56.0826978 -33.64254416 52.18107684 -33.66195488 48.27920818 C-33.67958826 44.70367614 -33.67858788 41.12864055 -33.66305759 37.55310322 C-33.65956038 35.65409211 -33.67570668 33.75507579 -33.69266206 31.85613716 C-33.61759847 21.87313932 -31.36557937 14.44838024 -24.17167473 7.25447559 C-16.80714933 1.55290754 -9.20248378 -0.05640139 0 0 Z " fill="#5F2B2D" transform="translate(33.171674728393555,15.745524406433105)"/>
<path d="M0 0 C94.38 0 188.76 0 286 0 C287.65 3.96 289.3 7.92 291 12 C298.79410702 23.22879825 306.28824456 27.91529782 319 33 C319 74.25 319 115.5 319 158 C311 152 311 152 308.48828125 150.09375 C288.24227084 135.26363825 262.81468011 130.24106244 238.21411133 133.76977539 C229.10508199 135.31864038 218.53894348 137.77719145 211.08221054 143.46209431 C203.00482533 149.36418503 194.70084803 148.82524564 185.16113281 148.7253418 C183.36645353 148.72860505 181.57177744 148.73454737 179.77711487 148.74295044 C175.92959025 148.75530972 172.08272239 148.74898845 168.23523712 148.72788048 C162.1501388 148.69470186 156.0655506 148.70414638 149.98040771 148.7191925 C140.35819489 148.73803873 130.73624643 148.72907354 121.11404586 148.70787126 C103.87297774 148.67012217 86.63194565 148.66601138 69.39085841 148.69272357 C63.34268799 148.70081071 57.29483659 148.69222377 51.24670362 148.67016065 C47.48684176 148.65907495 43.72704954 148.66006062 39.96717644 148.6640358 C38.22489072 148.66324956 36.48259845 148.65729021 34.74035072 148.64575768 C32.36054993 148.63063821 29.98144405 148.63394163 27.60162354 148.64164734 C26.91387824 148.63270704 26.22613295 148.62376675 25.51754689 148.61455554 C20.96847784 148.65526506 17.87251475 149.63127272 14 152 C11.97618517 154.81149277 11.71619015 157.02586909 12 160.4375 C12.04125 161.17871094 12.0825 161.91992188 12.125 162.68359375 C13.5184454 166.37249162 15.5138949 168.32716074 19 170 C24.08259308 170.76995972 29.15059726 170.69114667 34.27685547 170.65942383 C35.84423598 170.66788098 37.41160598 170.6785269 38.97895813 170.69119263 C43.22448206 170.71931583 47.46950034 170.71687156 51.71508932 170.70889878 C56.15544161 170.70577201 60.59563335 170.73081305 65.03591919 170.75285339 C73.43995729 170.7902954 81.84383358 170.80244148 90.24794686 170.8054778 C99.81751028 170.81016846 109.38691159 170.84309202 118.95640349 170.87837565 C138.63758389 170.95031013 158.31869831 170.98682693 178 171 C177.58767624 171.74974091 177.17535248 172.49948181 176.75053406 173.27194214 C175.93948967 174.75163986 175.93948967 174.75163986 175.11206055 176.26123047 C174.57598679 177.23784637 174.03991302 178.21446228 173.4875946 179.22067261 C171.74672632 182.47320047 170.24665962 185.72640325 168.8125 189.125 C168.11060547 190.76855469 168.11060547 190.76855469 167.39453125 192.4453125 C165.77524445 196.5729063 164.40210985 200.79367045 163 205 C109.21 205 55.42 205 0 205 C-1.65 201.04 -3.3 197.08 -5 193 C-12.79410702 181.77120175 -20.28824456 177.08470218 -33 172 C-33 126.13 -33 80.26 -33 33 C-29.37 31.35 -25.74 29.7 -22 28 C-9.73629296 20.96880796 -5.49156418 13.17975403 0 0 Z " fill="#E5E362" transform="translate(113,97)"/>
<path d="M0 0 C0.77921464 -0.00436032 1.55842928 -0.00872064 2.36125648 -0.0132131 C4.99407792 -0.02423398 7.62638271 -0.0137158 10.25920105 -0.00342751 C12.15706305 -0.00688137 14.05492305 -0.0116441 15.95277882 -0.01760924 C21.18498701 -0.03018614 26.41703202 -0.02391857 31.64924097 -0.01465058 C37.2853016 -0.0078877 42.92133334 -0.01832756 48.55738831 -0.02659035 C59.60514042 -0.03995948 70.65283153 -0.03703581 81.70058608 -0.02835242 C90.67599092 -0.02158877 99.65137862 -0.02065344 108.62678528 -0.02392387 C109.90217881 -0.02438357 111.17757234 -0.02484327 112.49161416 -0.0253169 C115.08221237 -0.02627604 117.67281058 -0.02724868 120.26340878 -0.02823468 C143.88559921 -0.03655357 167.50774869 -0.02791338 191.12993224 -0.01220688 C212.70681249 0.00203056 234.28363963 0.00075671 255.86051941 -0.01358986 C280.08696729 -0.02964419 304.31337739 -0.03597383 328.53983212 -0.02675307 C331.12112363 -0.02579738 333.70241514 -0.02485427 336.28370667 -0.02392387 C338.1889821 -0.02322963 338.1889821 -0.02322963 340.13274795 -0.02252137 C349.10171489 -0.01992655 358.07066304 -0.02431305 367.03962708 -0.03136253 C377.96357057 -0.03975952 388.88744935 -0.03753544 399.81138539 -0.0215203 C405.3893981 -0.01361327 410.96730278 -0.01058723 416.54531479 -0.02046776 C421.64519355 -0.029365 426.74486347 -0.02456443 431.84472311 -0.0085351 C433.69595106 -0.0051661 435.54719642 -0.00692845 437.3984133 -0.01416247 C439.90269519 -0.02320264 442.40624897 -0.01401322 444.91049194 0 C446.00438242 -0.01053525 446.00438242 -0.01053525 447.1203717 -0.02128333 C449.92269557 0.01034989 451.98274877 0.0875338 454.40319788 1.5730561 C455.83525598 4.02931458 455.83130941 5.784663 455.83276939 8.62652397 C455.84059264 9.72094984 455.84841588 10.8153757 455.85647619 11.94296598 C455.84978402 13.15004792 455.84309186 14.35712985 455.8361969 15.60079002 C455.84087687 16.87938849 455.84555684 18.15798696 455.85037863 19.47533083 C455.86294049 23.03153335 455.8566949 26.58749537 455.84741998 30.14369893 C455.84065093 33.97606708 455.85110002 37.80839296 455.85935974 41.64075279 C455.87272227 49.15118433 455.86980815 56.66152609 455.86112182 64.17196119 C455.85435557 70.27408422 455.85342396 76.37618202 455.85669327 82.47830772 C455.85715297 83.34572315 455.85761267 84.21313858 455.8580863 85.10683933 C455.85904544 86.86879854 455.86001808 88.63075775 455.86100407 90.39271694 C455.86956534 106.92719778 455.85971228 123.46162878 455.84360297 139.99610144 C455.83019912 154.19341681 455.832527 168.3906586 455.84635925 182.58797264 C455.86240206 199.06197875 455.8687413 215.53594114 455.85952246 232.00995398 C455.85856678 233.76554902 455.85762367 235.52114407 455.85669327 237.27673912 C455.85623044 238.14059853 455.85576761 239.00445795 455.85529076 239.89449492 C455.85269697 245.99157566 455.85708024 252.08862873 455.86413193 258.18570518 C455.87253272 265.61274 455.87029684 273.03967966 455.8542897 280.46670353 C455.84638773 284.25844826 455.84334792 288.05003414 455.85323715 291.8417778 C455.86377992 295.94607668 455.85121955 300.04997206 455.8361969 304.15425682 C455.84288906 305.36133875 455.84958123 306.56842069 455.85647619 307.81208086 C455.84865295 308.90650672 455.8408297 310.00093259 455.83276939 311.12852287 C455.83203881 312.55060436 455.83203881 312.55060436 455.83129346 314.00141478 C455.45524597 316.37752342 455.45524597 316.37752342 454.14226782 318.18429995 C451.35058248 320.15884728 448.23262655 319.74259223 444.94352722 319.67049217 C444.21530258 319.66624733 443.48707794 319.66200249 442.73678589 319.65762901 C440.4133947 319.64085076 438.09087447 319.60320197 435.76774597 319.56502342 C434.19158663 319.5499754 432.61541369 319.53628719 431.03923035 319.5240078 C427.1775672 319.49095027 423.3165542 319.43917536 419.45524597 319.37752342 C419.88837097 318.16064842 420.32149597 316.94377342 420.76774597 315.69002342 C424.42119001 304.56367498 425.95895486 294.21547751 425.89274597 282.50252342 C425.91272644 281.25599998 425.93270691 280.00947655 425.95329285 278.72517967 C425.949949 272.25818617 425.40412628 266.68949423 423.4553833 260.50987816 C420.97460766 251.88911562 420.89990731 243.60211818 420.95695496 234.68953514 C420.95312158 232.97131443 420.94749391 231.25309695 420.94023132 229.53488731 C420.92837844 225.86820155 420.92869293 222.20180263 420.93882561 218.53511238 C420.95450743 212.7355822 420.94062849 206.93634164 420.92279053 201.13683128 C420.89211772 189.88685052 420.89046559 178.63696059 420.8924408 167.38694572 C420.89383855 153.03081663 420.88351314 138.67475611 420.84386307 124.31867802 C420.82893736 118.55376188 420.82919181 112.78910599 420.8413409 107.0241859 C420.84604675 103.44572306 420.83854127 99.8673603 420.82779694 96.28891373 C420.82538876 94.63006646 420.82813333 92.97120251 420.8364048 91.31237411 C420.8470195 89.04849653 420.83928069 86.78538858 420.82705688 84.52153587 C420.82764319 83.25511694 420.8282295 81.98869801 420.82883358 80.68390274 C420.42518042 77.11143288 419.59075035 75.23622487 417.45524597 72.37752342 C414.5075015 70.37926296 411.63211345 69.98619812 408.14274597 69.50252342 C398.94712403 67.89054189 394.00790763 63.82621589 388.45524597 56.37752342 C386.50988761 53.01735898 386.37267688 50.17979554 386.14274597 46.37752342 C385.8248833 42.49959877 385.57429646 41.53103589 383.08024597 38.31502342 C379.37252784 35.57837432 376.72541627 35.25203388 372.24306679 35.24609566 C370.61372827 35.24033394 370.61372827 35.24033394 368.95147383 35.23445582 C367.15457014 35.23575555 367.15457014 35.23575555 365.32136536 35.23708153 C363.41783501 35.23262484 363.41783501 35.23262484 361.47584951 35.22807813 C357.94638713 35.22000011 354.41694507 35.21821811 350.88747454 35.21748066 C347.08370956 35.21563152 343.27995516 35.20808495 339.47619629 35.20134544 C331.15605709 35.18775645 322.8359227 35.18173667 314.51577425 35.17733479 C309.32274937 35.17457362 304.12972635 35.17033653 298.93670273 35.16583061 C284.56440917 35.15363778 270.19211711 35.14333812 255.8198185 35.13995552 C254.89975457 35.13973595 253.97969064 35.13951639 253.03174599 35.13929017 C252.10945876 35.13907189 251.18717154 35.13885361 250.23693621 35.13862872 C248.36797436 35.13818525 246.49901251 35.13773869 244.63005066 35.13728905 C243.70297752 35.13706762 242.77590438 35.13684619 241.82073812 35.13661805 C226.79284354 35.13266853 211.7649974 35.11520988 196.73712154 35.09192953 C181.31572125 35.06823194 165.89434529 35.05575442 150.4729265 35.0545876 C141.81130166 35.05367 133.14973995 35.04789634 124.48813248 35.02976799 C117.11386783 35.01438856 109.73968583 35.00923379 102.3654082 35.01750609 C98.6017604 35.02142013 94.83827916 35.02044647 91.07465172 35.00644875 C86.99734467 34.99142277 82.920415 34.99955383 78.84309387 35.01003075 C77.64961952 35.00197434 76.45614516 34.99391794 75.22650492 34.9856174 C74.13506375 34.99220724 73.04362258 34.99879709 71.91910744 35.00558662 C70.97788808 35.00498954 70.03666871 35.00439245 69.06692755 35.00377727 C65.89073504 35.45830808 64.03714878 36.49579552 61.45524597 38.37752342 C59.10398183 41.90441963 58.92926162 44.32628759 58.33024597 48.50252342 C57.02142145 55.909705 54.52811191 60.80489171 48.45524597 65.37752342 C43.84784171 67.98424818 39.41152379 69.4082063 34.14274597 69.81502342 C29.64884487 70.50053376 28.25989826 71.89295543 25.45524597 75.37752342 C24.0333645 78.22128636 24.3226906 80.62290159 24.31480408 83.80373192 C24.31183295 84.47090996 24.30886183 85.138088 24.30580068 85.82548356 C24.29709637 88.07168387 24.29560397 90.317831 24.29411316 92.56404686 C24.28948614 94.17035092 24.28446164 95.77665388 24.27906799 97.38295555 C24.2659292 101.75500095 24.25949595 106.12703099 24.25505733 110.49909306 C24.25212848 113.22989612 24.24802399 115.96069496 24.24355316 118.6914959 C24.22987321 127.23340897 24.22020947 135.77531243 24.21635127 144.31723571 C24.21187167 154.18122446 24.19433044 164.04507455 24.16535068 173.90902114 C24.14373633 181.53032648 24.13364709 189.15159281 24.13231015 196.77292848 C24.13126178 201.3260539 24.12534734 205.87904908 24.10749054 210.43214226 C24.09101453 214.71670657 24.08885204 219.00104267 24.09762955 223.28562737 C24.09840022 224.85697096 24.09405313 226.4283268 24.0841713 227.99963951 C24.07145563 230.14782444 24.07732581 232.29520071 24.0877533 234.44338036 C24.08628674 235.64464436 24.08482018 236.84590836 24.08330917 238.0835743 C24.50421002 241.81115917 25.48842384 244.19709134 27.45524597 247.37752342 C30.69715206 249.53879415 32.46633411 249.81295016 36.26774597 250.31502342 C45.25953756 251.72337632 49.66551055 255.03047396 55.58024597 261.81502342 C58.35466199 266.04323343 58.74879339 271.23935961 59.54899597 276.13533592 C60.54821904 279.7101426 61.59728839 281.08016521 64.45524597 283.37752342 C67.39671676 284.84825882 70.01631225 284.51919786 73.3014679 284.53574181 C74.01371486 284.54067978 74.72596182 284.54561776 75.45979202 284.55070537 C77.85817659 284.56612377 80.2565343 284.57445269 82.654953 284.58284569 C84.36951435 284.59242081 86.08407331 284.60243067 87.79862976 284.61284447 C92.46363663 284.63993932 97.12865366 284.66092404 101.79369593 284.68084645 C106.6651003 284.70267781 111.53647318 284.73008041 116.40785217 284.75690269 C125.63716944 284.8068682 134.86650414 284.85179269 144.09585559 284.89492506 C154.60116423 284.9442645 165.10644127 284.99919482 175.61171937 285.05460465 C197.22619882 285.16848391 218.84070842 285.27530997 240.45524597 285.37752342 C240.53466934 285.94901619 240.61409271 286.52050896 240.69592285 287.10931969 C241.06376242 289.7296069 241.4410697 292.34844886 241.81852722 294.96736717 C241.9432843 295.86628685 242.06804138 296.76520653 242.19657898 297.6913662 C243.05243532 303.56950042 244.34157523 308.89421176 246.68571472 314.38142967 C247.45524597 316.37752342 247.45524597 316.37752342 247.45524597 319.37752342 C215.02082996 319.44591672 182.58643466 319.49902943 150.15196304 319.53071941 C146.32540423 319.53447167 142.49884558 319.53835462 138.67228699 319.54231834 C137.91046715 319.54310528 137.14864732 319.54389221 136.36374203 319.54470298 C124.01791426 319.55776766 111.67212828 319.58142733 99.32632532 319.60898181 C86.66452449 319.63700651 74.00274559 319.65369345 61.34091502 319.65978891 C53.52377786 319.66391146 45.70675878 319.6769462 37.88965795 319.70127282 C31.90205998 319.71896032 25.91456424 319.72089649 19.9269371 319.71684647 C17.46581481 319.71767488 15.00468822 319.72368282 12.54359245 319.73513985 C9.19449266 319.74997191 5.84590627 319.74651089 2.49679565 319.73828697 C1.51334236 319.7470255 0.52988907 319.75576402 -0.48336583 319.76476735 C-1.37760485 319.7587942 -2.27184387 319.75282106 -3.19318104 319.74666691 C-3.96667135 319.74780607 -4.74016166 319.74894523 -5.53709108 319.75011891 C-8.17105537 319.26129024 -9.02143355 318.57433689 -10.54475403 316.37752342 C-10.92080152 314.00141478 -10.92080152 314.00141478 -10.92227745 311.12852287 C-10.93401231 309.48688408 -10.93401231 309.48688408 -10.94598424 307.81208086 C-10.93929208 306.60499893 -10.93259991 305.39791699 -10.92570496 304.15425682 C-10.93038493 302.87565835 -10.9350649 301.59705989 -10.93988669 300.27971601 C-10.95244855 296.7235135 -10.94620295 293.16755147 -10.93692803 289.61134791 C-10.93015899 285.77897977 -10.94060808 281.94665388 -10.9488678 278.11429405 C-10.96223033 270.60386252 -10.95931621 263.09352076 -10.95062988 255.58308566 C-10.94386362 249.48096263 -10.94293201 243.37886482 -10.94620132 237.27673912 C-10.94666102 236.40932369 -10.94712072 235.54190826 -10.94759435 234.64820752 C-10.9485535 232.8862483 -10.94952614 231.1242891 -10.95051213 229.3623299 C-10.9590734 212.82784906 -10.94922034 196.29341807 -10.93311103 179.75894541 C-10.91970717 165.56163004 -10.92203506 151.36438824 -10.93586731 137.1670742 C-10.95191012 120.69306809 -10.95824936 104.2191057 -10.94903052 87.74509287 C-10.94807484 85.98949783 -10.94713173 84.23390278 -10.94620132 82.47830772 C-10.9457385 81.61444831 -10.94527567 80.7505889 -10.94479882 79.86055192 C-10.94220503 73.76347119 -10.94658829 67.66641811 -10.95363998 61.56934166 C-10.96204077 54.14230684 -10.95980489 46.71536718 -10.94379775 39.28834331 C-10.93589579 35.49659859 -10.93285598 31.7050127 -10.94274521 27.91326904 C-10.95328798 23.80897016 -10.94072761 19.70507478 -10.92570496 15.60079002 C-10.93239712 14.39370809 -10.93908929 13.18662616 -10.94598424 11.94296598 C-10.938161 10.84854012 -10.93033776 9.75411426 -10.92227745 8.62652397 C-10.92179039 7.67846964 -10.92130334 6.73041532 -10.92080152 5.75363207 C-10.54475403 3.37752342 -10.54475403 3.37752342 -9.49270594 1.5730561 C-6.4801069 -0.27589129 -3.42873808 -0.03302214 0 0 Z " fill="#EEF19E" transform="translate(33.54475402832031,39.62247657775879)"/>
<path d="M0 0 C1.42119141 0.49306641 1.42119141 0.49306641 2.87109375 0.99609375 C21.37000671 7.94822099 34.72830009 21.27224722 43.38671875 38.80859375 C47.30140531 48.1368989 48.32534658 56.9974521 48.25 67.0625 C48.25773438 68.09955078 48.26546875 69.13660156 48.2734375 70.20507812 C48.25828358 76.17951279 47.74348923 81.28454762 46 87 C45.690625 88.03382813 45.38125 89.06765625 45.0625 90.1328125 C38.3803377 108.95096075 24.81897483 123.31124313 7 132 C-8.21527914 138.62786781 -28.38981475 139.98051039 -44.3125 134.9375 C-46.57046387 134.02670334 -48.80340346 133.05019762 -51 132 C-52.03898437 131.50371094 -53.07796875 131.00742187 -54.1484375 130.49609375 C-71.75038971 121.1068776 -83.95417829 105.23804629 -90.17578125 86.44921875 C-94.91346615 66.98204903 -92.15578262 47.09294604 -82.10595703 29.80566406 C-73.05014027 15.02049392 -57.96342882 3.99313539 -41.44921875 -1.09375 C-28.06660435 -4.19863154 -12.98140295 -4.95580607 0 0 Z " fill="#FDC324" transform="translate(389,255)"/>
<path d="M0 0 C11.26442193 7.34183432 18.07409436 16.89415807 22.28515625 29.52734375 C23.16954164 43.66301195 21.95803784 55.80242172 13.28515625 67.52734375 C12.85589844 68.13191406 12.42664063 68.73648438 11.984375 69.359375 C7.97540193 74.54280778 3.00182835 77.45917879 -2.71484375 80.52734375 C-3.80796875 81.12546875 -4.90109375 81.72359375 -6.02734375 82.33984375 C-14.78842525 86.2110193 -27.18859679 85.90593439 -36.34765625 83.62109375 C-42.47280274 81.17730129 -47.76990128 77.87289925 -52.71484375 73.52734375 C-53.63910156 72.74230469 -53.63910156 72.74230469 -54.58203125 71.94140625 C-59.45381781 67.48779879 -62.21264432 62.59494823 -64.71484375 56.52734375 C-65.19630859 55.37105469 -65.19630859 55.37105469 -65.6875 54.19140625 C-69.27585011 44.14402595 -69.15195267 32.89166154 -64.96484375 23.078125 C-64.55234375 22.23636719 -64.13984375 21.39460938 -63.71484375 20.52734375 C-63.30234375 19.67527344 -62.88984375 18.82320313 -62.46484375 17.9453125 C-56.32154828 6.58370639 -46.4716809 -0.58769127 -34.359375 -4.578125 C-22.6682642 -7.44764737 -10.53825891 -5.71643685 0 0 Z " fill="#5F2B2D" transform="translate(389.71484375,282.47265625)"/>
<path d="M0 0 C1.01346528 -0.00467997 2.02693056 -0.00935994 3.07110691 -0.01418173 C6.47128398 -0.02615961 9.87106009 -0.01666336 13.27124023 -0.00723267 C15.70718623 -0.01129711 18.14313039 -0.01663828 20.57907104 -0.02316284 C26.51107572 -0.03543455 32.44297604 -0.03362144 38.37497783 -0.02492492 C43.19604982 -0.01814967 48.0170899 -0.01723096 52.83816528 -0.02049637 C53.86741807 -0.02118592 53.86741807 -0.02118592 54.91746384 -0.0218894 C56.31140352 -0.02284857 57.7053432 -0.02382121 59.09928286 -0.02480717 C72.1701644 -0.03336173 85.24098282 -0.0235259 98.311854 -0.00740607 C109.52718884 0.00599719 120.74243052 0.00366911 131.95776367 -0.01016235 C144.98188149 -0.02621701 158.00594398 -0.03253776 171.0300703 -0.02332556 C172.41888109 -0.02236992 173.80769188 -0.0214268 175.19650269 -0.02049637 C176.22148396 -0.01980213 176.22148396 -0.01980213 177.26717192 -0.01909386 C182.08243517 -0.01650363 186.89766333 -0.02087569 191.71292114 -0.02793503 C198.19389903 -0.03722752 204.67474227 -0.03061124 211.1557045 -0.01325226 C213.53696525 -0.00927905 215.91824079 -0.01043564 218.2994957 -0.01704025 C221.54475466 -0.02521266 224.78944541 -0.01498576 228.03466797 0 C229.45513853 -0.01003825 229.45513853 -0.01003825 230.90430546 -0.02027929 C235.76741673 0.02341308 239.07792467 0.20099092 243.01733398 3.38095093 C245.76932792 6.49987739 246.24539479 8.84293306 246.01733398 12.88095093 C245.34824117 17.39168899 243.64863603 19.54676396 240.01733398 22.38095093 C237.72752783 23.525854 236.45719381 23.50814816 233.91209698 23.51237869 C233.04731627 23.51621984 232.18253557 23.52006098 231.29154938 23.52401853 C230.33583049 23.52315204 229.38011159 23.52228556 228.39543152 23.52139282 C227.38452951 23.52436394 226.37362751 23.52733507 225.33209211 23.53039622 C221.92272114 23.5391128 218.51338516 23.54059396 215.10400391 23.54208374 C212.66850204 23.54670981 210.2330009 23.55173419 207.79750061 23.55712891 C201.16526209 23.57027503 194.53303734 23.57673858 187.90078902 23.58113956 C183.76090285 23.58390042 179.62101901 23.58813749 175.48113441 23.59264374 C164.02295039 23.60483797 152.56476825 23.61513682 141.10657787 23.61851883 C140.37293834 23.6187384 139.6392988 23.61895796 138.88342776 23.61918418 C137.78030735 23.6195116 137.78030735 23.6195116 136.65490168 23.61984563 C135.16462847 23.6202891 133.67435525 23.62073566 132.18408203 23.6211853 C131.44485212 23.62140673 130.70562221 23.62162816 129.9439914 23.6218563 C117.96499475 23.62580456 105.98605892 23.64325873 94.00708576 23.66654482 C81.71359097 23.69024975 69.4201267 23.7027203 57.12660867 23.70388675 C50.22218631 23.70480402 43.31784317 23.71056936 36.41344261 23.72870636 C29.92021194 23.74570291 23.42709163 23.74736637 16.93384361 23.73856735 C14.54774066 23.73779435 12.16162977 23.74217409 9.77554703 23.7520256 C6.52357908 23.76466692 3.27215099 23.75891066 0.02018738 23.7484436 C-0.92883935 23.75650001 -1.87786608 23.76455641 -2.8556512 23.77285695 C-7.69789675 23.73628865 -11.09675164 23.61151288 -14.98266602 20.38095093 C-17.60542312 16.31115542 -18.59836058 13.20389172 -17.98266602 8.38095093 C-14.31729003 0.08562633 -8.08740581 -0.05715246 0 0 Z " fill="#5E2A2D" transform="translate(141.982666015625,187.61904907226563)"/>
<path d="M0 0 C1.26586189 -0.01073296 1.26586189 -0.01073296 2.55729675 -0.02168274 C3.48510452 -0.02437164 4.41291229 -0.02706055 5.36883545 -0.02983093 C6.34460037 -0.03640213 7.3203653 -0.04297333 8.32569885 -0.04974365 C11.56501334 -0.06950497 14.80428139 -0.08114586 18.04364014 -0.09111023 C19.14860588 -0.09518576 20.25357162 -0.09926128 21.39202118 -0.10346031 C27.24089879 -0.12433361 33.08975285 -0.13862961 38.93865967 -0.147995 C44.98262487 -0.15905914 51.02622188 -0.19345583 57.07005692 -0.23316669 C61.71462695 -0.25930365 66.35910892 -0.26768428 71.00374603 -0.27127647 C73.23168167 -0.27615034 75.45961318 -0.28778699 77.68747711 -0.30631447 C80.80682079 -0.33064207 83.92520735 -0.3297522 87.0446167 -0.32279968 C88.42418297 -0.34201477 88.42418297 -0.34201477 89.83161926 -0.36161804 C95.38018616 -0.31656565 98.57066218 0.43039013 102.96551514 4.14717102 C105.50817308 7.1819563 105.96551514 8.60077519 105.96551514 12.58467102 C104.71458586 17.04110656 103.22175017 18.89093598 99.96551514 22.14717102 C97.23888521 23.05604766 95.61749065 23.27977073 92.81077576 23.30107117 C91.54285187 23.31397186 91.54285187 23.31397186 90.24931335 23.32713318 C89.32510086 23.33139313 88.40088837 23.33565308 87.44866943 23.34004211 C86.47275848 23.3482196 85.49684753 23.35639709 84.49136353 23.36482239 C81.25749323 23.38966232 78.02366675 23.40618785 74.78973389 23.42060852 C73.68568521 23.4259322 72.58163654 23.43125587 71.44413185 23.43674088 C65.60173868 23.46346487 59.75936683 23.48284322 53.91693115 23.49726868 C47.88075741 23.51392523 41.8451287 23.55871414 35.80916119 23.60964012 C31.16888292 23.64328075 26.52873463 23.65484258 21.88834572 23.66049576 C19.66318401 23.66721572 17.43803108 23.68245697 15.2129879 23.70638657 C12.09838651 23.73797503 8.9852637 23.7380841 5.87054443 23.73066711 C4.95240463 23.74707245 4.03426483 23.76347778 3.08830261 23.78038025 C-1.25775491 23.73803421 -4.12397567 23.53118428 -7.56370544 20.72789001 C-11.00884452 17.12945635 -12.06516148 15.80370853 -11.97198486 10.77217102 C-10.80309591 6.25246705 -9.26877187 4.46034308 -6.03448486 1.14717102 C-3.76697436 0.01341577 -2.51776751 0.01463553 0 0 Z " fill="#5F2B2D" transform="translate(209.03448486328125,130.8528289794922)"/>
<path d="M0 0 C2.70338032 3.24966869 4.97130548 6.47474409 7.0234375 10.16796875 C7.57 11.14443359 8.1165625 12.12089844 8.6796875 13.12695312 C9.23914063 14.13693359 9.79859375 15.14691406 10.375 16.1875 C11.48564612 18.18173258 12.59761631 20.17522835 13.7109375 22.16796875 C14.25202148 23.13782715 14.79310547 24.10768555 15.35058594 25.10693359 C17.45683357 28.80128446 19.67274734 32.4227315 21.92041016 36.0324707 C23 38 23 38 23 40 C10.38082521 38.19176459 10.38082521 38.19176459 5.6875 36.875 C0.62442769 35.67359301 -3.86654099 34.7055049 -8.54296875 37.54296875 C-11.57592308 40.57592308 -12.79239145 43.70724518 -14.125 47.6875 C-14.37652832 48.39777344 -14.62805664 49.10804688 -14.88720703 49.83984375 C-15.60806917 51.88797051 -16.3073071 53.94220284 -17 56 C-17.34546875 57.00675781 -17.6909375 58.01351562 -18.046875 59.05078125 C-18.71541617 61.02802331 -19.36129547 63.01291924 -20 65 C-22.57568485 62.66468707 -24.14122993 60.2377498 -25.8203125 57.203125 C-26.35188965 56.25074951 -26.8834668 55.29837402 -27.43115234 54.31713867 C-27.99012207 53.30498291 -28.5490918 52.29282715 -29.125 51.25 C-33.43521876 43.50748025 -37.79337987 35.8232188 -42.54736328 28.34277344 C-43.42351865 26.92988538 -44.22144579 25.46892962 -45 24 C-44.67 23.34 -44.34 22.68 -44 22 C-41.50473674 21.2459702 -39.02410801 20.57923174 -36.5 19.9375 C-22.80148041 16.16789356 -10.56118745 9.52323291 0 0 Z " fill="#8DB9C7" transform="translate(430,391)"/>
<path d="M0 0 C0.48009521 0.37833984 0.96019043 0.75667969 1.45483398 1.14648438 C14.00243015 10.94835462 28.14286946 19.26601198 44 22 C44 26.34768427 43.31519903 27.70864528 41.21875 31.40234375 C40.62739258 32.45236572 40.03603516 33.5023877 39.42675781 34.58422852 C38.79092773 35.69080811 38.15509766 36.7973877 37.5 37.9375 C36.8615918 39.06019287 36.22318359 40.18288574 35.56542969 41.33959961 C33.72273914 44.56711277 31.86567689 47.78572911 30 51 C29.53271484 51.80598633 29.06542969 52.61197266 28.58398438 53.44238281 C23.98616768 61.3144023 23.98616768 61.3144023 22 64 C21.34 64 20.68 64 20 64 C19.8141333 63.39526855 19.6282666 62.79053711 19.43676758 62.16748047 C18.57661018 59.39854237 17.69479298 56.63696065 16.8125 53.875 C16.52052734 52.92367187 16.22855469 51.97234375 15.92773438 50.9921875 C14.09068198 45.30325105 12.31362338 41.19666708 8 37 C2.01981916 35.00660639 -3.59473758 36.1735879 -9.625 37.5 C-13.842067 38.42381995 -17.67626019 39.19879263 -22 39 C-20.65284088 35.44343616 -19.07581421 32.17791934 -17.20703125 28.8671875 C-16.65853516 27.89523437 -16.11003906 26.92328125 -15.54492188 25.921875 C-14.97322266 24.91640625 -14.40152344 23.9109375 -13.8125 22.875 C-13.26013672 21.89273437 -12.70777344 20.91046875 -12.13867188 19.8984375 C-8.30184103 13.12493821 -4.24015814 6.52812855 0 0 Z " fill="#8DB9C7" transform="translate(304,391)"/>
<path d="M0 0 C5.27610285 2.91639701 9.44026081 7.07078243 11.37890625 12.88671875 C12.48684546 19.196141 12.98726164 25.7798482 9.625 31.4375 C5.93502762 36.45127604 1.72874229 40.02434057 -4.25 42 C-11.39949055 42.86965634 -17.68592647 42.91019416 -23.6015625 38.4921875 C-28.39122347 34.15652283 -31.69435978 29.77728497 -32.65625 23.23828125 C-32.90753858 15.39598359 -31.45966925 9.9883777 -26.25 4 C-18.40138839 -2.41487276 -9.4101993 -4.24241965 0 0 Z " fill="#8DBAC8" transform="translate(377.25,302)"/>
</svg>
