<?xml version="1.0" encoding="UTF-8"?>
<svg version="1.1" xmlns="http://www.w3.org/2000/svg" width="512" height="512">
<path d="M0 0 C9.42070233 6.71999509 14.47291514 15.25443224 16.56640625 26.52734375 C16.98978752 31.36933601 17.03165292 36.16915475 17.00390625 41.02734375 C17.02388672 42.26871094 17.04386719 43.51007812 17.06445312 44.7890625 C17.0582189 56.62161385 14.06209564 66.26910207 6.56640625 75.52734375 C3.94140625 77.83984375 3.94140625 77.83984375 1.56640625 79.52734375 C0.88578125 80.24921875 0.20515625 80.97109375 -0.49609375 81.71484375 C-2.43359375 83.52734375 -2.43359375 83.52734375 -6.43359375 84.52734375 C-6.10359375 89.14734375 -5.77359375 93.76734375 -5.43359375 98.52734375 C-3.75652344 99.03523438 -2.07945312 99.543125 -0.3515625 100.06640625 C1.89211804 100.76110232 4.13559698 101.45644973 6.37890625 102.15234375 C7.47912109 102.48363281 8.57933594 102.81492187 9.71289062 103.15625 C18.97008625 106.05083034 28.4675713 109.54996817 35.25390625 116.77734375 C36.21876953 117.77507812 36.21876953 117.77507812 37.203125 118.79296875 C38.56640625 120.52734375 38.56640625 120.52734375 38.56640625 122.52734375 C39.22640625 122.52734375 39.88640625 122.52734375 40.56640625 122.52734375 C40.64890625 121.59921875 40.73140625 120.67109375 40.81640625 119.71484375 C41.25959994 116.42476315 42.27432347 113.7534224 43.57421875 110.70703125 C46.17987711 103.68473519 46.16156738 96.88353308 46.19140625 89.46484375 C46.21681152 86.8696952 46.25023202 84.2746085 46.29296875 81.6796875 C46.29893066 80.54523193 46.30489258 79.41077637 46.31103516 78.24194336 C46.56640625 75.52734375 46.56640625 75.52734375 48.56640625 73.52734375 C51.00219727 73.30371094 51.00219727 73.30371094 54.0703125 73.32421875 C55.19614746 73.31648438 56.32198242 73.30875 57.48193359 73.30078125 C58.68543457 73.29304688 59.88893555 73.2853125 61.12890625 73.27734375 C71.38066136 73.08220129 79.89064022 71.93843268 89.30859375 67.90234375 C101.4519673 62.77708297 120.49559265 63.73524722 132.56640625 68.52734375 C134.40138672 69.22923828 134.40138672 69.22923828 136.2734375 69.9453125 C152.54569892 76.79019901 166.48878703 91.07413852 173.33349609 107.3515625 C181.49029221 128.1045913 181.65963513 149.71281289 173.14453125 170.359375 C168.74216978 179.19678875 162.83713432 186.85695103 155.56640625 193.52734375 C154.8084375 194.33042969 154.05046875 195.13351563 153.26953125 195.9609375 C145.12403113 203.69445424 134.32022989 207.9091501 123.56640625 210.52734375 C122.80070312 210.718125 122.035 210.90890625 121.24609375 211.10546875 C107.77468847 213.22633139 91.6659915 212.25944381 79.56640625 205.52734375 C79.64890625 206.55859375 79.73140625 207.58984375 79.81640625 208.65234375 C79.52328035 213.19579526 78.46180142 215.06895508 75.56640625 218.52734375 C71.56640625 220.52734375 71.56640625 220.52734375 51.56640625 220.52734375 C51.56640625 265.73734375 51.56640625 310.94734375 51.56640625 357.52734375 C53.21640625 357.85734375 54.86640625 358.18734375 56.56640625 358.52734375 C57.61828125 358.90052734 57.61828125 358.90052734 58.69140625 359.28125 C59.31015625 359.36246094 59.92890625 359.44367188 60.56640625 359.52734375 C62.16927083 358.30469878 62.16927083 358.30469878 63.56640625 356.46484375 C70.12607846 349.4124923 79.52555461 346.23959924 88.56640625 343.52734375 C88.0353125 342.99367188 87.50421875 342.46 86.95703125 341.91015625 C86.250625 341.16507812 85.54421875 340.42 84.81640625 339.65234375 C83.77226563 338.57339844 83.77226563 338.57339844 82.70703125 337.47265625 C76.74670612 329.27177094 75.87013404 321.17145312 75.93505859 311.1875 C75.9413806 309.1605661 75.89433173 307.13949712 75.84375 305.11328125 C75.83229458 293.42875053 79.36805832 283.73945496 87.55078125 275.21875 C95.06237978 268.91541248 103.28089789 267.61741099 112.8203125 268.10546875 C117.76557673 268.6623911 121.37931624 269.8952104 125.56640625 272.52734375 C126.18773437 272.86636719 126.8090625 273.20539063 127.44921875 273.5546875 C134.29265041 277.71703446 137.92314895 284.93805009 140.44140625 292.33984375 C141.78720081 297.90617747 141.84415443 303.45453452 141.87890625 309.15234375 C141.8845459 310.03510986 141.89018555 310.91787598 141.89599609 311.82739258 C141.80647633 319.95017297 140.73420015 327.18640272 136.69140625 334.33984375 C136.19898438 335.23316406 135.7065625 336.12648438 135.19921875 337.046875 C133.54879899 339.55409162 131.76078349 341.48970774 129.56640625 343.52734375 C130.54480469 343.89085937 131.52320313 344.254375 132.53125 344.62890625 C151.11948789 351.69319574 151.11948789 351.69319574 156.56640625 359.52734375 C157.13746094 359.31078125 157.70851563 359.09421875 158.296875 358.87109375 C167.97359482 355.54808663 177.8240885 354.83729791 187.28515625 359.19921875 C195.85337352 364.18756442 201.92595349 371.36931379 204.94458008 380.78466797 C206.18765031 386.26745202 206.03668294 391.80646971 206.00390625 397.40234375 C206.02388672 398.60503906 206.04386719 399.80773437 206.06445312 401.046875 C206.05827999 412.41779111 203.47701039 422.07429818 195.56640625 430.52734375 C194.90640625 430.85734375 194.24640625 431.18734375 193.56640625 431.52734375 C194.61828125 431.91921875 195.67015625 432.31109375 196.75390625 432.71484375 C197.47964844 432.99070312 198.20539063 433.2665625 198.953125 433.55078125 C200.8644806 434.2650397 202.78522614 434.95430923 204.7109375 435.62890625 C215.01593262 439.34782184 222.71670677 443.34811587 227.56640625 453.52734375 C230.52292058 460.43111924 231.9061597 467.40749103 233.25390625 474.77734375 C233.47884766 475.92847656 233.70378906 477.07960938 233.93554688 478.265625 C235.29334932 485.58702788 236.51752574 493.07925524 235.56640625 500.52734375 C233.35077463 503.50095461 231.8272104 504.89694168 228.56640625 506.52734375 C227.09771147 506.6298635 225.62451632 506.67110226 224.15228271 506.6812439 C223.22423325 506.68984436 222.29618378 506.69844482 221.3400116 506.70730591 C219.80803886 506.71369583 219.80803886 506.71369583 218.24511719 506.72021484 C217.17181656 506.72839233 216.09851593 506.73656982 214.99269104 506.74499512 C211.42872684 506.76987672 207.86480255 506.78637228 204.30078125 506.80078125 C202.4778442 506.80876677 202.4778442 506.80876677 200.61808014 506.8169136 C194.1856601 506.84365721 187.75325954 506.86302827 181.32080078 506.87744141 C174.6714356 506.89409198 168.02257786 506.93887042 161.37337875 506.98981285 C156.26557841 507.02344417 151.15789623 507.03501441 146.04999542 507.04066849 C143.59875961 507.0473923 141.14753187 507.06264342 138.6964035 507.0865593 C135.2656145 507.11812366 131.8361691 507.11825997 128.40527344 507.11083984 C127.39205521 507.12724518 126.37883698 507.14365051 125.33491516 507.16055298 C120.79867004 507.12038103 117.57258476 507.03660063 113.94366455 504.13540649 C111.78276422 501.76470759 110.79949862 500.67409068 110.56640625 497.52734375 C109.24640625 497.52734375 107.92640625 497.52734375 106.56640625 497.52734375 C106.22609375 498.91953125 106.22609375 498.91953125 105.87890625 500.33984375 C104.25239457 504.28994355 103.46464585 504.85013742 99.56640625 506.52734375 C96.01283826 506.97477546 92.48251946 506.957642 88.90454102 506.94726562 C87.83080231 506.95573517 86.7570636 506.96420471 85.65078735 506.97293091 C82.10300844 506.99632143 78.55566267 506.99732257 75.0078125 506.99609375 C72.54068325 507.00319383 70.07355565 507.0108926 67.60643005 507.01916504 C62.43573414 507.03261443 57.26519093 507.03417637 52.09448242 507.02832031 C45.4686777 507.02242257 38.84360529 507.05301792 32.21794224 507.09343719 C27.12298129 507.11928657 22.02819734 507.12219409 16.93317986 507.11854553 C14.49033708 507.12023921 12.04748634 507.12990541 9.60470772 507.14768982 C6.1885284 507.16982463 2.77384023 507.16020392 -0.64233398 507.14257812 C-2.15509163 507.16247299 -2.15509163 507.16247299 -3.69841003 507.18276978 C-8.22274697 507.12853153 -11.43543626 507.02595427 -15.05335999 504.13342285 C-17.21794016 501.76345934 -18.20037653 500.67577627 -18.43359375 497.52734375 C-19.75359375 497.52734375 -21.07359375 497.52734375 -22.43359375 497.52734375 C-22.77390625 498.91953125 -22.77390625 498.91953125 -23.12109375 500.33984375 C-24.74775594 504.29030907 -25.53360343 504.85243099 -29.43359375 506.52734375 C-32.99333005 506.9657974 -36.52842357 506.93702509 -40.11132812 506.91552734 C-41.18667313 506.9207843 -42.26201813 506.92604126 -43.36994934 506.93145752 C-46.92256214 506.94465526 -50.47472644 506.93591989 -54.02734375 506.92578125 C-56.49686774 506.92780204 -58.96639114 506.93071352 -61.43591309 506.93447876 C-66.61081628 506.93890182 -71.78556409 506.93247142 -76.96044922 506.91845703 C-83.59515501 506.9013654 -90.22949672 506.91120665 -96.86418915 506.92917442 C-101.96338649 506.94001259 -107.06249745 506.93656571 -112.16169739 506.92879105 C-114.60813948 506.92678914 -117.05458939 506.92924795 -119.50102234 506.93622971 C-122.91951282 506.94384445 -126.33741288 506.93223885 -129.75585938 506.91552734 C-130.76795975 506.92160004 -131.78006012 506.92767273 -132.8228302 506.93392944 C-141.63069578 506.8541218 -141.63069578 506.8541218 -145.43359375 503.52734375 C-146.74609375 500.33984375 -146.74609375 500.33984375 -147.43359375 497.52734375 C-148.75359375 497.52734375 -150.07359375 497.52734375 -151.43359375 497.52734375 C-151.66046875 498.26984375 -151.88734375 499.01234375 -152.12109375 499.77734375 C-153.80845058 503.31275807 -155.05354547 504.4902378 -158.43359375 506.52734375 C-161.99191932 507.11654259 -165.51146942 507.06343996 -169.11132812 507.02905273 C-170.18667313 507.03445572 -171.26201813 507.0398587 -172.36994934 507.04542542 C-175.92269455 507.05792734 -179.47463175 507.04141102 -183.02734375 507.0234375 C-185.49686729 507.02359245 -187.96639109 507.02508081 -190.43591309 507.02784729 C-195.61086786 507.02923195 -200.7855457 507.01666154 -205.96044922 506.99389648 C-212.59517125 506.9655121 -219.22943307 506.9682485 -225.86418915 506.9809866 C-230.96339857 506.98794017 -236.06250155 506.98015807 -241.16169739 506.96772957 C-243.60813489 506.96321197 -246.0545838 506.96288095 -248.50102234 506.96679497 C-251.9195398 506.96970393 -255.33742214 506.95321422 -258.75585938 506.93139648 C-259.76795975 506.93589813 -260.78006012 506.94039978 -261.8228302 506.94503784 C-270.51717576 506.85280072 -270.51717576 506.85280072 -274.43359375 503.52734375 C-279.61076165 495.76159189 -275.89682652 483.63237225 -274.19970703 474.98168945 C-273.8090376 472.96713254 -273.45074384 470.94849581 -273.09375 468.92773438 C-271.09528026 458.20503376 -267.78130515 447.76820997 -258.5546875 441.1640625 C-251.2653869 437.34151313 -243.26713953 434.98641068 -235.43359375 432.52734375 C-235.43359375 431.86734375 -235.43359375 431.20734375 -235.43359375 430.52734375 C-236.15546875 429.86734375 -236.87734375 429.20734375 -237.62109375 428.52734375 C-242.428072 423.95318211 -246.19880245 416.2998732 -246.6105957 409.68334961 C-246.67718924 405.94376423 -246.71855265 402.20492517 -246.74609375 398.46484375 C-246.77509766 397.17900391 -246.80410156 395.89316406 -246.83398438 394.56835938 C-246.91175792 382.84848449 -244.26380168 374.32157225 -236.43359375 365.52734375 C-230.03945792 359.13320792 -222.90811624 356.3223991 -213.93359375 356.08984375 C-208.06630403 356.26384404 -202.90667478 357.45177352 -197.43359375 359.52734375 C-197.0675 359.09164063 -196.70140625 358.6559375 -196.32421875 358.20703125 C-189.10677774 350.26784614 -179.53357506 346.55733814 -169.43359375 343.52734375 C-170.55507812 342.75003906 -170.55507812 342.75003906 -171.69921875 341.95703125 C-174.80277155 339.1993029 -176.43819136 336.33882144 -178.18359375 332.65234375 C-178.48652344 332.05292969 -178.78945312 331.45351563 -179.1015625 330.8359375 C-184.58551574 319.59992664 -184.17430912 303.20562147 -180.87109375 291.27734375 C-177.47047505 281.97990753 -171.27040009 275.00257916 -162.62109375 270.27734375 C-155.36022831 267.21245583 -146.23436115 267.3288352 -138.6484375 269.22265625 C-129.46097727 272.97328324 -123.13958184 280.04984727 -118.8203125 288.79296875 C-116.71589142 294.61060131 -116.94926462 300.71803529 -116.98754883 306.82617188 C-116.99604971 308.8916435 -116.96724734 310.95433216 -116.93554688 313.01953125 C-116.88232311 322.90740656 -118.32260789 331.21860257 -124.55859375 339.15234375 C-125.05617187 339.80460937 -125.55375 340.456875 -126.06640625 341.12890625 C-126.74316406 341.82113281 -126.74316406 341.82113281 -127.43359375 342.52734375 C-128.09359375 342.52734375 -128.75359375 342.52734375 -129.43359375 342.52734375 C-129.43359375 343.18734375 -129.43359375 343.84734375 -129.43359375 344.52734375 C-127.57734375 344.83671875 -127.57734375 344.83671875 -125.68359375 345.15234375 C-117.73419595 346.94534672 -110.08356254 350.24869716 -104.74609375 356.52734375 C-103.65296875 357.51734375 -102.55984375 358.50734375 -101.43359375 359.52734375 C-98.46359375 358.86734375 -95.49359375 358.20734375 -92.43359375 357.52734375 C-92.43359375 312.31734375 -92.43359375 267.10734375 -92.43359375 220.52734375 C-98.70359375 220.52734375 -104.97359375 220.52734375 -111.43359375 220.52734375 C-118.51606438 216.98610844 -118.51606438 216.98610844 -120.43359375 212.52734375 C-120.82177734 209.74414062 -120.82177734 209.74414062 -120.83203125 206.74609375 C-120.83589844 205.65683594 -120.83976563 204.56757813 -120.84375 203.4453125 C-120.82634766 201.75341797 -120.82634766 201.75341797 -120.80859375 200.02734375 C-120.82019531 198.89941406 -120.83179688 197.77148438 -120.84375 196.609375 C-120.83988281 195.52011719 -120.83601562 194.43085938 -120.83203125 193.30859375 C-120.82864746 192.31923828 -120.82526367 191.32988281 -120.82177734 190.31054688 C-120.36482982 187.03431932 -119.39710254 185.17318834 -117.43359375 182.52734375 C-112.06564119 179.43792286 -107.59417254 179.13605191 -101.49609375 179.33984375 C-100.71685547 179.35337891 -99.93761719 179.36691406 -99.13476562 179.38085938 C-97.23406971 179.41584151 -95.33373541 179.46963416 -93.43359375 179.52734375 C-93.33860596 178.93123291 -93.24361816 178.33512207 -93.14575195 177.72094727 C-91.24005781 165.84004701 -89.23363855 153.97554117 -86.99609375 142.15234375 C-86.8153833 141.13857666 -86.63467285 140.12480957 -86.44848633 139.08032227 C-84.47336004 128.91544286 -80.74785715 120.03851388 -72.43359375 113.52734375 C-63.82106876 107.88030356 -54.17181819 104.25785886 -44.37109375 101.27734375 C-43.07268555 100.87515625 -43.07268555 100.87515625 -41.74804688 100.46484375 C-39.64474283 99.81409775 -37.53938201 99.17000548 -35.43359375 98.52734375 C-35.43359375 93.90734375 -35.43359375 89.28734375 -35.43359375 84.52734375 C-37.41359375 83.53734375 -39.39359375 82.54734375 -41.43359375 81.52734375 C-49.2085713 74.72423839 -55.32362471 65.74316563 -57.43359375 55.52734375 C-57.71595519 50.88532161 -57.71127349 46.23950915 -57.74609375 41.58984375 C-57.77509766 40.33365234 -57.80410156 39.07746094 -57.83398438 37.78320312 C-57.91587846 25.58098437 -55.84144747 15.04306207 -47.63671875 5.68359375 C-34.49194761 -7.18150141 -15.89936366 -9.62128427 0 0 Z " fill="#FBED4D" transform="translate(276.43359375,5.47265625)"/>
<path d="M0 0 C9.42070233 6.71999509 14.47291514 15.25443224 16.56640625 26.52734375 C16.98978752 31.36933601 17.03165292 36.16915475 17.00390625 41.02734375 C17.02388672 42.26871094 17.04386719 43.51007812 17.06445312 44.7890625 C17.0582189 56.62161385 14.06209564 66.26910207 6.56640625 75.52734375 C3.94140625 77.83984375 3.94140625 77.83984375 1.56640625 79.52734375 C0.88578125 80.24921875 0.20515625 80.97109375 -0.49609375 81.71484375 C-2.43359375 83.52734375 -2.43359375 83.52734375 -6.43359375 84.52734375 C-5.93859375 91.45734375 -5.93859375 91.45734375 -5.43359375 98.52734375 C-3.75652344 99.03523438 -2.07945312 99.543125 -0.3515625 100.06640625 C1.89211804 100.76110232 4.13559698 101.45644973 6.37890625 102.15234375 C7.47912109 102.48363281 8.57933594 102.81492187 9.71289062 103.15625 C18.97008625 106.05083034 28.4675713 109.54996817 35.25390625 116.77734375 C36.21876953 117.77507812 36.21876953 117.77507812 37.203125 118.79296875 C38.56640625 120.52734375 38.56640625 120.52734375 38.56640625 122.52734375 C39.22640625 122.52734375 39.88640625 122.52734375 40.56640625 122.52734375 C40.64890625 121.59921875 40.73140625 120.67109375 40.81640625 119.71484375 C41.25959994 116.42476315 42.27432347 113.7534224 43.57421875 110.70703125 C46.17987711 103.68473519 46.16156738 96.88353308 46.19140625 89.46484375 C46.21681152 86.8696952 46.25023202 84.2746085 46.29296875 81.6796875 C46.29893066 80.54523193 46.30489258 79.41077637 46.31103516 78.24194336 C46.56640625 75.52734375 46.56640625 75.52734375 48.56640625 73.52734375 C51.00219727 73.30371094 51.00219727 73.30371094 54.0703125 73.32421875 C55.19614746 73.31648438 56.32198242 73.30875 57.48193359 73.30078125 C58.68543457 73.29304688 59.88893555 73.2853125 61.12890625 73.27734375 C71.38066136 73.08220129 79.89064022 71.93843268 89.30859375 67.90234375 C101.4519673 62.77708297 120.49559265 63.73524722 132.56640625 68.52734375 C134.40138672 69.22923828 134.40138672 69.22923828 136.2734375 69.9453125 C152.54569892 76.79019901 166.48878703 91.07413852 173.33349609 107.3515625 C181.49029221 128.1045913 181.65963513 149.71281289 173.14453125 170.359375 C168.74216978 179.19678875 162.83713432 186.85695103 155.56640625 193.52734375 C154.8084375 194.33042969 154.05046875 195.13351563 153.26953125 195.9609375 C145.12403113 203.69445424 134.32022989 207.9091501 123.56640625 210.52734375 C122.80070313 210.718125 122.035 210.90890625 121.24609375 211.10546875 C107.77468847 213.22633139 91.6659915 212.25944381 79.56640625 205.52734375 C79.64890625 206.55859375 79.73140625 207.58984375 79.81640625 208.65234375 C79.52328035 213.19579526 78.46180142 215.06895508 75.56640625 218.52734375 C71.56640625 220.52734375 71.56640625 220.52734375 51.56640625 220.52734375 C51.56640625 266.06734375 51.56640625 311.60734375 51.56640625 358.52734375 C47.27640625 358.52734375 42.98640625 358.52734375 38.56640625 358.52734375 C34.77176657 359.42904031 31.22715359 360.29486769 27.56640625 361.52734375 C27.17710937 361.08003906 26.7878125 360.63273437 26.38671875 360.171875 C18.79751357 351.97063714 8.74581407 348.63758574 -1.43359375 344.52734375 C-0.13562665 341.67181612 1.26514498 339.64626081 3.44140625 337.40234375 C10.7162229 328.96953318 11.19913757 319.78964156 11.06640625 309.02734375 C11.081875 307.77308594 11.09734375 306.51882813 11.11328125 305.2265625 C11.06549238 293.81697045 8.61746473 285.77808834 0.72265625 277.44140625 C-6.55537816 270.98083222 -14.38943825 270.16186099 -23.8203125 270.25 C-30.90822925 270.7940455 -37.63780274 273.47710759 -42.76171875 278.515625 C-50.90830289 288.31817367 -52.07134321 296.67940231 -52.12109375 309.27734375 C-52.12810303 310.5207251 -52.1351123 311.76410645 -52.14233398 313.04516602 C-51.94613594 322.99939003 -50.29509695 331.30379044 -43.18359375 338.65234375 C-42.4771875 339.39742188 -41.77078125 340.1425 -41.04296875 340.91015625 C-40.511875 341.44382812 -39.98078125 341.9775 -39.43359375 342.52734375 C-39.76359375 343.51734375 -40.09359375 344.50734375 -40.43359375 345.52734375 C-43.05859375 346.484375 -43.05859375 346.484375 -46.43359375 347.33984375 C-54.23955719 349.58844001 -60.22271217 352.62913623 -65.24609375 359.08984375 C-66.6640625 360.6015625 -66.6640625 360.6015625 -68.43359375 361.52734375 C-71.43382205 361.19099529 -74.01109409 360.41950749 -76.84765625 359.39453125 C-81.76267417 358.05723472 -81.76267417 358.05723472 -92.43359375 358.52734375 C-92.43359375 312.98734375 -92.43359375 267.44734375 -92.43359375 220.52734375 C-98.70359375 220.52734375 -104.97359375 220.52734375 -111.43359375 220.52734375 C-118.51606438 216.98610844 -118.51606438 216.98610844 -120.43359375 212.52734375 C-120.82177734 209.74414062 -120.82177734 209.74414062 -120.83203125 206.74609375 C-120.83589844 205.65683594 -120.83976563 204.56757813 -120.84375 203.4453125 C-120.83214844 202.31738281 -120.82054687 201.18945312 -120.80859375 200.02734375 C-120.82019531 198.89941406 -120.83179688 197.77148438 -120.84375 196.609375 C-120.83988281 195.52011719 -120.83601562 194.43085938 -120.83203125 193.30859375 C-120.82864746 192.31923828 -120.82526367 191.32988281 -120.82177734 190.31054688 C-120.36482982 187.03431932 -119.39710254 185.17318834 -117.43359375 182.52734375 C-112.06564119 179.43792286 -107.59417254 179.13605191 -101.49609375 179.33984375 C-100.71685547 179.35337891 -99.93761719 179.36691406 -99.13476562 179.38085938 C-97.23406971 179.41584151 -95.33373541 179.46963416 -93.43359375 179.52734375 C-93.33860596 178.93123291 -93.24361816 178.33512207 -93.14575195 177.72094727 C-91.24005781 165.84004701 -89.23363855 153.97554117 -86.99609375 142.15234375 C-86.8153833 141.13857666 -86.63467285 140.12480957 -86.44848633 139.08032227 C-84.47336004 128.91544286 -80.74785715 120.03851388 -72.43359375 113.52734375 C-63.82106876 107.88030356 -54.17181819 104.25785886 -44.37109375 101.27734375 C-43.50548828 101.00921875 -42.63988281 100.74109375 -41.74804688 100.46484375 C-39.64474283 99.81409775 -37.53938201 99.17000548 -35.43359375 98.52734375 C-35.43359375 93.90734375 -35.43359375 89.28734375 -35.43359375 84.52734375 C-37.41359375 83.53734375 -39.39359375 82.54734375 -41.43359375 81.52734375 C-49.2085713 74.72423839 -55.32362471 65.74316563 -57.43359375 55.52734375 C-57.71595519 50.88532161 -57.71127349 46.23950915 -57.74609375 41.58984375 C-57.77509766 40.33365234 -57.80410156 39.07746094 -57.83398438 37.78320312 C-57.91587846 25.58098437 -55.84144747 15.04306207 -47.63671875 5.68359375 C-34.49194761 -7.18150141 -15.89936366 -9.62128427 0 0 Z " fill="#B9804F" transform="translate(276.43359375,5.47265625)"/>
<path d="M0 0 C8.1764411 5.46788919 14.56257779 12.45783649 16.88671875 22.26171875 C17.28357586 26.69999999 17.36066399 31.1091306 17.33276367 35.56054688 C17.32426279 37.6260185 17.35306516 39.68870716 17.38476562 41.75390625 C17.43798939 51.64178156 15.99770461 59.95297757 9.76171875 67.88671875 C9.26414063 68.53898437 8.7665625 69.19125 8.25390625 69.86328125 C7.57714844 70.55550781 7.57714844 70.55550781 6.88671875 71.26171875 C6.22671875 71.26171875 5.56671875 71.26171875 4.88671875 71.26171875 C4.88671875 71.92171875 4.88671875 72.58171875 4.88671875 73.26171875 C6.12421875 73.46796875 7.36171875 73.67421875 8.63671875 73.88671875 C17.55166087 75.89750223 25.40066753 80.12172383 31.875 86.55078125 C32.88671875 88.26171875 32.88671875 88.26171875 32.75390625 90.31640625 C31.72543215 92.62352383 30.76405495 93.33957991 28.69921875 94.76171875 C22.90944983 99.41740922 19.3789108 107.04590433 17.88671875 114.26171875 C16.67807093 129.62072562 16.5587831 143.64517934 26.44921875 156.19921875 C32.998955 162.84707839 40.37694541 166.59220879 49.76171875 166.69921875 C53.87524587 166.52911049 57.83678269 165.99312511 61.88671875 165.26171875 C61.88671875 164.60171875 61.88671875 163.94171875 61.88671875 163.26171875 C64.45558477 161.51488985 65.86866964 161.26099679 69.01171875 161.38671875 C73.90859074 162.49246404 78.28558927 164.28577357 82.88671875 166.26171875 C83.6653125 166.56078125 84.44390625 166.85984375 85.24609375 167.16796875 C93.2795487 170.38135073 99.73367069 175.57088901 103.88671875 183.26171875 C106.91505294 190.67889883 108.20489205 198.4681722 109.57421875 206.32421875 C109.91163086 208.1659668 109.91163086 208.1659668 110.25585938 210.04492188 C113.02105716 225.6527404 113.02105716 225.6527404 110.63671875 231.13671875 C108.32554941 233.94313866 106.3062944 235.09838796 102.67496586 235.51619434 C101.86659495 235.51824721 101.05822405 235.52030008 100.22535706 235.52241516 C99.2931131 235.52949997 98.36086914 235.53658478 97.40037537 235.54388428 C96.38467972 235.54140686 95.36898407 235.53892944 94.32250977 235.53637695 C93.24731079 235.54148788 92.17211182 235.54659882 91.06433105 235.55186462 C87.50637258 235.56577683 83.94860746 235.56480264 80.390625 235.5625 C77.91967191 235.56638594 75.44871949 235.5707204 72.97776794 235.57548523 C67.79692419 235.58295089 62.61614857 235.58265356 57.43530273 235.57739258 C50.79273873 235.57159663 44.15045344 235.58853059 37.50793552 235.61173725 C32.40445827 235.62646117 27.30104836 235.62734812 22.19755363 235.62422752 C19.74831528 235.62474138 17.29907322 235.62999111 14.84985542 235.64003944 C11.42649285 235.65236059 8.00367595 235.64563774 4.58032227 235.6340332 C3.56665085 235.64167694 2.55297943 235.64932068 1.5085907 235.65719604 C-7.31170869 235.59103121 -7.31170869 235.59103121 -11.11328125 232.26171875 C-12.42578125 229.07421875 -12.42578125 229.07421875 -13.11328125 226.26171875 C-14.43328125 226.26171875 -15.75328125 226.26171875 -17.11328125 226.26171875 C-17.34015625 227.00421875 -17.56703125 227.74671875 -17.80078125 228.51171875 C-19.48813808 232.04713307 -20.73323297 233.2246128 -24.11328125 235.26171875 C-27.67160682 235.85091759 -31.19115692 235.79781496 -34.79101562 235.76342773 C-35.86636063 235.76883072 -36.94170563 235.7742337 -38.04963684 235.77980042 C-41.60238205 235.79230234 -45.15431925 235.77578602 -48.70703125 235.7578125 C-51.17655479 235.75796745 -53.64607859 235.75945581 -56.11560059 235.76222229 C-61.29055536 235.76360695 -66.4652332 235.75103654 -71.64013672 235.72827148 C-78.27485875 235.6998871 -84.90912057 235.7026235 -91.54387665 235.7153616 C-96.64308607 235.72231517 -101.74218905 235.71453307 -106.84138489 235.70210457 C-109.28782239 235.69758697 -111.7342713 235.69725595 -114.18070984 235.70116997 C-117.5992273 235.70407893 -121.01710964 235.68758922 -124.43554688 235.66577148 C-125.44764725 235.67027313 -126.45974762 235.67477478 -127.5025177 235.67941284 C-136.19686326 235.58717572 -136.19686326 235.58717572 -140.11328125 232.26171875 C-145.29044915 224.49596689 -141.57651402 212.36674725 -139.87939453 203.71606445 C-139.4887251 201.70150754 -139.13043134 199.68287081 -138.7734375 197.66210938 C-136.77496776 186.93940876 -133.46099265 176.50258497 -124.234375 169.8984375 C-116.9450744 166.07588813 -108.94682703 163.72078568 -101.11328125 161.26171875 C-101.11328125 160.60171875 -101.11328125 159.94171875 -101.11328125 159.26171875 C-102.19609375 158.27171875 -102.19609375 158.27171875 -103.30078125 157.26171875 C-108.1077595 152.68755711 -111.87848995 145.0342482 -112.2902832 138.41772461 C-112.35687674 134.67813923 -112.39824015 130.93930017 -112.42578125 127.19921875 C-112.46928711 125.27045898 -112.46928711 125.27045898 -112.51367188 123.30273438 C-112.59144542 111.58285949 -109.94348918 103.05594725 -102.11328125 94.26171875 C-95.71914542 87.86758292 -88.58780374 85.0567741 -79.61328125 84.82421875 C-73.74599153 84.99821904 -68.58636228 86.18614852 -63.11328125 88.26171875 C-62.7471875 87.82601562 -62.38109375 87.3903125 -62.00390625 86.94140625 C-54.78646524 79.00222114 -45.21326256 75.29171314 -35.11328125 72.26171875 C-35.8609375 71.74351562 -36.60859375 71.2253125 -37.37890625 70.69140625 C-40.48245905 67.9336779 -42.11787886 65.07319644 -43.86328125 61.38671875 C-44.16621094 60.78730469 -44.46914062 60.18789063 -44.78125 59.5703125 C-50.26520324 48.33430164 -49.85399662 31.93999647 -46.55078125 20.01171875 C-43.15016255 10.71428253 -36.95008759 3.73695416 -28.30078125 -0.98828125 C-19.86282151 -4.5500331 -8.07961638 -4.38607746 0 0 Z " fill="#27B5D0" transform="translate(142.11328125,276.73828125)"/>
<path d="M0 0 C1.22332031 0.46792969 2.44664062 0.93585938 3.70703125 1.41796875 C19.97929267 8.26285526 33.92238078 22.54679477 40.76708984 38.82421875 C48.92388596 59.57724755 49.09322888 81.18546914 40.578125 101.83203125 C36.17576353 110.669445 30.27072807 118.32960728 23 125 C22.24203125 125.80308594 21.4840625 126.60617188 20.703125 127.43359375 C12.55762488 135.16711049 1.75382364 139.38180635 -9 142 C-9.76570313 142.19078125 -10.53140625 142.3815625 -11.3203125 142.578125 C-24.79171778 144.69898764 -40.90041475 143.73210006 -53 137 C-53 136.34 -53 135.68 -53 135 C-53.804375 134.814375 -54.60875 134.62875 -55.4375 134.4375 C-60.35457664 132.45341644 -63.93867427 129.35345382 -68 126 C-68.88171875 125.35611328 -68.88171875 125.35611328 -69.78125 124.69921875 C-82.22743812 115.21780657 -90.51166551 98.16831761 -93 83 C-94.12207198 69.36769521 -94.61974844 55.72710206 -89.21386719 43.00244141 C-85.90864071 34.54634052 -86.27964509 25.52281462 -86.22680664 16.5703125 C-86.2189917 15.36117187 -86.21117676 14.15203125 -86.203125 12.90625 C-86.20989258 11.81634766 -86.21666016 10.72644531 -86.22363281 9.60351562 C-86 7 -86 7 -84 5 C-81.56420898 4.77636719 -81.56420898 4.77636719 -78.49609375 4.796875 C-77.37025879 4.78914063 -76.24442383 4.78140625 -75.08447266 4.7734375 C-73.88097168 4.76570313 -72.6774707 4.75796875 -71.4375 4.75 C-61.18574489 4.55485754 -52.67576603 3.41108893 -43.2578125 -0.625 C-31.11443895 -5.75026078 -12.0708136 -4.79209653 0 0 Z " fill="#F9EB4C" transform="translate(409,74)"/>
<path d="M0 0 C7.69702202 5.36212293 12.38049065 12.02998288 15 21 C15.43271259 25.74311174 15.37023423 30.48899916 15.375 35.25 C15.39949219 36.52230469 15.42398438 37.79460937 15.44921875 39.10546875 C15.47897174 48.71568438 14.35116641 57.29230753 7.375 64.4375 C5.30107442 66.60651823 3.68110301 68.47834548 2 71 C2.53367187 71.17015625 3.06734375 71.3403125 3.6171875 71.515625 C6.08695124 72.31893916 8.54244414 73.16012207 11 74 C12.22396484 74.38285156 12.22396484 74.38285156 13.47265625 74.7734375 C20.74661178 77.28646809 25.5928565 81.61586562 31 87 C29.67944418 89.9899377 28.99904775 91.00069255 26.25 93 C20.58839771 97.6001599 17.49570976 104.62474763 16.453125 111.72363281 C16.30009425 115.02626918 16.24513006 118.29551334 16.32763672 121.60058594 C16.37514416 123.63116166 16.3686761 125.6565023 16.35546875 127.6875 C16.46696066 138.00556992 17.86479081 146.49361717 25.25 154.125 C25.95640625 154.87007812 26.6628125 155.61515625 27.390625 156.3828125 C27.92171875 156.91648437 28.4528125 157.45015625 29 158 C25.67147707 161.32852293 21.4890362 162.61998555 17 163.765625 C7.66412922 166.18766695 1.56127131 170.09256552 -4.36328125 177.765625 C-11.88138239 190.65379839 -12.62231542 209.58289805 -15 224 C-16.32 224 -17.64 224 -19 224 C-19.1858667 222.90123535 -19.3717334 221.8024707 -19.56323242 220.67041016 C-20.26482299 216.54872584 -20.98743173 212.43094703 -21.71606445 208.31396484 C-22.02704413 206.54020504 -22.3325072 204.76546801 -22.63208008 202.98974609 C-25.56533745 184.65206995 -25.56533745 184.65206995 -36.8515625 170.453125 C-40.39225453 168.05832967 -44.00654042 166.49160469 -48 165 C-49.7015625 164.31357422 -49.7015625 164.31357422 -51.4375 163.61328125 C-57.88197153 161.12150995 -62.07769881 159.56445917 -69 161 C-69 161.66 -69 162.32 -69 163 C-76.40396928 165.7405737 -83.68184587 166.45143697 -91.265625 163.90234375 C-101.77790033 158.94995273 -107.5907725 152.68453255 -112 142 C-112.36738281 141.14921875 -112.73476562 140.2984375 -113.11328125 139.421875 C-114.41801055 134.3868844 -114.36860797 129.49323777 -114.375 124.3125 C-114.39949219 123.28705078 -114.42398438 122.26160156 -114.44921875 121.20507812 C-114.49047744 110.31965999 -111.42634483 101.077107 -104 93 C-101.3125 90.6875 -101.3125 90.6875 -99 89 C-98.484375 88.46375 -97.96875 87.9275 -97.4375 87.375 C-93.69868114 83.79873848 -90.04002682 83.70325008 -85 83.6875 C-84.33863037 83.68298828 -83.67726074 83.67847656 -82.99584961 83.67382812 C-78.49190379 83.73013422 -74.80366404 84.55746395 -70.5625 86 C-67.71452898 86.92973327 -67.71452898 86.92973327 -65 87 C-62.53200058 85.38683837 -60.99197682 83.55272175 -59.125 81.27734375 C-53.54540905 75.29774536 -44.86980593 72.51342422 -37 71 C-38.2979671 68.14447237 -39.69873873 66.11891706 -41.875 63.875 C-49.02587278 55.59443841 -49.74791356 46.34571373 -49.6875 35.75 C-49.67879883 33.82099854 -49.67879883 33.82099854 -49.66992188 31.85302734 C-49.37222824 19.89212257 -46.91571244 11.47877763 -38.1875 2.875 C-27.03252175 -5.54988797 -12.27678994 -7.23796833 0 0 Z " fill="#94E973" transform="translate(273,279)"/>
<path d="M0 0 C2.75 2.3125 2.75 2.3125 5 5 C5.73669922 5.77150391 5.73669922 5.77150391 6.48828125 6.55859375 C14.74295416 15.42775844 16.18728521 24.98335151 16.25 36.6875 C16.270625 37.63044922 16.29125 38.57339844 16.3125 39.54492188 C16.35871872 47.95095221 15.03155692 55.88932317 10.0625 62.875 C9.54558594 63.60332031 9.02867188 64.33164062 8.49609375 65.08203125 C6.81476918 67.237463 5.04879928 69.18760064 3 71 C3.33 71.99 3.66 72.98 4 74 C4.886875 74.061875 5.77375 74.12375 6.6875 74.1875 C17.23242563 75.69391795 27.86553827 80.5720478 34.5378418 88.96459961 C39.77199407 96.25081225 41.26772799 104.82585105 42.86523438 113.48413086 C43.25038969 115.56460497 43.65513736 117.64056937 44.0625 119.71679688 C47.27733406 136.43070591 47.27733406 136.43070591 44.9765625 141.05859375 C40.21261453 145.91892217 40.21261453 145.91892217 37.03434277 146.13142776 C35.81902103 146.13588976 35.81902103 146.13588976 34.57914734 146.14044189 C33.1849054 146.14900711 33.1849054 146.14900711 31.76249695 146.15774536 C30.22816765 146.15942215 30.22816765 146.15942215 28.6628418 146.16113281 C27.58793488 146.16609772 26.51302795 146.17106262 25.4055481 146.17617798 C21.83676522 146.19082608 18.2680268 146.19760614 14.69921875 146.203125 C12.2254079 146.20887442 9.75159707 146.21463218 7.27778625 146.22039795 C2.08500968 146.23091558 -3.10775138 146.23675321 -8.30053711 146.24023438 C-14.95884081 146.24493339 -21.616911 146.26974531 -28.27515888 146.29820633 C-33.38720806 146.31681807 -38.49920787 146.32203754 -43.61128807 146.32357025 C-46.06611435 146.32660078 -48.52093968 146.3346427 -50.9757328 146.34775543 C-54.40886667 146.36478439 -57.8414994 146.36294308 -61.2746582 146.35644531 C-62.79987846 146.37026749 -62.79987846 146.37026749 -64.35591125 146.3843689 C-73.08823095 146.33252028 -73.08823095 146.33252028 -77 143 C-82.1771679 135.23424814 -78.46323277 123.1050285 -76.76611328 114.4543457 C-76.37544385 112.43978879 -76.01715009 110.42115206 -75.66015625 108.40039062 C-73.66168651 97.67769001 -70.3477114 87.24086622 -61.12109375 80.63671875 C-53.83179315 76.81416938 -45.83354578 74.45906693 -38 72 C-38 71.34 -38 70.68 -38 70 C-39.0828125 69.01 -39.0828125 69.01 -40.1875 68 C-44.99447825 63.42583836 -48.7652087 55.77252945 -49.17700195 49.15600586 C-49.24359549 45.41642048 -49.2849589 41.67758142 -49.3125 37.9375 C-49.34150391 36.65166016 -49.37050781 35.36582031 -49.40039062 34.04101562 C-49.47816417 22.32114074 -46.83020793 13.7942285 -39 5 C-28.48832932 -5.51167068 -12.89842239 -7.41901739 0 0 Z " fill="#FA3941" transform="translate(79,366)"/>
<path d="M0 0 C2.5 2.25 2.5 2.25 5 5 C5.74443359 5.7734375 5.74443359 5.7734375 6.50390625 6.5625 C17.10483634 18.04019875 16.6343597 31.39499911 16.16601562 46.18457031 C15.58185381 56.09126752 11.79114223 62.09504763 4.92578125 69.0390625 C2.94372761 70.856183 2.94372761 70.856183 2 73 C2.72703125 72.96261719 3.4540625 72.92523438 4.203125 72.88671875 C7.17715782 73.00717539 9.037132 73.62894484 11.75 74.8125 C16.43360125 76.78861404 21.1585634 78.45635355 26 80 C26 80.66 26 81.32 26 82 C26.5878125 82.25910156 27.175625 82.51820313 27.78125 82.78515625 C35.56985571 87.04969212 38.58152673 94.92985074 41 103 C42.08219492 107.51553904 42.93882338 112.05384119 43.75 116.625 C43.97042969 117.78773438 44.19085938 118.95046875 44.41796875 120.1484375 C47.29645973 135.95331964 47.29645973 135.95331964 44.75 141.9375 C42.42446137 144.67831338 40.38080346 145.83743713 36.79104042 146.26006222 C35.98396833 146.26471272 35.17689625 146.26936323 34.34536743 146.27415466 C33.41456863 146.28412979 32.48376984 146.29410492 31.52476501 146.30438232 C30.51064041 146.305047 29.49651581 146.30571167 28.45166016 146.30639648 C27.37806747 146.31472 26.30447479 146.32304352 25.198349 146.33161926 C21.64521674 146.35573773 18.09226797 146.36449346 14.5390625 146.37109375 C12.07050521 146.38005818 9.60194849 146.38917999 7.13339233 146.39845276 C1.95675332 146.41495001 -3.21982095 146.42264431 -8.39648438 146.42553711 C-15.03013352 146.43092363 -21.66317452 146.46861268 -28.29665184 146.51428127 C-33.39588647 146.54401999 -38.49497405 146.55125998 -43.59428787 146.55226326 C-46.03993136 146.55647133 -48.48557506 146.56892895 -50.93113327 146.58978081 C-54.352168 146.61662934 -57.77178488 146.61188813 -61.19287109 146.59936523 C-62.70798531 146.62161667 -62.70798531 146.62161667 -64.25370789 146.64431763 C-68.79298556 146.5969895 -71.99400295 146.50558494 -75.61294556 143.58753967 C-79.00547483 139.91007681 -79.26839838 137.83354957 -79.20947266 132.83984375 C-78.77632317 126.96758869 -77.42385157 121.24625814 -76.1875 115.5 C-75.92646484 114.23285156 -75.66542969 112.96570313 -75.39648438 111.66015625 C-72.63179671 98.539836 -70.15459081 89.21996051 -59.20703125 80.5859375 C-55.27313396 78.13776389 -50.93109759 77.01794206 -46.51171875 75.79296875 C-42.75938074 74.60832705 -39.46192561 72.85918227 -36 71 C-36.53109375 70.46632813 -37.0621875 69.93265625 -37.609375 69.3828125 C-38.31578125 68.63773437 -39.0221875 67.89265625 -39.75 67.125 C-40.44609375 66.40570313 -41.1421875 65.68640625 -41.859375 64.9453125 C-47.81970013 56.74442719 -48.69627221 48.64410937 -48.63134766 38.66015625 C-48.62502565 36.63322235 -48.67207452 34.61215337 -48.72265625 32.5859375 C-48.73265354 22.38870221 -46.65417873 14.33916128 -39.85180664 6.53564453 C-29.97990375 -3.31853078 -12.41068158 -7.48264451 0 0 Z " fill="#FB9598" transform="translate(337,366)"/>
<path d="M0 0 C9.42070233 6.71999509 14.47291514 15.25443224 16.56640625 26.52734375 C16.98978752 31.36933601 17.03165292 36.16915475 17.00390625 41.02734375 C17.02388672 42.26871094 17.04386719 43.51007812 17.06445312 44.7890625 C17.0582189 56.62161385 14.06209564 66.26910207 6.56640625 75.52734375 C3.94140625 77.83984375 3.94140625 77.83984375 1.56640625 79.52734375 C0.54546875 80.61015625 0.54546875 80.61015625 -0.49609375 81.71484375 C-2.43359375 83.52734375 -2.43359375 83.52734375 -6.43359375 84.52734375 C-5.93859375 91.45734375 -5.93859375 91.45734375 -5.43359375 98.52734375 C-4.09683594 98.92566406 -2.76007813 99.32398437 -1.3828125 99.734375 C0.3712453 100.26903433 2.12514333 100.80421796 3.87890625 101.33984375 C5.20051758 101.73139648 5.20051758 101.73139648 6.54882812 102.13085938 C7.39638672 102.39189453 8.24394531 102.65292969 9.1171875 102.921875 C10.28761597 103.27536011 10.28761597 103.27536011 11.48168945 103.63598633 C13.73776273 104.60061023 14.96467112 105.69262897 16.56640625 107.52734375 C13.80455601 117.48023367 10.08937461 127.0617377 6.44140625 136.71484375 C5.76673326 138.50711914 5.09217326 140.29943706 4.41772461 142.09179688 C-0.42661288 154.94649932 -5.37754336 167.75416381 -10.43359375 180.52734375 C-17.03359375 180.52734375 -23.63359375 180.52734375 -30.43359375 180.52734375 C-44.79716483 143.32333997 -44.79716483 143.32333997 -51.58337402 125.30517578 C-52.1078832 123.91331229 -52.63351557 122.52187154 -53.16027832 121.13085938 C-53.88884003 119.20566493 -54.61307068 117.27890119 -55.3359375 115.3515625 C-55.74320068 114.26963623 -56.15046387 113.18770996 -56.57006836 112.07299805 C-57.43359375 109.52734375 -57.43359375 109.52734375 -57.43359375 107.52734375 C-55.27781702 104.83746849 -53.24322886 103.90609261 -49.984375 102.921875 C-49.13681641 102.66083984 -48.28925781 102.39980469 -47.41601562 102.13085938 C-46.53494141 101.86982422 -45.65386719 101.60878906 -44.74609375 101.33984375 C-43.85341797 101.06720703 -42.96074219 100.79457031 -42.04101562 100.51367188 C-39.84110052 99.84310952 -37.63766901 99.18410292 -35.43359375 98.52734375 C-35.43359375 93.90734375 -35.43359375 89.28734375 -35.43359375 84.52734375 C-37.41359375 83.53734375 -39.39359375 82.54734375 -41.43359375 81.52734375 C-49.2085713 74.72423839 -55.32362471 65.74316563 -57.43359375 55.52734375 C-57.71595519 50.88532161 -57.71127349 46.23950915 -57.74609375 41.58984375 C-57.77509766 40.33365234 -57.80410156 39.07746094 -57.83398438 37.78320312 C-57.91587846 25.58098437 -55.84144747 15.04306207 -47.63671875 5.68359375 C-34.49194761 -7.18150141 -15.89936366 -9.62128427 0 0 Z " fill="#C7925B" transform="translate(276.43359375,5.47265625)"/>
<path d="M0 0 C0.33 0 0.66 0 1 0 C1 8.25 1 16.5 1 25 C4.0532251 24.98428955 7.1064502 24.9685791 10.25219727 24.95239258 C20.34635314 24.90265648 30.44051447 24.86953488 40.53476048 24.84456348 C46.65418041 24.82891571 52.77347466 24.80769334 58.89282227 24.77368164 C64.79965893 24.741057 70.70637479 24.7231403 76.6132946 24.71536827 C78.86551756 24.70983038 81.11773401 24.69901625 83.36990547 24.68280983 C86.5274287 24.66099469 89.6844544 24.65803484 92.84204102 24.65942383 C93.77064941 24.648638 94.69925781 24.63785217 95.65600586 24.6267395 C101.77134576 24.65579884 106.8870287 25.32868595 111.70703125 29.46484375 C114.88999005 33.70503975 117.25417407 36.85541664 117.24050903 42.23944092 C117.24325836 43.07794083 117.24600769 43.91644073 117.24884033 44.78034973 C117.2380545 46.14736275 117.2380545 46.14736275 117.22705078 47.54199219 C117.22734283 48.50817978 117.22763489 49.47436737 117.22793579 50.46983337 C117.22654285 53.66227205 117.21098318 56.85447711 117.1953125 60.046875 C117.19158225 62.26076124 117.18873533 64.47464912 117.18673706 66.6885376 C117.1791016 72.51483724 117.15945376 78.34103713 117.1373291 84.16729736 C117.11686886 90.11281993 117.10773496 96.05835862 117.09765625 102.00390625 C117.07620787 113.66931465 117.04207288 125.33464903 117 137 C116.25057632 136.5148996 115.50115265 136.02979919 114.72901917 135.52999878 C113.74280075 134.8960318 112.75658234 134.26206482 111.74047852 133.60888672 C110.76417984 132.97941132 109.78788116 132.34993591 108.78199768 131.7013855 C105.53766885 129.71725228 102.51808283 128.38668775 98.9375 127.125 C97.85339844 126.73570312 96.76929688 126.34640625 95.65234375 125.9453125 C94.33943359 125.47738281 94.33943359 125.47738281 93 125 C92.34 124.67 91.68 124.34 91 124 C92.2979671 121.14447237 93.69873873 119.11891706 95.875 116.875 C103.14981665 108.44218943 103.63273132 99.26229781 103.5 88.5 C103.51546875 87.24574219 103.5309375 85.99148438 103.546875 84.69921875 C103.49908613 73.2896267 101.05105848 65.25074459 93.15625 56.9140625 C85.87821559 50.45348847 78.0441555 49.63451724 68.61328125 49.72265625 C61.5253645 50.26670175 54.79579101 52.94976384 49.671875 57.98828125 C41.52529086 67.79082992 40.36225054 76.15205856 40.3125 88.75 C40.30549072 89.99338135 40.29848145 91.2367627 40.29125977 92.51782227 C40.48745781 102.47204628 42.1384968 110.77644669 49.25 118.125 C49.95640625 118.87007813 50.6628125 119.61515625 51.390625 120.3828125 C51.92171875 120.91648437 52.4528125 121.45015625 53 122 C52.505 123.485 52.505 123.485 52 125 C49.375 125.95703125 49.375 125.95703125 46 126.8125 C38.19403656 129.06109626 32.21088158 132.10179248 27.1875 138.5625 C25.76953125 140.07421875 25.76953125 140.07421875 24 141 C20.9997717 140.66365154 18.42249966 139.89216374 15.5859375 138.8671875 C10.67091958 137.52989097 10.67091958 137.52989097 0 138 C0 92.46 0 46.92 0 0 Z " fill="#A26F40" transform="translate(184,226)"/>
<path d="M0 0 C9.46428491 6.19435596 13.7570461 13.61150411 16.13745117 24.61669922 C16.5386096 26.63049556 16.92489093 28.64614626 17.29956055 30.66503906 C17.68155669 32.71123924 18.08775351 34.75154221 18.49682617 36.79248047 C20.00583077 44.54887214 21.52494975 52.56864814 20.43432617 60.47607422 C18.21869455 63.44968508 16.69513032 64.84567214 13.43432617 66.47607422 C11.96563139 66.57859397 10.49243624 66.61983273 9.02020264 66.62997437 C8.09215317 66.63857483 7.1641037 66.64717529 6.20793152 66.65603638 C5.18661636 66.66029633 4.16530121 66.66455627 3.11303711 66.66894531 C2.03973648 66.6771228 0.96643585 66.68530029 -0.13938904 66.69372559 C-3.70335323 66.71860719 -7.26727753 66.73510275 -10.83129883 66.74951172 C-12.04659019 66.7548354 -13.26188156 66.76015907 -14.51399994 66.76564407 C-20.94641998 66.79238768 -27.37882053 66.81175873 -33.8112793 66.82617188 C-40.46064448 66.84282245 -47.10950222 66.88760089 -53.75870132 66.93854332 C-58.86650166 66.97217464 -63.97418385 66.98374488 -69.08208466 66.98939896 C-71.53332047 66.99612277 -73.98454821 67.01137389 -76.43567657 67.03528976 C-79.86646558 67.06685413 -83.29591098 67.06699044 -86.72680664 67.05957031 C-87.74002487 67.07597565 -88.7532431 67.09238098 -89.79716492 67.10928345 C-94.3440407 67.06901735 -97.55473843 66.98815565 -101.18060303 64.06460571 C-104.36638614 60.60705639 -104.82730996 58.8136611 -104.76196289 54.13818359 C-104.36793805 48.79434422 -103.34093397 43.54292627 -102.33178711 38.28710938 C-101.94474491 36.24752744 -101.58491441 34.20433058 -101.22583008 32.15966797 C-98.67042685 18.3176821 -94.12514922 8.08235453 -82.37817383 -0.03564453 C-78.59621584 -2.03693063 -74.74060289 -3.13923107 -70.62817383 -4.27392578 C-69.84249023 -4.50724609 -69.05680664 -4.74056641 -68.24731445 -4.98095703 C-62.30035846 -6.64311879 -58.162741 -6.84896005 -52.50317383 -3.96142578 C-47.11087004 -1.58596156 -41.30921812 -1.61669927 -35.56567383 -2.52392578 C-32.76156877 -4.09352731 -32.76156877 -4.09352731 -30.06567383 -5.96142578 C-20.8096888 -11.23820229 -8.45586562 -5.02250578 0 0 Z " fill="#F3EDE5" transform="translate(491.565673828125,445.52392578125)"/>
<path d="M0 0 C7.60820327 3.4765962 16.04033833 2.41684915 24.0625 0.9375 C24.0625 0.2775 24.0625 -0.3825 24.0625 -1.0625 C26.63136602 -2.8093289 28.04445089 -3.06322196 31.1875 -2.9375 C36.08437199 -1.83175471 40.46137052 -0.03844518 45.0625 1.9375 C46.23039062 2.38609375 46.23039062 2.38609375 47.421875 2.84375 C55.45532995 6.05713198 61.90945194 11.24667026 66.0625 18.9375 C69.09083419 26.35468008 70.3806733 34.14395345 71.75 42 C71.97494141 43.22783203 72.19988281 44.45566406 72.43164062 45.72070312 C75.19683841 61.32852165 75.19683841 61.32852165 72.8125 66.8125 C70.50133066 69.61891991 68.48207565 70.77416921 64.85074711 71.19197559 C64.0423762 71.19402846 63.2340053 71.19608133 62.40113831 71.19819641 C61.46889435 71.20528122 60.53665039 71.21236603 59.57615662 71.21966553 C58.56046097 71.21718811 57.54476532 71.21471069 56.49829102 71.2121582 C55.42309204 71.21726913 54.34789307 71.22238007 53.2401123 71.22764587 C49.68215383 71.24155808 46.12438871 71.24058389 42.56640625 71.23828125 C40.09545316 71.24216719 37.62450074 71.24650165 35.15354919 71.25126648 C29.97270544 71.25873214 24.79192982 71.25843481 19.61108398 71.25317383 C12.96851998 71.24737788 6.32623469 71.26431184 -0.31628323 71.2875185 C-5.41976048 71.30224242 -10.52317039 71.30312937 -15.62666512 71.30000877 C-18.07590347 71.30052263 -20.52514553 71.30577236 -22.97436333 71.31582069 C-26.3977259 71.32814184 -29.8205428 71.32141899 -33.24389648 71.30981445 C-34.2575679 71.31745819 -35.27123932 71.32510193 -36.31562805 71.33297729 C-44.91862346 71.26844255 -44.91862346 71.26844255 -48.9375 67.9375 C-51.52240617 64.49095843 -51.06750271 61.11876247 -50.9375 56.9375 C-50.59327332 54.53392591 -50.18779081 52.13854814 -49.73046875 49.75390625 C-49.6044075 49.09470688 -49.47834625 48.43550751 -49.34846497 47.7563324 C-49.08180473 46.3716799 -48.81187792 44.9876528 -48.53881836 43.60424805 C-48.12711618 41.51076066 -47.7298935 39.41488372 -47.33398438 37.31835938 C-45.09951645 25.70817664 -42.65525725 15.19102784 -33.109375 7.37890625 C-28.73137962 4.47336615 -23.83713808 2.76572316 -18.9375 0.9375 C-17.92171875 0.53015625 -16.9059375 0.1228125 -15.859375 -0.296875 C-9.12921526 -2.92415661 -6.38680906 -3.42019142 0 0 Z " fill="#2179F7" transform="translate(179.9375,441.0625)"/>
<path d="M0 0 C47.19 0 94.38 0 143 0 C143 45.54 143 91.08 143 138 C138.71 138 134.42 138 130 138 C126.20536032 138.90169656 122.66074734 139.76752394 119 141 C117.13453694 139.42958937 116.10225318 138.52631252 115.6292057 136.09146595 C115.6320334 135.00504826 115.6320334 135.00504826 115.63491821 133.89668274 C115.62960587 133.06270462 115.62429352 132.2287265 115.61882019 131.36947632 C115.6281105 130.45775665 115.63740082 129.54603699 115.64697266 128.60668945 C115.64481247 127.64374466 115.64265228 126.68079987 115.64042664 125.68867493 C115.63733599 123.59502945 115.64095631 121.50136592 115.65044022 119.40773964 C115.6641554 116.09081482 115.65775361 112.77448995 115.64559937 109.45756531 C115.61460959 100.02611415 115.61947745 90.5948005 115.63964844 81.16333008 C115.65058275 75.39551733 115.63733572 69.62815353 115.60975266 63.86040306 C115.60431943 61.66485053 115.60835717 59.46925288 115.62215042 57.27373695 C115.64125707 54.19542413 115.62976212 51.11857194 115.61181641 48.0402832 C115.62515518 47.13868469 115.63849396 46.23708618 115.65223694 45.3081665 C115.57084531 39.00553594 113.95166009 34.92145345 110 30 C106.27013602 26.49618838 102.64849202 25.88490079 97.64666748 25.84178162 C96.78292511 25.8319928 95.91918274 25.82220398 95.02926636 25.81211853 C94.08987213 25.80636307 93.15047791 25.8006076 92.18261719 25.79467773 C91.18716888 25.78477814 90.19172058 25.77487854 89.16610718 25.76467896 C85.8763873 25.73309605 82.58665298 25.70831911 79.296875 25.68359375 C77.01572291 25.66302146 74.73457461 25.64202491 72.45343018 25.62062073 C66.44965687 25.5654285 60.44584932 25.5160066 54.4420166 25.46777344 C48.31548007 25.41753766 42.18899326 25.36186242 36.0625 25.30664062 C24.04170756 25.19909386 12.02087289 25.09814374 0 25 C0 16.75 0 8.5 0 0 Z " fill="#875C30" transform="translate(185,226)"/>
<path d="M0 0 C0.62132812 0.39058594 1.24265625 0.78117187 1.8828125 1.18359375 C2.50414062 1.52261719 3.12546875 1.86164063 3.765625 2.2109375 C10.60905666 6.37328446 14.2395552 13.59430009 16.7578125 20.99609375 C18.10360706 26.56242747 18.16056068 32.11078452 18.1953125 37.80859375 C18.20095215 38.69135986 18.2065918 39.57412598 18.21240234 40.48364258 C18.12288258 48.60642297 17.0506064 55.84265272 13.0078125 62.99609375 C12.26917969 64.33607422 12.26917969 64.33607422 11.515625 65.703125 C7.57417657 71.69073206 2.9073091 74.24169029 -4.0546875 75.87109375 C-4.7353125 75.97421875 -5.4159375 76.07734375 -6.1171875 76.18359375 C-6.1171875 76.84359375 -6.1171875 77.50359375 -6.1171875 78.18359375 C-9.01358868 78.26480126 -11.90769662 78.32418796 -14.8046875 78.37109375 C-15.62130859 78.39623047 -16.43792969 78.42136719 -17.27929688 78.44726562 C-22.14699257 78.50638744 -25.09976628 78.20753716 -29.1171875 75.18359375 C-30.12072266 74.61898437 -30.12072266 74.61898437 -31.14453125 74.04296875 C-39.66180531 69.09633106 -44.5013681 62.71319455 -47.1171875 53.18359375 C-47.64336573 48.7274447 -47.77770477 44.32938897 -47.74853516 39.84375 C-47.74221315 37.8168161 -47.78926202 35.79574712 -47.83984375 33.76953125 C-47.85129917 22.08500053 -44.31553543 12.39570496 -36.1328125 3.875 C-26.47974884 -4.22534218 -11.22103353 -6.16516861 0 0 Z " fill="#A26F40" transform="translate(400.1171875,276.81640625)"/>
<path d="M0 0 C8.1764411 5.46788919 14.56257779 12.45783649 16.88671875 22.26171875 C17.28357586 26.69999999 17.36066399 31.1091306 17.33276367 35.56054688 C17.32426279 37.6260185 17.35306516 39.68870716 17.38476562 41.75390625 C17.44009925 52.19461594 15.5126012 61.11108401 8.92578125 69.4375 C1.72403535 75.88044126 -8.23594404 78.61792079 -17.72265625 78.4765625 C-21.81187253 78.10906757 -25.35434364 76.86527245 -29.11328125 75.26171875 C-29.89058594 74.93300781 -30.66789062 74.60429687 -31.46875 74.265625 C-39.92012141 70.17442511 -44.02688558 62.87113826 -47.11328125 54.26171875 C-50.04283527 40.64548178 -49.98635766 23.68369204 -42.46484375 11.6171875 C-32.7016832 -1.57800111 -15.42639655 -8.37432956 0 0 Z " fill="#FEE2BF" transform="translate(142.11328125,276.73828125)"/>
<path d="M0 0 C2.75 2.3125 2.75 2.3125 5 5 C5.73669922 5.77150391 5.73669922 5.77150391 6.48828125 6.55859375 C14.74295416 15.42775844 16.18728521 24.98335151 16.25 36.6875 C16.270625 37.63044922 16.29125 38.57339844 16.3125 39.54492188 C16.35871872 47.95095221 15.03155692 55.88932317 10.0625 62.875 C9.54558594 63.60332031 9.02867188 64.33164062 8.49609375 65.08203125 C6.81476918 67.237463 5.04879928 69.18760064 3 71 C3.33 71.66 3.66 72.32 4 73 C3.071875 73.12375 2.14375 73.2475 1.1875 73.375 C-2.13925235 73.81533082 -2.13925235 73.81533082 -5 76 C-10.76987594 78.66301967 -16.79009467 78.94983488 -23 78 C-31.88644535 74.67342319 -39.58545269 70.3512081 -44.6875 62.0625 C-45.08324219 61.43472656 -45.47898438 60.80695313 -45.88671875 60.16015625 C-49.64777365 52.86239009 -49.36696766 45.77430904 -49.375 37.75 C-49.39949219 36.47769531 -49.42398438 35.20539063 -49.44921875 33.89453125 C-49.48522733 22.26375913 -46.76799358 13.7243546 -39 5 C-28.48832932 -5.51167068 -12.89842239 -7.41901739 0 0 Z " fill="#A36E41" transform="translate(79,366)"/>
<path d="M0 0 C8.2653186 5.87885337 13.74793081 13.06684521 16 23 C16.44256957 27.6322044 16.46473975 32.22443251 16.4375 36.875 C16.45748047 38.07769531 16.47746094 39.28039062 16.49804688 40.51953125 C16.49268887 50.38898066 14.62810893 60.2226225 8.20703125 68.07421875 C0.3331522 74.94470082 -9.60498417 79.2122476 -20.09765625 78.55078125 C-23.75391669 77.85692833 -26.72325849 76.53657434 -30.0078125 74.828125 C-33.19540342 73.5030872 -35.73474755 74.18368689 -39 75 C-39.969375 75.185625 -40.93875 75.37125 -41.9375 75.5625 C-42.9584375 75.7790625 -42.9584375 75.7790625 -44 76 C-42.37633534 72.75267068 -39.24612161 72.29844864 -36 71 C-36.79664063 70.18208984 -36.79664063 70.18208984 -37.609375 69.34765625 C-38.31578125 68.59355469 -39.0221875 67.83945312 -39.75 67.0625 C-40.79414063 65.96615234 -40.79414063 65.96615234 -41.859375 64.84765625 C-47.86589362 56.85723275 -48.6425881 49.38718907 -48.52148438 39.57080078 C-48.50003153 37.50303924 -48.52136655 35.43875009 -48.546875 33.37109375 C-48.56311495 25.78760697 -47.99529287 19.5694163 -44 13 C-43.51917969 12.20207031 -43.03835938 11.40414063 -42.54296875 10.58203125 C-31.89074019 -3.3241922 -16.42057095 -9.55992144 0 0 Z " fill="#FCCF9F" transform="translate(466,366)"/>
<path d="M0 0 C8.70850259 4.08451891 14.5816966 10.95357648 18.58203125 19.59765625 C22.50729256 31.38993288 21.99725082 47.64434099 17.67578125 59.296875 C14.07722477 66.00588589 8.96693571 71.49156693 2.20703125 75.03515625 C1.54703125 75.03515625 0.88703125 75.03515625 0.20703125 75.03515625 C0.20703125 75.69515625 0.20703125 76.35515625 0.20703125 77.03515625 C-7.19693803 79.77572995 -14.47481462 80.48659322 -22.05859375 77.9375 C-32.57086908 72.98510898 -38.38374125 66.7196888 -42.79296875 56.03515625 C-43.16035156 55.184375 -43.52773437 54.33359375 -43.90625 53.45703125 C-45.2109793 48.42204065 -45.16157672 43.52839402 -45.16796875 38.34765625 C-45.19246094 37.32220703 -45.21695313 36.29675781 -45.2421875 35.24023438 C-45.28344619 24.35481624 -42.21931358 15.11226325 -34.79296875 7.03515625 C-32.10546875 4.72265625 -32.10546875 4.72265625 -29.79296875 3.03515625 C-29.01953125 2.23078125 -29.01953125 2.23078125 -28.23046875 1.41015625 C-21.59041981 -4.94119491 -7.9584844 -2.83760223 0 0 Z " fill="#FCE1BF" transform="translate(203.79296875,364.96484375)"/>
<path d="M0 0 C2.5 2.25 2.5 2.25 5 5 C5.49628906 5.515625 5.99257813 6.03125 6.50390625 6.5625 C17.10483634 18.04019875 16.6343597 31.39499911 16.16601562 46.18457031 C15.60801623 55.64758353 12.05431305 62.13363789 5.515625 68.8671875 C-3.02051865 76.10435277 -12.07546813 77.88360184 -23 77 C-27.77026217 76.04194092 -32.3921903 74.54745033 -37 73 C-37 72.01 -37 71.02 -37 70 C-38.57976739 68.07854135 -40.314216 66.37369564 -42.078125 64.62109375 C-47.94528258 56.61934023 -48.69461188 48.3887884 -48.63134766 38.66015625 C-48.62502565 36.63322235 -48.67207452 34.61215337 -48.72265625 32.5859375 C-48.73265354 22.38870221 -46.65417873 14.33916128 -39.85180664 6.53564453 C-29.97990375 -3.31853078 -12.41068158 -7.48264451 0 0 Z " fill="#FCCE9F" transform="translate(337,366)"/>
<path d="M0 0 C7.69702202 5.36212293 12.38049065 12.02998288 15 21 C15.43271259 25.74311174 15.37023423 30.48899916 15.375 35.25 C15.39949219 36.52230469 15.42398438 37.79460937 15.44921875 39.10546875 C15.48274923 49.93581325 13.55327559 58.19029244 5.984375 66.1796875 C-0.61410843 72.23262703 -7.0153968 75.94615396 -16.0390625 76.02734375 C-24.52939319 75.63961202 -32.14353806 74.67397952 -38.4765625 68.640625 C-47.36649642 58.38969143 -49.76404571 49.17507342 -49.6875 35.75 C-49.68169922 34.46399902 -49.67589844 33.17799805 -49.66992188 31.85302734 C-49.37222824 19.89212257 -46.91571244 11.47877763 -38.1875 2.875 C-27.03252175 -5.54988797 -12.27678994 -7.23796833 0 0 Z " fill="#D4A579" transform="translate(273,279)"/>
<path d="M0 0 C2.875 1.75 2.875 1.75 5 4 C5 5.32 5 6.64 5 8 C6.28632324 7.9685791 6.28632324 7.9685791 7.59863281 7.93652344 C10.78918472 7.86823473 13.97936346 7.81814487 17.17041016 7.78027344 C18.5497668 7.76019358 19.92903869 7.73292334 21.30810547 7.69824219 C23.29356979 7.64957183 25.27966254 7.62913582 27.265625 7.609375 C28.45961914 7.58842773 29.65361328 7.56748047 30.88378906 7.54589844 C34 8 34 8 36.39746094 9.80175781 C38.69041481 12.94705895 38.41403324 15.2046953 38 19 C37.01 20.485 37.01 20.485 36 22 C35.6349209 24.22131423 35.6349209 24.22131423 35.5859375 26.66796875 C35.54726563 27.56064453 35.50859375 28.45332031 35.46875 29.37304688 C35.4378125 30.30181641 35.406875 31.23058594 35.375 32.1875 C35.33632813 33.12787109 35.29765625 34.06824219 35.2578125 35.03710938 C35.16356813 37.3578771 35.07795975 39.67863748 35 42 C36.17949219 42.44279297 36.17949219 42.44279297 37.3828125 42.89453125 C40.46541721 44.19658667 41.53642255 44.99153525 43 48 C43 51.99788416 42.74512066 54.160237 40.0625 57.18359375 C35.70382058 59.76877989 31.97801216 59.62382334 27 59.5625 C25.66582031 59.59827148 25.66582031 59.59827148 24.3046875 59.63476562 C19.75919406 59.62458915 17.63762662 59.4766098 13.90625 56.6875 C11.42048379 53.18297715 11.38727619 51.21247623 12 47 C13.25 44.5625 13.25 44.5625 15 43 C16.32 43 17.64 43 19 43 C19 36.4 19 29.8 19 23 C14.38 23 9.76 23 5 23 C5 37.19 5 51.38 5 66 C8.63 66 12.26 66 16 66 C20 68 20 68 22 71 C21.7535392 75.51844805 21.43314804 78.91427608 18 82 C14.96929325 82.63764432 11.96717878 82.60804201 8.87890625 82.6015625 C7.53444679 82.61441788 7.53444679 82.61441788 6.16282654 82.62753296 C4.26735818 82.63901783 2.37180167 82.64002117 0.47631836 82.63134766 C-2.42421901 82.62502893 -5.32067108 82.67192108 -8.22070312 82.72265625 C-10.06249485 82.72720262 -11.90429755 82.72860904 -13.74609375 82.7265625 C-14.6128624 82.74498199 -15.47963104 82.76340149 -16.37266541 82.78237915 C-18.7319136 82.74613329 -20.73173547 82.65207979 -23 82 C-25.52702176 79.1331148 -26.74713017 77.15196254 -27.5625 73.4375 C-26.65222234 69.49296347 -25.3706502 68.26870687 -22 66 C-18.04 66 -14.08 66 -10 66 C-10 51.81 -10 37.62 -10 23 C-14.62 23 -19.24 23 -24 23 C-24 29.27 -24 35.54 -24 42 C-22.35 42.66 -20.7 43.32 -19 44 C-16.49968346 47.75047482 -16.46396446 49.55856266 -17 54 C-19.06410852 56.96042287 -20.69229963 58.71837991 -24.29907227 59.49511719 C-27.04981475 59.71045764 -29.74148274 59.73113542 -32.5 59.6875 C-33.43714844 59.71521484 -34.37429688 59.74292969 -35.33984375 59.77148438 C-41.94942236 59.74804615 -41.94942236 59.74804615 -44.76513672 57.74316406 C-47.29477049 54.89118726 -47.99302625 53.20223866 -48.125 49.375 C-46.81057991 45.43173972 -45.51127144 44.14101917 -42 42 C-41.34 42 -40.68 42 -40 42 C-40.10986968 38.72847382 -40.2404997 35.45809886 -40.375 32.1875 C-40.4059375 31.25873047 -40.436875 30.32996094 -40.46875 29.37304688 C-40.50742187 28.48037109 -40.54609375 27.58769531 -40.5859375 26.66796875 C-40.6173584 25.84578857 -40.6487793 25.0236084 -40.68115234 24.17651367 C-40.88373622 21.71047063 -40.88373622 21.71047063 -43 19 C-43.66423801 12.91115159 -43.66423801 12.91115159 -41.39746094 9.80175781 C-38.20103602 7.3995566 -36.23549955 7.53972808 -32.265625 7.609375 C-30.32236328 7.62871094 -30.32236328 7.62871094 -28.33984375 7.6484375 C-26.97655176 7.68185634 -25.61327051 7.71571609 -24.25 7.75 C-22.87111936 7.77007293 -21.49221088 7.78832233 -20.11328125 7.8046875 C-16.74148256 7.85184552 -13.37109313 7.91765462 -10 8 C-9.85949219 7.21238281 -9.71898437 6.42476563 -9.57421875 5.61328125 C-8.35462604 0.06288993 -5.39850015 -0.75579002 0 0 Z " fill="#464644" transform="translate(390,103)"/>
<path d="M0 0 C25.8307313 -0.64018716 25.8307313 -0.64018716 35 3 C36.22332031 3.46792969 37.44664062 3.93585938 38.70703125 4.41796875 C54.97929267 11.26285526 68.92238078 25.54679477 75.76708984 41.82421875 C83.92388596 62.57724755 84.09322888 84.18546914 75.578125 104.83203125 C71.17576353 113.669445 65.27072807 121.32960728 58 128 C57.24203125 128.80308594 56.4840625 129.60617188 55.703125 130.43359375 C47.55762488 138.16711049 36.75382364 142.38180635 26 145 C25.25234375 145.19335938 24.5046875 145.38671875 23.734375 145.5859375 C19.59741368 146.21239164 15.49053487 146.18435152 11.3125 146.1875 C10.44560547 146.19974609 9.57871094 146.21199219 8.68554688 146.22460938 C7.44321289 146.22750977 7.44321289 146.22750977 6.17578125 146.23046875 C5.04523315 146.23663208 5.04523315 146.23663208 3.8918457 146.24291992 C2 146 2 146 0 144 C6.36695279 141.23175966 6.36695279 141.23175966 9.3046875 140.15625 C28.09180017 133.19361399 40.49281063 120.26454465 48.79296875 102.34008789 C50.13157621 99.32124918 51.16206677 96.39936323 52.0234375 93.20703125 C53 90 53 90 55.6875 87.5 C58.3739074 85.13032953 58.3739074 85.13032953 58.1875 81.4375 C57.35077694 77.73958114 57.35077694 77.73958114 53.95703125 76.4140625 C51 74 51 74 50.47729492 71.85668945 C50.33604123 69.19456101 50.37887 66.60046728 50.5 63.9375 C50.5103125 63.02677734 50.520625 62.11605469 50.53125 61.17773438 C50.68952922 54.46570617 50.68952922 54.46570617 53 51 C53.19850603 47.29455413 53.17664871 44.52994613 52 41 C51.23429687 40.72414062 50.46859375 40.44828125 49.6796875 40.1640625 C46.10889287 38.61290099 45.13666111 36.6721209 43.125 33.375 C32.61756373 16.97792067 17.78681207 6.96164524 -1 2 C-0.67 1.34 -0.34 0.68 0 0 Z " fill="#FADF28" transform="translate(374,71)"/>
<path d="M0 0 C0.02578125 0.56847656 0.0515625 1.13695313 0.078125 1.72265625 C0.50446542 7.52669973 1.51406377 11.28927536 5 16 C9.02483885 18.7123914 12.18129493 19.68838644 17 19 C20.95575566 17.50391292 23.4427437 15.79873403 25.875 12.3125 C26.8412151 9.4675333 27.27490396 7.24436862 27.5703125 4.29296875 C27.65297363 3.48754639 27.73563477 2.68212402 27.82080078 1.85229492 C27.90950439 0.93540894 27.90950439 0.93540894 28 0 C31.27552201 0.92161787 34.5443819 1.86499215 37.8125 2.8125 C38.74126953 3.07353516 39.67003906 3.33457031 40.62695312 3.60351562 C41.51962891 3.86455078 42.41230469 4.12558594 43.33203125 4.39453125 C44.15421143 4.63018799 44.9763916 4.86584473 45.82348633 5.10864258 C48.15196095 6.06223325 49.36919929 7.11085462 51 9 C48.23814976 18.95288992 44.52296836 28.53439395 40.875 38.1875 C40.20032701 39.97977539 39.52576701 41.77209331 38.85131836 43.56445312 C34.00698087 56.41915557 29.05605039 69.22682006 24 82 C17.4 82 10.8 82 4 82 C-10.36357108 44.79599622 -10.36357108 44.79599622 -17.14978027 26.77783203 C-17.67428945 25.38596854 -18.19992182 23.99452779 -18.72668457 22.60351562 C-19.45524628 20.67832118 -20.17947693 18.75155744 -20.90234375 16.82421875 C-21.30960693 15.74229248 -21.71687012 14.66036621 -22.13647461 13.5456543 C-23 11 -23 11 -23 9 C-20.85165422 6.32420834 -18.82863603 5.38192384 -15.5859375 4.39453125 C-14.74289063 4.13349609 -13.89984375 3.87246094 -13.03125 3.60351562 C-12.1546875 3.34248047 -11.278125 3.08144531 -10.375 2.8125 C-9.49070313 2.53986328 -8.60640625 2.26722656 -7.6953125 1.98632812 C-1.20365367 0 -1.20365367 0 0 0 Z " fill="#EEE7DC" transform="translate(242,104)"/>
<path d="M0 0 C-0.99 0.33 -1.98 0.66 -3 1 C-1.27260322 5.53964768 0.45517605 10.07914912 2.18359375 14.6184082 C3.64838729 18.46542683 5.1117375 22.31299047 6.57421875 26.16088867 C9.7792613 34.58792182 12.9879153 43.01241199 16.2890625 51.40234375 C16.75521973 52.59230957 17.22137695 53.78227539 17.70166016 55.00830078 C18.54580795 57.15660771 19.39668604 59.30228644 20.25537109 61.44482422 C20.62484863 62.38729004 20.99432617 63.32975586 21.375 64.30078125 C21.69210938 65.09653564 22.00921875 65.89229004 22.3359375 66.7121582 C23 69 23 69 23 74 C2.54 74 -17.92 74 -39 74 C-37.63203468 64.42424276 -36.20620437 54.90869163 -34.50537109 45.39404297 C-34.25066652 43.95834622 -34.00070526 42.52180029 -33.75537109 41.08447266 C-31.41848492 27.4005339 -28.67347997 16.61297394 -18 7 C-15.11566274 5.01701813 -12.16827315 3.47375418 -9 2 C-7.88625 1.38125 -6.7725 0.7625 -5.625 0.125 C-3 -1 -3 -1 0 0 Z " fill="#5B5755" transform="translate(222,112)"/>
<path d="M0 0 C9.42070233 6.71999509 14.47291514 15.25443224 16.56640625 26.52734375 C16.98978752 31.36933601 17.03165292 36.16915475 17.00390625 41.02734375 C17.03387695 42.88939453 17.03387695 42.88939453 17.06445312 44.7890625 C17.0582189 56.62161385 14.06209564 66.26910207 6.56640625 75.52734375 C3.94140625 77.83984375 3.94140625 77.83984375 1.56640625 79.52734375 C0.54546875 80.61015625 0.54546875 80.61015625 -0.49609375 81.71484375 C-2.5796747 83.66400012 -3.71215315 83.96721356 -6.43359375 84.52734375 C-6.40740967 85.1821875 -6.38122559 85.83703125 -6.35424805 86.51171875 C-6.24946711 89.516677 -6.18501434 92.52124974 -6.12109375 95.52734375 C-6.07919922 96.55730469 -6.03730469 97.58726563 -5.99414062 98.6484375 C-5.88423598 105.55044907 -6.78282242 110.26319156 -11.43359375 115.52734375 C-15.011706 118.21092794 -17.64023599 118.73934225 -21.99609375 118.46484375 C-26.12956612 117.81182459 -28.54402609 116.67187326 -31.43359375 113.52734375 C-35.3855424 107.74702367 -34.77542017 101.87147873 -34.62109375 95.15234375 C-34.60755859 94.03472656 -34.59402344 92.91710937 -34.58007812 91.765625 C-34.54486539 89.01903164 -34.49561471 86.27344086 -34.43359375 83.52734375 C-33.19867188 83.25277344 -31.96375 82.97820312 -30.69140625 82.6953125 C-23.00052851 80.76328002 -16.76291608 75.09198383 -12.43359375 68.52734375 C-5.50096461 54.19695699 -4.69911897 35.10705002 -9.05859375 19.83984375 C-12.34120041 11.40872771 -18.27981034 3.71240743 -26.43359375 -0.5078125 C-28.07661284 -1.22000827 -29.75268425 -1.85517929 -31.43359375 -2.47265625 C-31.43359375 -3.13265625 -31.43359375 -3.79265625 -31.43359375 -4.47265625 C-20.71400759 -7.71223634 -9.41212692 -5.69562094 0 0 Z " fill="#B97F4E" transform="translate(276.43359375,5.47265625)"/>
<path d="M0 0 C10.34578811 1.31977062 18.38347534 7.14508837 25 15 C26.36499402 17.72998803 26.12723598 19.92252595 26.140625 22.9765625 C26.36718267 40.49432518 27.4015996 54.56409037 36.08203125 70.08203125 C37 72 37 72 37 75 C17.2 75 -2.6 75 -23 75 C-21.87496834 67.12477836 -21.87496834 67.12477836 -20.34521484 63.0847168 C-19.8386586 61.73116341 -19.8386586 61.73116341 -19.3218689 60.3502655 C-18.77195786 58.91424736 -18.77195786 58.91424736 -18.2109375 57.44921875 C-17.63866928 55.92999565 -17.63866928 55.92999565 -17.05484009 54.38008118 C-15.83489907 51.14665235 -14.60502631 47.91710384 -13.375 44.6875 C-12.57097877 42.55948491 -11.76758756 40.43123167 -10.96484375 38.30273438 C-6.38289871 26.17333303 -1.72655473 14.07374496 3 2 C2.01 1.67 1.02 1.34 0 1 C0 0.67 0 0.34 0 0 Z " fill="#5C5856" transform="translate(290,111)"/>
<path d="M0 0 C11.63730952 2.35222214 23.1377533 5.71845688 30 16 C33.99370249 22.69344537 35.45660371 29.5986127 36.86523438 37.18896484 C37.24723052 39.23516502 37.65342734 41.27546799 38.0625 43.31640625 C39.57150459 51.07279793 41.09062358 59.09257392 40 67 C37.78436838 69.97361086 36.26080415 71.36959793 33 73 C31.62451844 73.08308638 30.24514204 73.10736016 28.8671875 73.09765625 C28.06152344 73.09443359 27.25585938 73.09121094 26.42578125 73.08789062 C25.16314453 73.07532227 25.16314453 73.07532227 23.875 73.0625 C23.02550781 73.05798828 22.17601562 73.05347656 21.30078125 73.04882812 C19.20049091 73.03702874 17.1002367 73.01909306 15 73 C14.8858223 72.21818863 14.77164459 71.43637726 14.65400696 70.63087463 C13.56971333 63.22869408 12.46814344 55.8293826 11.34754658 48.43261814 C10.77216447 44.63063458 10.20328797 40.82792203 9.6496582 37.02270508 C9.1141606 33.34384379 8.56108073 29.66800459 7.99620628 25.99354362 C7.78474355 24.59800037 7.57941158 23.20151259 7.38060951 21.80410957 C6.21123338 13.6170743 4.75050127 6.8698274 0 0 Z " fill="#E0D9CE" transform="translate(472,439)"/>
<path d="M0 0 C17.41338343 -0.76918013 17.41338343 -0.76918013 25 4 C25.62132812 4.33902344 26.24265625 4.67804688 26.8828125 5.02734375 C33.72624416 9.18969071 37.3567427 16.41070634 39.875 23.8125 C41.22079456 29.37883372 41.27774818 34.92719077 41.3125 40.625 C41.31813965 41.50776611 41.3237793 42.39053223 41.32958984 43.30004883 C41.24007008 51.42282922 40.1677939 58.65905897 36.125 65.8125 C35.38636719 67.15248047 35.38636719 67.15248047 34.6328125 68.51953125 C30.69136407 74.50713831 26.0244966 77.05809654 19.0625 78.6875 C18.381875 78.790625 17.70125 78.89375 17 79 C17 79.66 17 80.32 17 81 C11.06 81 5.12 81 -1 81 C-1.33 80.01 -1.66 79.02 -2 78 C-1.01 77.649375 -0.02 77.29875 1 76.9375 C9.79333492 73.09264101 14.454255 66.70457571 18 58 C19.72589121 52.82232638 19.22704687 47.35730703 19.25 41.9375 C19.270625 40.74705078 19.29125 39.55660156 19.3125 38.33007812 C19.35631658 28.36728369 18.22511026 19.7577999 11.8203125 11.82421875 C8.11713615 8.11309567 3.67473151 5.33736575 -1 3 C-0.67 2.01 -0.34 1.02 0 0 Z " fill="#885D30" transform="translate(377,274)"/>
<path d="M0 0 C9.16406792 3.83427148 15.46939807 10.81438879 19.80078125 19.58203125 C21.90520233 25.39966381 21.67182913 31.50709779 21.63354492 37.61523438 C21.62504404 39.680706 21.65384641 41.74339466 21.68554688 43.80859375 C21.7408805 54.24930344 19.81338245 63.16577151 13.2265625 71.4921875 C5.18152232 78.68957019 -5.38443033 80.80669524 -15.8125 80.31640625 C-18.875 79.81640625 -18.875 79.81640625 -20.8125 79.31640625 C-19.50844225 76.70829074 -18.22164222 76.4033052 -15.625 75.12890625 C-7.22735311 70.55685406 -2.97941472 63.56670592 -0.27539062 54.51928711 C0.68423544 49.95245908 0.37221343 45.21440846 0.375 40.56640625 C0.39336914 38.97699219 0.39336914 38.97699219 0.41210938 37.35546875 C0.43157626 26.89526244 -1.36165971 18.79465348 -7.8125 10.31640625 C-11.63509635 6.68082537 -15.74135632 3.90113865 -20.8125 2.31640625 C-20.8125 1.65640625 -20.8125 0.99640625 -20.8125 0.31640625 C-15.36359215 -2.40804768 -5.84108222 -1.41970748 0 0 Z " fill="#FCCFA1" transform="translate(137.8125,274.68359375)"/>
<path d="M0 0 C8.56821727 4.98834567 14.64079724 12.17009504 17.65942383 21.58544922 C18.90249406 27.06823327 18.75152669 32.60725096 18.71875 38.203125 C18.7487207 40.00716797 18.7487207 40.00716797 18.77929688 41.84765625 C18.77390554 51.77850372 16.87967402 61.57588454 10.421875 69.46875 C2.56173516 76.29617074 -6.83181644 79.16580527 -17.109375 78.76953125 C-19.71875 78.328125 -19.71875 78.328125 -22.71875 76.328125 C-22.05488281 75.89242187 -21.39101563 75.45671875 -20.70703125 75.0078125 C-11.1170538 68.53982771 -6.3828615 62.32045951 -2.71875 51.328125 C-2.40396526 47.18770948 -2.39445557 43.04156758 -2.34375 38.890625 C-2.30636719 37.76462891 -2.26898438 36.63863281 -2.23046875 35.47851562 C-2.11740686 24.55548037 -5.13250028 15.06184711 -12.73828125 7.01953125 C-16.06784966 4.17593535 -19.77298787 2.18916473 -23.71875 0.328125 C-23.71875 -0.331875 -23.71875 -0.991875 -23.71875 -1.671875 C-16.00927449 -4.24170017 -7.31389061 -3.37198853 0 0 Z " fill="#F6BB84" transform="translate(463.71875,364.671875)"/>
<path d="M0 0 C6.17222879 1.24028238 12.06682122 2.89603589 18 5 C18 5.66 18 6.32 18 7 C18.5878125 7.25910156 19.175625 7.51820313 19.78125 7.78515625 C27.56985571 12.04969212 30.58152673 19.92985074 33 28 C34.08219492 32.51553904 34.93882338 37.05384119 35.75 41.625 C35.97042969 42.78773438 36.19085938 43.95046875 36.41796875 45.1484375 C39.29645973 60.95331964 39.29645973 60.95331964 36.75 66.9375 C34.77571711 69.26433341 33.86297588 69.96767697 31 71 C28.07859127 71.23923406 25.17859892 71.18813729 22.25 71.125 C21.45722656 71.11597656 20.66445313 71.10695313 19.84765625 71.09765625 C17.89830719 71.07417012 15.94911425 71.03830137 14 71 C12.50996224 66.08570635 11.41896843 61.21625649 10.59765625 56.14453125 C10.41423676 55.04078911 10.41423676 55.04078911 10.22711182 53.91474915 C9.96821745 52.35195158 9.71129057 50.78882697 9.45620728 49.22540283 C9.05915291 46.79198679 8.65635435 44.35957283 8.25268555 41.92724609 C7.12342605 35.09131463 6.01315142 28.25574971 5.046875 21.39453125 C4.91788818 20.48018311 4.78890137 19.56583496 4.65600586 18.6237793 C4.43569233 17.0211432 4.22472267 15.41717859 4.02563477 13.81176758 C3.41825086 9.33818127 2.14326391 5.95588656 0 2 C0 1.34 0 0.68 0 0 Z " fill="#FB797C" transform="translate(345,441)"/>
<path d="M0 0 C2.75 2.3125 2.75 2.3125 5 5 C5.73669922 5.77150391 5.73669922 5.77150391 6.48828125 6.55859375 C14.74295416 15.42775844 16.18728521 24.98335151 16.25 36.6875 C16.270625 37.63044922 16.29125 38.57339844 16.3125 39.54492188 C16.35871872 47.95095221 15.03155692 55.88932317 10.0625 62.875 C9.54558594 63.60332031 9.02867188 64.33164062 8.49609375 65.08203125 C6.81476918 67.237463 5.04879928 69.18760064 3 71 C3.495 71.99 3.495 71.99 4 73 C3.071875 73.12375 2.14375 73.2475 1.1875 73.375 C-2.13925235 73.81533082 -2.13925235 73.81533082 -5 76 C-8.71961652 76.98979626 -12.28584938 77.16344517 -16.125 77.1875 C-17.15882812 77.20167969 -18.19265625 77.21585937 -19.2578125 77.23046875 C-22 77 -22 77 -25 75 C-24.34773438 74.5875 -23.69546875 74.175 -23.0234375 73.75 C-17.17425309 69.88505219 -12.51571246 66.13333015 -9 60 C-8.45988281 59.06929688 -7.91976562 58.13859375 -7.36328125 57.1796875 C-5.12919527 51.78453871 -5.55451285 45.89164264 -5.60888672 40.14892578 C-5.62490965 38.13634871 -5.60901992 36.12579558 -5.58984375 34.11328125 C-5.62228804 23.26607434 -7.00869306 15.48993085 -13.95703125 7.015625 C-17.20140552 3.81467447 -20.88381203 1.87785358 -25 0 C-25.66 -0.33 -26.32 -0.66 -27 -1 C-27 -1.66 -27 -2.32 -27 -3 C-17.92650576 -5.69574829 -8.17479824 -4.7020456 0 0 Z " fill="#865D31" transform="translate(79,366)"/>
<path d="M0 0 C10.25649754 0.89186935 19.46637674 5.13145556 26.625 12.5625 C33.51584771 20.92328812 34.98410966 31.78651694 36.75 42.1875 C36.97042969 43.40630859 37.19085938 44.62511719 37.41796875 45.88085938 C40.12969488 61.40170178 40.12969488 61.40170178 37.75 66.875 C35.778267 69.26924721 34.90634258 69.95669754 32 71 C29.07855226 71.23886519 26.1786135 71.1881376 23.25 71.125 C22.45722656 71.11597656 21.66445312 71.10695313 20.84765625 71.09765625 C18.89830719 71.07417012 16.94911425 71.03830137 15 71 C12.81623392 62.74366848 11.36603534 54.43613055 10.0625 46.00390625 C9.89468018 44.92039886 9.72686035 43.83689148 9.55395508 42.72055054 C8.85500964 38.18175497 8.16232884 33.64207816 7.47949219 29.10083008 C6.97431164 25.75460357 6.45671839 22.4104791 5.9375 19.06640625 C5.71235718 17.53349693 5.71235718 17.53349693 5.48266602 15.96961975 C4.67024518 10.78643473 3.71437456 6.58234607 1 2 C0.67 1.34 0.34 0.68 0 0 Z " fill="#1F66ED" transform="translate(215,441)"/>
<path d="M0 0 C9.39643641 0.64066612 18.53084669 4.51640293 25.3203125 11.06640625 C31.18497256 17.81758469 33.27449231 25.38135593 35 34 C35.16918945 34.84449707 35.33837891 35.68899414 35.51269531 36.55908203 C36.0850694 39.45353069 36.6398294 42.35077928 37.1875 45.25 C37.36676025 46.18481201 37.54602051 47.11962402 37.73071289 48.08276367 C40.19183219 61.60268869 40.19183219 61.60268869 37.9765625 66.05859375 C33.20445734 70.92724439 33.20445734 70.92724439 30.12060547 71.11352539 C29.37697754 71.10828857 28.63334961 71.10305176 27.8671875 71.09765625 C27.06152344 71.09443359 26.25585938 71.09121094 25.42578125 71.08789062 C24.16314453 71.07532227 24.16314453 71.07532227 22.875 71.0625 C22.02550781 71.05798828 21.17601563 71.05347656 20.30078125 71.04882812 C18.20049091 71.03702874 16.1002367 71.01909306 14 71 C13.80889648 69.74678955 13.61779297 68.4935791 13.42089844 67.20239258 C12.69414506 62.44349252 11.96225643 57.68539284 11.22900391 52.92749023 C10.91548131 50.88863458 10.60325575 48.84957896 10.29248047 46.81030273 C8.63805366 35.96015413 6.91845213 25.12291284 4.953125 14.32421875 C4.80204285 13.45658401 4.65096069 12.58894928 4.49530029 11.69502258 C3.65640603 7.21862457 2.71258241 3.77425755 0 0 Z " fill="#FA151A" transform="translate(86,441)"/>
<path d="M0 0 C11.63261367 -0.41877409 21.80608423 -0.43572103 31.1875 7.28125 C39.8535201 15.49902768 43.11246599 24.52273165 43.47338867 36.32519531 C43.59738182 50.53549228 42.5325247 61.28073067 32.31640625 71.9765625 C26.56563707 77 26.56563707 77 23 77 C23 77.66 23 78.32 23 79 C19.44709436 80.18430188 16.19749544 80.18397858 12.5 80.1875 C11.82324219 80.19974609 11.14648438 80.21199219 10.44921875 80.22460938 C6.73642956 80.23559396 5.17016924 80.11344616 2 78 C2.65226563 77.5875 3.30453125 77.175 3.9765625 76.75 C9.88997837 72.84261016 14.44826065 69.1822463 18 63 C18.4125 62.29230469 18.825 61.58460938 19.25 60.85546875 C22.32089234 54.25518279 22.38401459 47.58918188 22.4375 40.4375 C22.44765137 39.46804443 22.45780273 38.49858887 22.46826172 37.49975586 C22.34256633 27.0626126 19.85166091 18.03457098 13 10 C9.1107204 6.43864005 5.07849667 3.58703021 0 2 C0 1.34 0 0.68 0 0 Z " fill="#FBCFA0" transform="translate(181,363)"/>
<path d="M0 0 C0.69480469 -0.01611328 1.38960938 -0.03222656 2.10546875 -0.04882812 C8.19175656 -0.05455909 12.13446351 1.52101716 16.625 5.5625 C17.8625 6.92375 17.8625 6.92375 19.125 8.3125 C19.62128906 8.828125 20.11757813 9.34375 20.62890625 9.875 C31.22983634 21.35269875 30.7593597 34.70749911 30.29101562 49.49707031 C29.73301623 58.96008353 26.17931305 65.44613789 19.640625 72.1796875 C13.14091691 77.69030957 6.0274621 80.45270971 -2.4375 80.5 C-3.59378906 80.51417969 -4.75007813 80.52835937 -5.94140625 80.54296875 C-8.875 80.3125 -8.875 80.3125 -10.875 78.3125 C-10.29492188 77.96058594 -9.71484375 77.60867188 -9.1171875 77.24609375 C0.66609555 71.06292971 5.41664757 64.62168573 8.65771484 53.48144531 C11.34858711 40.99152409 10.36958173 26.00308932 3.76953125 15.06640625 C-0.2310057 9.22111767 -5.36335895 5.17762206 -11.875 2.3125 C-8.11758275 -0.13079463 -4.33079191 -0.01986602 0 0 Z " fill="#F6BB83" transform="translate(322.875,362.6875)"/>
<path d="M0 0 C7.69702202 5.36212293 12.38049065 12.02998288 15 21 C15.43271259 25.74311174 15.37023423 30.48899916 15.375 35.25 C15.39949219 36.52230469 15.42398438 37.79460937 15.44921875 39.10546875 C15.48274923 49.93581325 13.55327559 58.19029244 5.984375 66.1796875 C-0.68864876 72.30100457 -7.21830321 76.19316729 -16.390625 75.88671875 C-19.60391853 75.65372019 -22.79881439 75.36110935 -26 75 C-26 74.34 -26 73.68 -26 73 C-24.845 72.525625 -23.69 72.05125 -22.5 71.5625 C-14.65144185 67.59647328 -9.86216476 60.98631359 -6.78955078 52.90332031 C-5.30997689 47.46266084 -5.46630667 42.03843433 -5.5625 36.4375 C-5.55541016 35.27025391 -5.54832031 34.10300781 -5.54101562 32.90039062 C-5.61969217 22.15801556 -7.81321375 13.24002216 -15 5 C-19.02012842 1.73364566 -23.35370731 -0.7399255 -28 -3 C-18.77005534 -5.79626402 -8.29009583 -4.88755215 0 0 Z " fill="#C8935C" transform="translate(273,279)"/>
<path d="M0 0 C10.34578811 1.31977062 18.38347534 7.14508837 25 15 C26.36499402 17.72998803 26.12723598 19.92252595 26.140625 22.9765625 C26.36718267 40.49432518 27.4015996 54.56409037 36.08203125 70.08203125 C37 72 37 72 37 75 C29.41 75 21.82 75 14 75 C13.74831055 73.38625488 13.49662109 71.77250977 13.23730469 70.10986328 C12.29493018 64.08825474 11.33700568 58.06920382 10.37451172 52.05078125 C9.9611246 49.45216322 9.55188326 46.85288199 9.14697266 44.25292969 C8.56216812 40.50270894 7.96219316 36.75517465 7.359375 33.0078125 C7.18315613 31.85636749 7.00693726 30.70492249 6.82537842 29.51858521 C5.80865581 23.29911395 4.39921157 17.8140685 1.77374268 12.07199097 C0.66972629 9.11556624 1.03947133 6.95547282 2 4 C2.33 3.34 2.66 2.68 3 2 C2.01 1.67 1.02 1.34 0 1 C0 0.67 0 0.34 0 0 Z " fill="#464644" transform="translate(290,111)"/>
<path d="M0 0 C0.495 0.99 0.495 0.99 1 2 C20.8 2 40.6 2 61 2 C61.33 1.34 61.66 0.68 62 0 C62.67482422 1.03447266 62.67482422 1.03447266 63.36328125 2.08984375 C70.36852009 12.3239502 78.87675383 19.53450373 90 25 C90.38160272 29.77003402 90.4609004 33.09465992 88.25 37.4375 C85.27848244 40.82172834 83.47793794 41.88027145 78.96217728 42.24609566 C77.7638464 42.24425207 76.56551552 42.24240849 75.33087158 42.24050903 C74.66183485 42.24221788 73.99279811 42.24392673 73.30348754 42.24568737 C71.06321843 42.24897982 68.8232493 42.23798281 66.58300781 42.22705078 C64.97652697 42.22648661 63.37004561 42.22680334 61.76356506 42.22793579 C57.40232566 42.22851009 53.04119605 42.21674331 48.67998219 42.20278788 C44.12225207 42.19029337 39.5645195 42.18911103 35.0067749 42.18673706 C26.37601258 42.18051853 17.74530087 42.16410266 9.11456084 42.14403808 C-0.71121453 42.12169069 -10.53699231 42.11068857 -20.36278677 42.10064721 C-40.57521944 42.07973676 -60.78760653 42.04455353 -81 42 C-81 41.67 -81 41.34 -81 41 C-80.29339391 40.99945523 -79.58678782 40.99891047 -78.85876942 40.99834919 C-61.66575543 40.98338214 -44.47302931 40.94093859 -27.28016376 40.86790943 C-18.96579873 40.83325564 -10.65159956 40.80790341 -2.3371582 40.80444336 C4.90970092 40.80140399 12.15626468 40.78091742 19.40300971 40.73947543 C23.24023063 40.71814091 27.0770316 40.70554689 30.91431236 40.71384621 C34.52689805 40.72138387 38.13863268 40.70557695 41.75106239 40.67193985 C43.70742215 40.65977806 45.66388665 40.67230022 47.62023926 40.68556213 C54.51203678 40.83741606 54.51203678 40.83741606 60.28778076 37.63847351 C62.32044183 34.50620969 62.63151972 32.71693402 62.62890625 29 C62.63083984 27.865625 62.63277344 26.73125 62.63476562 25.5625 C62.61091797 24.386875 62.58707031 23.21125 62.5625 22 C62.57893555 20.2365625 62.57893555 20.2365625 62.59570312 18.4375 C62.56558597 10.40142608 62.56558597 10.40142608 58 4 C55.27487622 3.244187 55.27487622 3.244187 52.22167969 3.34057617 C51.0607782 3.32093307 49.89987671 3.30128998 48.70379639 3.28105164 C47.45576233 3.28498428 46.20772827 3.28891693 44.921875 3.29296875 C43.64016418 3.27784744 42.35845337 3.26272614 41.03790283 3.24714661 C37.63807366 3.20731426 34.2387801 3.19710753 30.83874512 3.19311523 C27.36628998 3.18378013 23.8941491 3.14636449 20.421875 3.11132812 C13.61462799 3.04677126 6.80753446 3.01351573 0 3 C0 2.01 0 1.02 0 0 Z " fill="#A06F41" transform="translate(266,184)"/>
<path d="M0 0 C10.74013011 1.96902385 22.49838541 5.58963875 30 14 C30.73828125 16.71875 30.73828125 16.71875 31 19 C30.32904297 19.51046875 30.32904297 19.51046875 29.64453125 20.03125 C23.11155855 25.26877183 19.34176608 30.9488022 17 39 C16.58062357 43.34181685 16.54412392 47.679035 16.51953125 52.03808594 C16.50023408 54.09998837 16.43817115 56.15779128 16.375 58.21875 C16.17307552 70.88946341 20.3247385 79.91163081 29 89 C27.58774074 89.67595315 26.16997095 90.34040059 24.75 91 C23.96109375 91.37125 23.1721875 91.7425 22.359375 92.125 C20 93 20 93 16 93 C15.29511375 89.06055441 14.80749527 85.19388389 14.55102539 81.20092773 C14.4774733 80.0821373 14.4039212 78.96334686 14.32814026 77.81065369 C14.25208054 76.61372391 14.17602081 75.41679413 14.09765625 74.18359375 C13.92787848 71.61913108 13.75795184 69.05467826 13.58789062 66.49023438 C13.32411596 62.47080019 13.06316016 58.45119065 12.80493164 54.43139648 C12.55329543 50.53595281 12.29460983 46.64102351 12.03515625 42.74609375 C11.96112076 41.56333359 11.88708527 40.38057343 11.81080627 39.16197205 C10.80590991 24.21571358 9.24625201 12.07149568 0 0 Z " fill="#FADF2A" transform="translate(402,349)"/>
<path d="M0 0 C11.09975722 0.64037061 20.25021129 5.11111252 28 13 C28.66 13.66 29.32 14.32 30 15 C29.78161441 17.44591859 29.41878216 18.62159629 27.58203125 20.28125 C26.99808594 20.6834375 26.41414063 21.085625 25.8125 21.5 C20.02273108 26.15569047 16.49219205 33.78418558 15 41 C13.89663588 55.02110425 13.23703486 69.12438956 22.11328125 80.7734375 C23.99929636 82.95089722 25.92326585 85.00571683 28 87 C26.53698952 89.92602095 24.58977236 90.09705209 21.5625 91.1875 C20.07943359 91.73470703 20.07943359 91.73470703 18.56640625 92.29296875 C16 93 16 93 14 92 C13.65905762 90.17428589 13.65905762 90.17428589 13.52929688 87.75341797 C13.44911316 86.39336136 13.44911316 86.39336136 13.36730957 85.00582886 C13.31828491 84.01132721 13.26926025 83.01682556 13.21875 81.9921875 C13.13022766 80.44472336 13.13022766 80.44472336 13.03991699 78.86599731 C12.85086502 75.53609891 12.67476662 72.20567618 12.5 68.875 C11.80423653 56.07908565 11.1003261 43.28367654 10.09375 30.5078125 C9.99713074 29.13808792 9.99713074 29.13808792 9.89855957 27.74069214 C9.08018392 17.94744087 6.52614526 10.1103139 1 2 C0.67 1.34 0.34 0.68 0 0 Z " fill="#229BB7" transform="translate(145,350)"/>
<path d="M0 0 C11.83089757 1.63245323 21.9409391 7.26935069 30 16 C28.88744798 19.00389046 27.89302122 20.07780275 25.25 22 C19.58839771 26.6001599 16.49570976 33.62474763 15.453125 40.72363281 C15.30009425 44.02626918 15.24513006 47.29551334 15.32763672 50.60058594 C15.37514416 52.63116166 15.3686761 54.6565023 15.35546875 56.6875 C15.46696066 67.00556992 16.86479081 75.49361717 24.25 83.125 C24.95640625 83.87007813 25.6628125 84.61515625 26.390625 85.3828125 C26.92171875 85.91648437 27.4528125 86.45015625 28 87 C25.31342365 89.68657635 22.53335886 90.65976043 19 92 C17.68 92 16.36 92 15 92 C13.78856254 81.37575789 12.78432968 70.75059908 12 60.0859375 C11.91766113 58.96987122 11.83532227 57.85380493 11.75048828 56.70391846 C11.41221001 52.08696407 11.07768842 47.46976945 10.75 42.85205078 C10.5058429 39.42955961 10.25345602 36.00775086 10 32.5859375 C9.92910156 31.55455658 9.85820312 30.52317566 9.78515625 29.46054077 C9.23040421 22.06848511 8.6084779 14.33798868 5.0625 7.6875 C4.54623047 6.71876953 4.54623047 6.71876953 4.01953125 5.73046875 C2.82092855 3.6960588 1.51188257 1.81425908 0 0 Z " fill="#6DE341" transform="translate(274,350)"/>
<path d="M0 0 C0.33 0 0.66 0 1 0 C1.0093457 0.76554199 1.01869141 1.53108398 1.02832031 2.31982422 C1.08249977 5.83883322 1.1660543 9.35658016 1.25 12.875 C1.26417969 14.07898438 1.27835937 15.28296875 1.29296875 16.5234375 C1.56391492 26.4942566 3.11188625 34.74894913 10.25 42.125 C10.95640625 42.87007813 11.6628125 43.61515625 12.390625 44.3828125 C12.92171875 44.91648437 13.4528125 45.45015625 14 46 C11.31342365 48.68657635 8.53335886 49.65976043 5 51 C3.68 51 2.36 51 1 51 C-1.65591049 33.96705337 -0.8034344 17.14363877 0 0 Z " fill="#78E048" transform="translate(288,391)"/>
<path d="M0 0 C2.60050234 5.02763786 3.13055811 9.08055893 3.0625 14.6875 C3.05798828 15.38939453 3.05347656 16.09128906 3.04882812 16.81445312 C3.03706927 18.54300538 3.01913454 20.27151365 3 22 C1.68 21.67 0.36 21.34 -1 21 C-1.02888146 17.68751813 -1.04675799 14.37506833 -1.0625 11.0625 C-1.07087891 10.11697266 -1.07925781 9.17144531 -1.08789062 8.19726562 C-1.09111328 7.29814453 -1.09433594 6.39902344 -1.09765625 5.47265625 C-1.10289307 4.64000244 -1.10812988 3.80734863 -1.11352539 2.94946289 C-1 1 -1 1 0 0 Z " fill="#F9EA4B" transform="translate(426,124)"/>
</svg>
