<?xml version="1.0" encoding="UTF-8"?>
<svg version="1.1" xmlns="http://www.w3.org/2000/svg" width="411" height="512">
<path d="M0 0 C1.24716797 0.00451172 2.49433594 0.00902344 3.77929688 0.01367188 C6.83208221 0.02536837 9.88476498 0.04175914 12.9375 0.0625 C16.0843515 12.35861472 18.03513154 24.86678502 20.125 37.375 C20.49638662 39.58013848 20.86812853 41.78521715 21.24023438 43.99023438 C22.14342061 49.34697356 23.04221649 54.70443466 23.9375 60.0625 C24.09831055 59.14774902 24.25912109 58.23299805 24.42480469 57.29052734 C29.84046277 26.50007757 29.84046277 26.50007757 32.25 13.1875 C32.48831543 11.86371338 32.48831543 11.86371338 32.73144531 10.51318359 C32.87807617 9.70703613 33.02470703 8.90088867 33.17578125 8.0703125 C33.3620105 7.04381592 33.3620105 7.04381592 33.55200195 5.99658203 C33.95007794 3.99939523 34.42773856 2.033871 34.9375 0.0625 C39.41665271 0.0332186 43.89578042 0.01560704 48.375 0 C50.26508789 -0.01256836 50.26508789 -0.01256836 52.19335938 -0.02539062 C58.85794365 -0.04279163 65.34266939 0.05387885 71.9375 1.0625 C72.2675 1.3925 72.5975 1.7225 72.9375 2.0625 C74.95061449 2.45819108 76.97347208 2.80502191 79 3.125 C80.10472656 3.30160156 81.20945312 3.47820313 82.34765625 3.66015625 C83.20230469 3.79292969 84.05695313 3.92570313 84.9375 4.0625 C83.47664309 26.85955648 83.47664309 26.85955648 80.96264648 35.35791016 C79.98816121 38.8794247 79.39853299 42.22340611 78.9375 45.84375 C78.7725 47.09800781 78.6075 48.35226563 78.4375 49.64453125 C78.2725 50.93746094 78.1075 52.23039062 77.9375 53.5625 C77.60907123 56.13604732 77.27588531 58.70899289 76.9375 61.28125 C76.793125 62.41498047 76.64875 63.54871094 76.5 64.71679688 C75.90293244 68.26810494 74.93745591 71.60550251 73.9375 75.0625 C73.62219944 76.87583418 73.34736465 78.69685688 73.12109375 80.5234375 C72.99669922 81.48894531 72.87230469 82.45445313 72.74414062 83.44921875 C72.62232422 84.43535156 72.50050781 85.42148438 72.375 86.4375 C72.1275195 88.42495877 71.87642014 90.41197145 71.62109375 92.3984375 C71.51337646 93.27032715 71.40565918 94.1422168 71.29467773 95.04052734 C70.9375 97.0625 70.9375 97.0625 69.9375 98.0625 C69.9375 98.8875 69.9375 99.7125 69.9375 100.5625 C69.9375 101.3875 69.9375 102.2125 69.9375 103.0625 C69.6075 103.3925 69.2775 103.7225 68.9375 104.0625 C68.7725 105.2175 68.6075 106.3725 68.4375 107.5625 C67.9375 111.0625 67.9375 111.0625 66.9375 112.0625 C66.66416511 113.60984079 66.44656686 115.16712113 66.25390625 116.7265625 C66.06924805 118.16322266 66.06924805 118.16322266 65.88085938 119.62890625 C65.62988664 121.64441036 65.37986357 123.66003299 65.13085938 125.67578125 C65.00646484 126.64128906 64.88207031 127.60679687 64.75390625 128.6015625 C64.64506104 129.48021973 64.53621582 130.35887695 64.42407227 131.26416016 C63.9375 134.0625 63.9375 134.0625 62.95336914 137.47827148 C61.96713583 140.95793772 61.36204346 144.29163564 60.8671875 147.87109375 C60.69316406 149.11181641 60.51914063 150.35253906 60.33984375 151.63085938 C60.16582031 152.90767578 59.99179688 154.18449219 59.8125 155.5 C59.63074219 156.80388672 59.44898438 158.10777344 59.26171875 159.45117188 C58.81585405 162.65435774 58.37459277 165.8581074 57.9375 169.0625 C57.2775 169.0625 56.6175 169.0625 55.9375 169.0625 C55.86402344 170.42568359 55.86402344 170.42568359 55.7890625 171.81640625 C55.24406799 180.97795193 54.26443422 189.98008616 52.9375 199.0625 C53.90429688 199.08828125 54.87109375 199.1140625 55.8671875 199.140625 C73.86524826 199.92469893 73.86524826 199.92469893 79.87890625 206.03515625 C83.9375 211.2237529 83.9375 211.2237529 83.9375 214.0625 C84.5975 214.0625 85.2575 214.0625 85.9375 214.0625 C88.14721003 220.26534744 88.17315619 225.95851698 88.0625 232.5 C88.05347656 233.51771484 88.04445313 234.53542969 88.03515625 235.58398438 C88.01174698 238.07707156 87.978957 240.56965859 87.9375 243.0625 C88.56219114 243.05973462 89.18688229 243.05696924 89.83050346 243.05412006 C105.06398266 242.98772985 120.29741716 242.9381562 135.53100395 242.90706348 C142.89800096 242.89162579 150.26490111 242.8705959 157.63183594 242.83618164 C164.05641184 242.80618399 170.48091757 242.78690251 176.90556157 242.78023452 C180.30416313 242.77633971 183.70256399 242.76725194 187.10110092 242.74530983 C190.90459724 242.72345315 194.7076812 242.72053661 198.51123047 242.72192383 C199.62541855 242.711138 200.73960663 242.70035217 201.88755798 242.6892395 C208.2994067 242.71445427 215.20457425 242.8525073 220.9375 246.0625 C221.54520988 248.09241962 221.54520988 248.09241962 221.9375 250.0625 C224.42784386 251.35910434 224.42784386 251.35910434 226.9375 252.0625 C226.9375 253.7125 226.9375 255.3625 226.9375 257.0625 C227.5975 257.0625 228.2575 257.0625 228.9375 257.0625 C229.84152713 259.77458138 230.06203012 261.31947229 230.06054783 264.10172558 C230.06253888 264.92629668 230.06452993 265.75086779 230.06658131 266.6004259 C230.06366847 267.50606022 230.06075563 268.41169455 230.05775452 269.34477234 C230.05903615 270.78806946 230.05903615 270.78806946 230.06034368 272.26052409 C230.06199655 275.49881534 230.05648023 278.73705529 230.05102539 281.9753418 C230.05074345 284.29102579 230.05090138 286.60670986 230.0514679 288.9223938 C230.05175561 295.22160982 230.0458631 301.52080692 230.03889394 307.82001853 C230.03265605 314.39838805 230.03205625 320.97675798 230.03086853 327.55513 C230.028277 338.60064015 230.02185796 349.64614364 230.01293945 360.69165039 C230.00376234 372.0692542 229.99668297 383.44685613 229.99243164 394.82446289 C229.99203756 395.87619658 229.99203756 395.87619658 229.99163551 396.94917741 C229.99033048 400.46662224 229.98906677 403.98406708 229.98782361 407.50151193 C229.9774546 436.68851248 229.95976516 465.87550615 229.9375 495.0625 C228.9475 495.3925 227.9575 495.7225 226.9375 496.0625 C227.040625 496.784375 227.14375 497.50625 227.25 498.25 C226.9375 501.0625 226.9375 501.0625 225 503.625 C216.49991897 510.39037062 208.11085723 510.63656873 197.62789917 510.56370544 C196.07419041 510.56760211 194.52048523 510.57324548 192.96678841 510.58047634 C188.71351726 510.59519619 184.46061764 510.58507056 180.2073586 510.57073963 C175.61427466 510.55961412 171.02124216 510.57157758 166.42816162 510.58058167 C157.43728659 510.59450471 148.44655213 510.58696516 139.45568381 510.57190608 C128.98484586 510.55503631 118.51404284 510.55825741 108.0431955 510.56200016 C89.36161365 510.56787688 70.68009924 510.55371376 51.99853516 510.52905273 C33.87090529 510.50512565 15.74336548 510.4980514 -2.38427734 510.50854492 C-22.12737308 510.51995311 -41.87042718 510.52188594 -61.61352241 510.50744683 C-63.71847208 510.50592099 -65.82342175 510.50440063 -67.92837143 510.50288582 C-68.96403702 510.502128 -69.9997026 510.50137019 -71.06675199 510.50058941 C-78.36577761 510.49584636 -85.66478463 510.49769812 -92.96380997 510.50195122 C-101.85705841 510.50687678 -110.75022169 510.50089822 -119.64345063 510.48105692 C-124.18101836 510.47118283 -128.71845638 510.46608113 -133.25603104 510.47394943 C-137.4097196 510.48100475 -141.56314639 510.47420515 -145.71680044 510.4563458 C-147.21933283 510.4523004 -148.72188907 510.45330275 -150.22441258 510.45986467 C-163.89913003 510.51447453 -163.89913003 510.51447453 -170.0625 507.0625 C-171.0525 506.7325 -172.0425 506.4025 -173.0625 506.0625 C-173.72916667 504.72916667 -174.39583333 503.39583333 -175.0625 502.0625 C-176.0525 501.7325 -177.0425 501.4025 -178.0625 501.0625 C-178.18625 500.32 -178.31 499.5775 -178.4375 498.8125 C-178.9214308 496.12401655 -178.9214308 496.12401655 -180.08565778 494.14564067 C-181.14634414 491.88370025 -181.31388872 490.46238534 -181.31697559 487.98224926 C-181.32280779 487.17393758 -181.32863998 486.3656259 -181.33464891 485.53281993 C-181.33086958 484.65043707 -181.32709026 483.76805422 -181.32319641 482.8589325 C-181.32893473 481.44626349 -181.32893473 481.44626349 -181.33478898 480.00505573 C-181.3451282 476.84144888 -181.34112503 473.67802321 -181.3371582 470.5144043 C-181.34150421 468.24933707 -181.34668698 465.98427132 -181.35264587 463.71920776 C-181.36606029 457.56006363 -181.36661173 451.40098077 -181.36408257 445.24182487 C-181.36301434 440.10262011 -181.36789255 434.96342782 -181.372688 429.82422572 C-181.38442733 417.00627079 -181.38355332 404.18835994 -181.37713119 391.3704044 C-181.37196417 380.24322739 -181.38321115 369.11613798 -181.40222941 357.98897829 C-181.42161188 346.56098978 -181.4295716 335.13305885 -181.42610615 323.70505077 C-181.4242919 317.29020527 -181.42694357 310.87543997 -181.44082069 304.46060753 C-181.45338411 298.42695021 -181.45146886 292.39346827 -181.43840981 286.35981369 C-181.4360411 284.14548369 -181.43878919 281.93114141 -181.44703293 279.71682549 C-181.45747716 276.6933524 -181.44941799 273.67047023 -181.4367218 270.64701843 C-181.44409609 269.77132775 -181.45147037 268.89563706 -181.45906812 267.99341029 C-181.41120089 262.57248715 -180.43872517 258.93201519 -178.0625 254.0625 C-178.0625 253.4025 -178.0625 252.7425 -178.0625 252.0625 C-177.485 251.815 -176.9075 251.5675 -176.3125 251.3125 C-173.96966389 250.16952916 -173.96966389 250.16952916 -172.3125 248.125 C-165.92918246 242.27362559 -158.01603862 242.64350764 -149.86328125 242.72192383 C-148.66242386 242.72148575 -147.46156647 242.72104767 -146.22431946 242.72059631 C-142.95407967 242.72231993 -139.68423228 242.73729539 -136.41407013 242.75831819 C-132.98814115 242.77715773 -129.56220326 242.77884113 -126.13623047 242.78239441 C-119.65884303 242.79169362 -113.18160871 242.81627835 -106.70428848 242.84644288 C-99.3257886 242.88005334 -91.94728114 242.89648954 -84.56872368 242.91152918 C-69.39989735 242.94283003 -54.23121404 242.99554882 -39.0625 243.0625 C-39.07428284 242.46333267 -39.08606567 241.86416534 -39.09820557 241.24684143 C-39.1453375 238.49925163 -39.17436016 235.75174728 -39.203125 233.00390625 C-39.22197754 232.06148071 -39.24083008 231.11905518 -39.26025391 230.14807129 C-39.32774894 221.54057973 -37.90350544 214.39462637 -32.015625 207.75390625 C-30.0625 206.0625 -30.0625 206.0625 -28.0625 206.0625 C-27.7325 205.0725 -27.4025 204.0825 -27.0625 203.0625 C-19.19892147 199.40186861 -11.56258532 199.76012542 -3.0625 200.0625 C-3.37032496 198.41578588 -3.68389234 196.77014424 -4 195.125 C-4.17402344 194.20847656 -4.34804687 193.29195312 -4.52734375 192.34765625 C-4.83964988 190.10960156 -4.83964988 190.10960156 -6.0625 189.0625 C-6.73712912 185.71434068 -7.1512802 182.31927005 -7.625 178.9375 C-7.83286133 177.52984375 -7.83286133 177.52984375 -8.04492188 176.09375 C-8.76501626 171.02825847 -9.22546117 166.17806377 -9.0625 161.0625 C-9.7225 161.0625 -10.3825 161.0625 -11.0625 161.0625 C-11.57160422 157.56376246 -12.068106 154.06334399 -12.5625 150.5625 C-12.70558594 149.58023438 -12.84867188 148.59796875 -12.99609375 147.5859375 C-13.77607983 142.01460838 -14.223216 136.68756015 -14.0625 131.0625 C-14.7225 131.0625 -15.3825 131.0625 -16.0625 131.0625 C-16.90931133 125.98163204 -17.15288099 121.21421623 -17.0625 116.0625 C-17.7225 116.0625 -18.3825 116.0625 -19.0625 116.0625 C-19.14814209 115.46187744 -19.23378418 114.86125488 -19.32202148 114.24243164 C-19.71038015 111.53598342 -20.10510329 108.83050164 -20.5 106.125 C-20.63470703 105.17947266 -20.76941406 104.23394531 -20.90820312 103.25976562 C-21.04033203 102.36064453 -21.17246094 101.46152344 -21.30859375 100.53515625 C-21.48926392 99.28617554 -21.48926392 99.28617554 -21.67358398 98.01196289 C-21.87433994 96.06562641 -21.87433994 96.06562641 -23.0625 95.0625 C-23.40925181 93.00461571 -23.69905737 90.93708658 -23.96484375 88.8671875 C-24.13306641 87.59359375 -24.30128906 86.32 -24.47460938 85.0078125 C-24.73716144 82.98066631 -24.99797597 80.95330852 -25.25756836 78.92578125 C-25.50972098 76.96817309 -25.7684803 75.01141957 -26.02734375 73.0546875 C-26.1780835 71.88276855 -26.32882324 70.71084961 -26.48413086 69.50341797 C-27.08689887 65.91734269 -28.0627364 62.55616865 -29.0625 59.0625 C-29.44132819 56.80926148 -29.773865 54.54780784 -30.0625 52.28125 C-30.2275 51.02699219 -30.3925 49.77273437 -30.5625 48.48046875 C-30.89583333 45.86848958 -31.22916667 43.25651042 -31.5625 40.64453125 C-31.7275 39.39027344 -31.8925 38.13601562 -32.0625 36.84375 C-32.206875 35.71001953 -32.35125 34.57628906 -32.5 33.40820312 C-33.09709816 29.85671302 -34.04063203 26.51315561 -35.0625 23.0625 C-35.48212655 20.69497734 -35.85772603 18.31920089 -36.1875 15.9375 C-36.35507813 14.75929688 -36.52265625 13.58109375 -36.6953125 12.3671875 C-37.00756046 9.55695584 -37.13704939 6.88472695 -37.0625 4.0625 C-36.13566406 3.92972656 -35.20882812 3.79695312 -34.25390625 3.66015625 C-33.05636719 3.48355469 -31.85882813 3.30695312 -30.625 3.125 C-29.43003906 2.95097656 -28.23507813 2.77695313 -27.00390625 2.59765625 C-24.18294324 2.37264787 -24.18294324 2.37264787 -23.0625 1.0625 C-15.37618713 -0.10308085 -7.76027518 -0.05363295 0 0 Z M-16.0625 221.0625 C-16.0625 228.3225 -16.0625 235.5825 -16.0625 243.0625 C10.6675 243.0625 37.3975 243.0625 64.9375 243.0625 C64.9375 235.8025 64.9375 228.5425 64.9375 221.0625 C60.41382131 217.10772604 60.41382131 217.10772604 55.43408203 216.32519531 C54.12458588 216.24235291 54.12458588 216.24235291 52.78863525 216.15783691 C47.52172645 215.98172081 42.26216843 215.87888061 36.9921875 215.859375 C35.17740402 215.85082489 35.17740402 215.85082489 33.32595825 215.84210205 C30.78290671 215.83270621 28.23984329 215.82613979 25.69677734 215.82226562 C21.81716864 215.81251174 17.93807958 215.78141682 14.05859375 215.75 C11.57812812 215.74347325 9.09765874 215.73822149 6.6171875 215.734375 C5.46491669 215.7220282 4.31264587 215.7096814 3.12545776 215.69696045 C-3.89343139 215.71631609 -10.79803267 215.79803267 -16.0625 221.0625 Z " fill="#22D0C2" transform="translate(181.0625,1.9375)"/>
<path d="M0 0 C1.24716797 0.00451172 2.49433594 0.00902344 3.77929688 0.01367188 C6.83208221 0.02536837 9.88476498 0.04175914 12.9375 0.0625 C16.0843515 12.35861472 18.03513154 24.86678502 20.125 37.375 C20.49638662 39.58013848 20.86812853 41.78521715 21.24023438 43.99023438 C22.14342061 49.34697356 23.04221649 54.70443466 23.9375 60.0625 C24.09831055 59.14774902 24.25912109 58.23299805 24.42480469 57.29052734 C29.84046277 26.50007757 29.84046277 26.50007757 32.25 13.1875 C32.48831543 11.86371338 32.48831543 11.86371338 32.73144531 10.51318359 C32.87807617 9.70703613 33.02470703 8.90088867 33.17578125 8.0703125 C33.3620105 7.04381592 33.3620105 7.04381592 33.55200195 5.99658203 C33.95007794 3.99939523 34.42773856 2.033871 34.9375 0.0625 C39.41665271 0.0332186 43.89578042 0.01560704 48.375 0 C50.26508789 -0.01256836 50.26508789 -0.01256836 52.19335938 -0.02539062 C58.85794365 -0.04279163 65.34266939 0.05387885 71.9375 1.0625 C72.2675 1.3925 72.5975 1.7225 72.9375 2.0625 C74.95061449 2.45819108 76.97347208 2.80502191 79 3.125 C80.10472656 3.30160156 81.20945312 3.47820313 82.34765625 3.66015625 C83.20230469 3.79292969 84.05695313 3.92570313 84.9375 4.0625 C83.47664309 26.85955648 83.47664309 26.85955648 80.96264648 35.35791016 C79.98816121 38.8794247 79.39853299 42.22340611 78.9375 45.84375 C78.7725 47.09800781 78.6075 48.35226563 78.4375 49.64453125 C78.2725 50.93746094 78.1075 52.23039062 77.9375 53.5625 C77.60907123 56.13604732 77.27588531 58.70899289 76.9375 61.28125 C76.793125 62.41498047 76.64875 63.54871094 76.5 64.71679688 C75.90293244 68.26810494 74.93745591 71.60550251 73.9375 75.0625 C73.62219944 76.87583418 73.34736465 78.69685688 73.12109375 80.5234375 C72.99669922 81.48894531 72.87230469 82.45445313 72.74414062 83.44921875 C72.62232422 84.43535156 72.50050781 85.42148438 72.375 86.4375 C72.1275195 88.42495877 71.87642014 90.41197145 71.62109375 92.3984375 C71.51337646 93.27032715 71.40565918 94.1422168 71.29467773 95.04052734 C70.9375 97.0625 70.9375 97.0625 69.9375 98.0625 C69.9375 98.8875 69.9375 99.7125 69.9375 100.5625 C69.9375 101.3875 69.9375 102.2125 69.9375 103.0625 C69.6075 103.3925 69.2775 103.7225 68.9375 104.0625 C68.7725 105.2175 68.6075 106.3725 68.4375 107.5625 C67.9375 111.0625 67.9375 111.0625 66.9375 112.0625 C66.66416511 113.60984079 66.44656686 115.16712113 66.25390625 116.7265625 C66.06924805 118.16322266 66.06924805 118.16322266 65.88085938 119.62890625 C65.62988664 121.64441036 65.37986357 123.66003299 65.13085938 125.67578125 C65.00646484 126.64128906 64.88207031 127.60679687 64.75390625 128.6015625 C64.64506104 129.48021973 64.53621582 130.35887695 64.42407227 131.26416016 C63.9375 134.0625 63.9375 134.0625 62.95336914 137.47827148 C61.96713583 140.95793772 61.36204346 144.29163564 60.8671875 147.87109375 C60.69316406 149.11181641 60.51914063 150.35253906 60.33984375 151.63085938 C60.16582031 152.90767578 59.99179688 154.18449219 59.8125 155.5 C59.63074219 156.80388672 59.44898438 158.10777344 59.26171875 159.45117188 C58.81585405 162.65435774 58.37459277 165.8581074 57.9375 169.0625 C57.2775 169.0625 56.6175 169.0625 55.9375 169.0625 C55.86402344 170.42568359 55.86402344 170.42568359 55.7890625 171.81640625 C55.24406799 180.97795193 54.26443422 189.98008616 52.9375 199.0625 C53.90429688 199.08828125 54.87109375 199.1140625 55.8671875 199.140625 C73.86524826 199.92469893 73.86524826 199.92469893 79.87890625 206.03515625 C83.9375 211.2237529 83.9375 211.2237529 83.9375 214.0625 C84.5975 214.0625 85.2575 214.0625 85.9375 214.0625 C88.14721003 220.26534744 88.17315619 225.95851698 88.0625 232.5 C88.05347656 233.51771484 88.04445313 234.53542969 88.03515625 235.58398438 C88.01174698 238.07707156 87.978957 240.56965859 87.9375 243.0625 C88.56219114 243.05973462 89.18688229 243.05696924 89.83050346 243.05412006 C105.06398266 242.98772985 120.29741716 242.9381562 135.53100395 242.90706348 C142.89800096 242.89162579 150.26490111 242.8705959 157.63183594 242.83618164 C164.05641184 242.80618399 170.48091757 242.78690251 176.90556157 242.78023452 C180.30416313 242.77633971 183.70256399 242.76725194 187.10110092 242.74530983 C190.90459724 242.72345315 194.7076812 242.72053661 198.51123047 242.72192383 C199.62541855 242.711138 200.73960663 242.70035217 201.88755798 242.6892395 C208.2994067 242.71445427 215.20457425 242.8525073 220.9375 246.0625 C221.54520988 248.09241962 221.54520988 248.09241962 221.9375 250.0625 C224.42784386 251.35910434 224.42784386 251.35910434 226.9375 252.0625 C226.9375 253.7125 226.9375 255.3625 226.9375 257.0625 C227.5975 257.0625 228.2575 257.0625 228.9375 257.0625 C229.84152713 259.77458138 230.06203012 261.31947229 230.06054783 264.10172558 C230.06253888 264.92629668 230.06452993 265.75086779 230.06658131 266.6004259 C230.06366847 267.50606022 230.06075563 268.41169455 230.05775452 269.34477234 C230.05903615 270.78806946 230.05903615 270.78806946 230.06034368 272.26052409 C230.06199655 275.49881534 230.05648023 278.73705529 230.05102539 281.9753418 C230.05074345 284.29102579 230.05090138 286.60670986 230.0514679 288.9223938 C230.05175561 295.22160982 230.0458631 301.52080692 230.03889394 307.82001853 C230.03265605 314.39838805 230.03205625 320.97675798 230.03086853 327.55513 C230.028277 338.60064015 230.02185796 349.64614364 230.01293945 360.69165039 C230.00376234 372.0692542 229.99668297 383.44685613 229.99243164 394.82446289 C229.99203756 395.87619658 229.99203756 395.87619658 229.99163551 396.94917741 C229.99033048 400.46662224 229.98906677 403.98406708 229.98782361 407.50151193 C229.9774546 436.68851248 229.95976516 465.87550615 229.9375 495.0625 C228.9475 495.3925 227.9575 495.7225 226.9375 496.0625 C227.040625 496.784375 227.14375 497.50625 227.25 498.25 C226.9375 501.0625 226.9375 501.0625 225 503.625 C216.49991897 510.39037062 208.11085723 510.63656873 197.62789917 510.56370544 C196.07419041 510.56760211 194.52048523 510.57324548 192.96678841 510.58047634 C188.71351726 510.59519619 184.46061764 510.58507056 180.2073586 510.57073963 C175.61427466 510.55961412 171.02124216 510.57157758 166.42816162 510.58058167 C157.43728659 510.59450471 148.44655213 510.58696516 139.45568381 510.57190608 C128.98484586 510.55503631 118.51404284 510.55825741 108.0431955 510.56200016 C89.36161365 510.56787688 70.68009924 510.55371376 51.99853516 510.52905273 C33.87090529 510.50512565 15.74336548 510.4980514 -2.38427734 510.50854492 C-22.12737308 510.51995311 -41.87042718 510.52188594 -61.61352241 510.50744683 C-63.71847208 510.50592099 -65.82342175 510.50440063 -67.92837143 510.50288582 C-68.96403702 510.502128 -69.9997026 510.50137019 -71.06675199 510.50058941 C-78.36577761 510.49584636 -85.66478463 510.49769812 -92.96380997 510.50195122 C-101.85705841 510.50687678 -110.75022169 510.50089822 -119.64345063 510.48105692 C-124.18101836 510.47118283 -128.71845638 510.46608113 -133.25603104 510.47394943 C-137.4097196 510.48100475 -141.56314639 510.47420515 -145.71680044 510.4563458 C-147.21933283 510.4523004 -148.72188907 510.45330275 -150.22441258 510.45986467 C-163.89913003 510.51447453 -163.89913003 510.51447453 -170.0625 507.0625 C-171.0525 506.7325 -172.0425 506.4025 -173.0625 506.0625 C-173.72916667 504.72916667 -174.39583333 503.39583333 -175.0625 502.0625 C-176.0525 501.7325 -177.0425 501.4025 -178.0625 501.0625 C-178.18625 500.32 -178.31 499.5775 -178.4375 498.8125 C-178.9214308 496.12401655 -178.9214308 496.12401655 -180.08565778 494.14564067 C-181.14634414 491.88370025 -181.31388872 490.46238534 -181.31697559 487.98224926 C-181.32280779 487.17393758 -181.32863998 486.3656259 -181.33464891 485.53281993 C-181.33086958 484.65043707 -181.32709026 483.76805422 -181.32319641 482.8589325 C-181.32893473 481.44626349 -181.32893473 481.44626349 -181.33478898 480.00505573 C-181.3451282 476.84144888 -181.34112503 473.67802321 -181.3371582 470.5144043 C-181.34150421 468.24933707 -181.34668698 465.98427132 -181.35264587 463.71920776 C-181.36606029 457.56006363 -181.36661173 451.40098077 -181.36408257 445.24182487 C-181.36301434 440.10262011 -181.36789255 434.96342782 -181.372688 429.82422572 C-181.38442733 417.00627079 -181.38355332 404.18835994 -181.37713119 391.3704044 C-181.37196417 380.24322739 -181.38321115 369.11613798 -181.40222941 357.98897829 C-181.42161188 346.56098978 -181.4295716 335.13305885 -181.42610615 323.70505077 C-181.4242919 317.29020527 -181.42694357 310.87543997 -181.44082069 304.46060753 C-181.45338411 298.42695021 -181.45146886 292.39346827 -181.43840981 286.35981369 C-181.4360411 284.14548369 -181.43878919 281.93114141 -181.44703293 279.71682549 C-181.45747716 276.6933524 -181.44941799 273.67047023 -181.4367218 270.64701843 C-181.44409609 269.77132775 -181.45147037 268.89563706 -181.45906812 267.99341029 C-181.41120089 262.57248715 -180.43872517 258.93201519 -178.0625 254.0625 C-178.0625 253.4025 -178.0625 252.7425 -178.0625 252.0625 C-177.485 251.815 -176.9075 251.5675 -176.3125 251.3125 C-173.96966389 250.16952916 -173.96966389 250.16952916 -172.3125 248.125 C-165.92918246 242.27362559 -158.01603862 242.64350764 -149.86328125 242.72192383 C-148.66242386 242.72148575 -147.46156647 242.72104767 -146.22431946 242.72059631 C-142.95407967 242.72231993 -139.68423228 242.73729539 -136.41407013 242.75831819 C-132.98814115 242.77715773 -129.56220326 242.77884113 -126.13623047 242.78239441 C-119.65884303 242.79169362 -113.18160871 242.81627835 -106.70428848 242.84644288 C-99.3257886 242.88005334 -91.94728114 242.89648954 -84.56872368 242.91152918 C-69.39989735 242.94283003 -54.23121404 242.99554882 -39.0625 243.0625 C-39.07428284 242.46333267 -39.08606567 241.86416534 -39.09820557 241.24684143 C-39.1453375 238.49925163 -39.17436016 235.75174728 -39.203125 233.00390625 C-39.22197754 232.06148071 -39.24083008 231.11905518 -39.26025391 230.14807129 C-39.32774894 221.54057973 -37.90350544 214.39462637 -32.015625 207.75390625 C-30.0625 206.0625 -30.0625 206.0625 -28.0625 206.0625 C-27.7325 205.0725 -27.4025 204.0825 -27.0625 203.0625 C-19.19892147 199.40186861 -11.56258532 199.76012542 -3.0625 200.0625 C-3.37032496 198.41578588 -3.68389234 196.77014424 -4 195.125 C-4.17402344 194.20847656 -4.34804687 193.29195312 -4.52734375 192.34765625 C-4.83964988 190.10960156 -4.83964988 190.10960156 -6.0625 189.0625 C-6.73712912 185.71434068 -7.1512802 182.31927005 -7.625 178.9375 C-7.83286133 177.52984375 -7.83286133 177.52984375 -8.04492188 176.09375 C-8.76501626 171.02825847 -9.22546117 166.17806377 -9.0625 161.0625 C-9.7225 161.0625 -10.3825 161.0625 -11.0625 161.0625 C-11.57160422 157.56376246 -12.068106 154.06334399 -12.5625 150.5625 C-12.70558594 149.58023438 -12.84867188 148.59796875 -12.99609375 147.5859375 C-13.77607983 142.01460838 -14.223216 136.68756015 -14.0625 131.0625 C-14.7225 131.0625 -15.3825 131.0625 -16.0625 131.0625 C-16.90931133 125.98163204 -17.15288099 121.21421623 -17.0625 116.0625 C-17.7225 116.0625 -18.3825 116.0625 -19.0625 116.0625 C-19.14814209 115.46187744 -19.23378418 114.86125488 -19.32202148 114.24243164 C-19.71038015 111.53598342 -20.10510329 108.83050164 -20.5 106.125 C-20.63470703 105.17947266 -20.76941406 104.23394531 -20.90820312 103.25976562 C-21.04033203 102.36064453 -21.17246094 101.46152344 -21.30859375 100.53515625 C-21.48926392 99.28617554 -21.48926392 99.28617554 -21.67358398 98.01196289 C-21.87433994 96.06562641 -21.87433994 96.06562641 -23.0625 95.0625 C-23.40925181 93.00461571 -23.69905737 90.93708658 -23.96484375 88.8671875 C-24.13306641 87.59359375 -24.30128906 86.32 -24.47460938 85.0078125 C-24.73716144 82.98066631 -24.99797597 80.95330852 -25.25756836 78.92578125 C-25.50972098 76.96817309 -25.7684803 75.01141957 -26.02734375 73.0546875 C-26.1780835 71.88276855 -26.32882324 70.71084961 -26.48413086 69.50341797 C-27.08689887 65.91734269 -28.0627364 62.55616865 -29.0625 59.0625 C-29.44132819 56.80926148 -29.773865 54.54780784 -30.0625 52.28125 C-30.2275 51.02699219 -30.3925 49.77273437 -30.5625 48.48046875 C-30.89583333 45.86848958 -31.22916667 43.25651042 -31.5625 40.64453125 C-31.7275 39.39027344 -31.8925 38.13601562 -32.0625 36.84375 C-32.206875 35.71001953 -32.35125 34.57628906 -32.5 33.40820312 C-33.09709816 29.85671302 -34.04063203 26.51315561 -35.0625 23.0625 C-35.48212655 20.69497734 -35.85772603 18.31920089 -36.1875 15.9375 C-36.35507813 14.75929688 -36.52265625 13.58109375 -36.6953125 12.3671875 C-37.00756046 9.55695584 -37.13704939 6.88472695 -37.0625 4.0625 C-36.13566406 3.92972656 -35.20882812 3.79695312 -34.25390625 3.66015625 C-33.05636719 3.48355469 -31.85882813 3.30695312 -30.625 3.125 C-29.43003906 2.95097656 -28.23507813 2.77695313 -27.00390625 2.59765625 C-24.18294324 2.37264787 -24.18294324 2.37264787 -23.0625 1.0625 C-15.37618713 -0.10308085 -7.76027518 -0.05363295 0 0 Z M-16.0625 221.0625 C-16.0625 228.3225 -16.0625 235.5825 -16.0625 243.0625 C10.6675 243.0625 37.3975 243.0625 64.9375 243.0625 C64.9375 235.8025 64.9375 228.5425 64.9375 221.0625 C60.41382131 217.10772604 60.41382131 217.10772604 55.43408203 216.32519531 C54.12458588 216.24235291 54.12458588 216.24235291 52.78863525 216.15783691 C47.52172645 215.98172081 42.26216843 215.87888061 36.9921875 215.859375 C35.17740402 215.85082489 35.17740402 215.85082489 33.32595825 215.84210205 C30.78290671 215.83270621 28.23984329 215.82613979 25.69677734 215.82226562 C21.81716864 215.81251174 17.93807958 215.78141682 14.05859375 215.75 C11.57812812 215.74347325 9.09765874 215.73822149 6.6171875 215.734375 C5.46491669 215.7220282 4.31264587 215.7096814 3.12545776 215.69696045 C-3.89343139 215.71631609 -10.79803267 215.79803267 -16.0625 221.0625 Z M-159.5 267.6875 C-160.15871094 268.46351563 -160.81742188 269.23953125 -161.49609375 270.0390625 C-164.49788485 273.91668792 -164.21339114 277.26366203 -164.21640015 281.99380493 C-164.2207824 282.82291394 -164.22516465 283.65202294 -164.2296797 284.50625646 C-164.24309583 287.30055993 -164.24925291 290.09483184 -164.25537109 292.88916016 C-164.26326996 294.88630314 -164.27153877 296.88344469 -164.28015137 298.88058472 C-164.30640032 305.45423006 -164.32168363 312.02788185 -164.3359375 318.6015625 C-164.34129633 320.86300028 -164.34667384 323.12443801 -164.35206985 325.3858757 C-164.37370436 334.79296377 -164.39244092 344.20005009 -164.40369225 353.60715675 C-164.41992913 367.09488099 -164.4530943 380.58231701 -164.51009309 394.06993258 C-164.54878886 403.54942507 -164.56832463 413.02884046 -164.57361281 422.50840986 C-164.57726724 428.17167805 -164.58929834 433.83463904 -164.62171555 439.49782181 C-164.65178882 444.82813363 -164.65811044 450.15795228 -164.64633179 455.48833084 C-164.64611098 457.44263548 -164.65442186 459.39696294 -164.67198563 461.35118866 C-164.69470008 464.02448169 -164.68637215 466.69598991 -164.67050171 469.36929321 C-164.6843838 470.13837969 -164.69826588 470.90746618 -164.71256864 471.69985831 C-164.61348548 478.49764276 -161.71393768 483.09609672 -157.25390625 488.0859375 C-156.44759766 488.75496094 -156.44759766 488.75496094 -155.625 489.4375 C-154.82255859 490.12972656 -154.82255859 490.12972656 -154.00390625 490.8359375 C-149.5956356 493.6210421 -145.15742571 494.31273836 -140.02382946 494.31976891 C-138.23247862 494.32944224 -138.23247862 494.32944224 -136.40493888 494.339311 C-134.45014301 494.3346652 -134.45014301 494.3346652 -132.45585632 494.32992554 C-131.05053282 494.33366355 -129.64521139 494.33826568 -128.23989326 494.34365618 C-124.3828643 494.35588288 -120.52592211 494.35562611 -116.6688782 494.35326743 C-112.50720486 494.35285918 -108.34555931 494.36389917 -104.18389893 494.37338257 C-96.03220225 494.38999163 -87.8805345 494.39549207 -79.72882231 494.39660732 C-73.10241699 494.39755782 -66.47602121 494.40166821 -59.84961891 494.40800858 C-41.06055674 494.42562057 -22.27151742 494.43484749 -3.48244693 494.43334763 C-2.46963837 494.43326772 -1.45682981 494.4331878 -0.41333008 494.43310547 C0.60071576 494.43302371 1.61476159 494.43294195 2.65953609 494.43285771 C19.09425745 494.43204477 35.52888716 494.45118442 51.96358202 494.4793822 C68.84055717 494.50811024 85.71748762 494.52192255 102.59448785 494.52019465 C112.06886839 494.51953073 121.54315285 494.5250239 131.01751137 494.54655075 C139.08403877 494.56476146 147.15042654 494.56911078 155.21696559 494.5555319 C159.33153644 494.54900174 163.44583939 494.54888665 167.56038475 494.5662384 C171.33009175 494.58197223 175.09931851 494.57910271 178.86901381 494.56167014 C180.87225977 494.55715146 182.87552065 494.57225512 184.87870866 494.58814943 C193.54362757 494.52184943 199.97145152 493.32347319 206.75 487.75 C212.04229115 481.24804231 214.08669875 475.560815 214.08467102 467.20075989 C214.09018605 465.98644139 214.09018605 465.98644139 214.0958125 464.7475912 C214.1068561 462.02548737 214.11069433 459.30342171 214.11450195 456.58129883 C214.12076612 454.63326903 214.12741287 452.68524042 214.13441467 450.73721313 C214.15182919 445.43744003 214.16237779 440.13767595 214.1706202 434.83788133 C214.17576968 431.52697165 214.18184545 428.21606478 214.18813133 424.90515709 C214.20718515 414.54679527 214.22141558 404.18844058 214.2297433 393.83006459 C214.23951575 381.87193392 214.26583476 369.91398835 214.30624419 357.9559229 C214.33640292 348.71419868 214.35121197 339.47252751 214.35452431 330.23075503 C214.35687516 324.71063097 214.36584019 319.19070461 214.39098549 313.67063332 C214.41426669 308.47578199 214.41849914 303.28125854 214.40822411 298.08636856 C214.40772864 296.18205996 214.41405216 294.27773521 214.42778015 292.37347603 C214.44550672 289.76831208 214.43838948 287.16432381 214.42524719 284.55915833 C214.43621644 283.81020871 214.44718568 283.06125908 214.45848733 282.28961402 C214.38603669 276.3179212 212.72182019 270.94303642 208.49018651 266.56517249 C207.02914061 265.32762237 205.48461509 264.19060476 203.9375 263.0625 C203.23625 262.485 202.535 261.9075 201.8125 261.3125 C198.13687042 258.86208028 194.43498943 258.93574342 190.11089706 258.92827892 C188.91306178 258.92382108 187.71522649 258.91936324 186.48109317 258.91477031 C185.16360623 258.91495467 183.84611928 258.91513903 182.4887085 258.91532898 C181.07615026 258.91202925 179.66359297 258.90830346 178.25103688 258.9041875 C174.36477794 258.89417197 170.47853444 258.89045144 166.59226441 258.88779819 C162.40263351 258.88389389 158.21301482 258.87431573 154.02339172 258.86558533 C143.90406135 258.84582593 133.78472997 258.83575601 123.66538513 258.82685754 C118.90061304 258.82247435 114.13584207 258.81710767 109.37107086 258.81186867 C93.53356024 258.79485799 77.69605031 258.78036311 61.85853195 258.77311993 C57.74894968 258.77121002 53.63936741 258.76928969 49.52978516 258.76733398 C48.50836478 258.76685024 47.4869444 258.7663665 46.43457189 258.7658681 C29.88265514 258.7575651 13.3308106 258.73222289 -3.22107461 258.69975331 C-20.21210779 258.66669374 -37.20310425 258.64867222 -54.19416976 258.64547569 C-63.73506508 258.64330972 -73.27585506 258.63454825 -82.81671906 258.60901451 C-90.94077451 258.58732271 -99.06469903 258.57924965 -107.18878016 258.58898129 C-111.3335968 258.59353022 -115.47814321 258.59160542 -119.6229229 258.57221985 C-123.41917052 258.55461772 -127.21495016 258.55556157 -131.01120254 258.57111714 C-133.03119594 258.57462336 -135.05119408 258.55844501 -137.07111955 258.54151267 C-146.60672317 258.60923283 -153.14178741 260.0371758 -159.5 267.6875 Z " fill="#FDFEFD" transform="translate(181.0625,1.9375)"/>
<path d="M0 0 C1.24716797 0.00451172 2.49433594 0.00902344 3.77929688 0.01367188 C6.83208221 0.02536837 9.88476498 0.04175914 12.9375 0.0625 C16.0843515 12.35861472 18.03513154 24.86678502 20.125 37.375 C20.49638662 39.58013848 20.86812853 41.78521715 21.24023438 43.99023438 C22.14342061 49.34697356 23.04221649 54.70443466 23.9375 60.0625 C24.09831055 59.14774902 24.25912109 58.23299805 24.42480469 57.29052734 C29.84046277 26.50007757 29.84046277 26.50007757 32.25 13.1875 C32.48831543 11.86371338 32.48831543 11.86371338 32.73144531 10.51318359 C32.87807617 9.70703613 33.02470703 8.90088867 33.17578125 8.0703125 C33.29993408 7.38598145 33.42408691 6.70165039 33.55200195 5.99658203 C33.95007794 3.99939523 34.42773856 2.033871 34.9375 0.0625 C39.41665271 0.0332186 43.89578042 0.01560704 48.375 0 C50.26508789 -0.01256836 50.26508789 -0.01256836 52.19335938 -0.02539062 C58.85794365 -0.04279163 65.34266939 0.05387885 71.9375 1.0625 C72.4325 1.5575 72.4325 1.5575 72.9375 2.0625 C74.95061449 2.45819108 76.97347208 2.80502191 79 3.125 C80.10472656 3.30160156 81.20945312 3.47820313 82.34765625 3.66015625 C83.20230469 3.79292969 84.05695313 3.92570313 84.9375 4.0625 C83.47664309 26.85955648 83.47664309 26.85955648 80.96264648 35.35791016 C79.98816121 38.8794247 79.39853299 42.22340611 78.9375 45.84375 C78.7725 47.09800781 78.6075 48.35226563 78.4375 49.64453125 C78.2725 50.93746094 78.1075 52.23039062 77.9375 53.5625 C77.60907123 56.13604732 77.27588531 58.70899289 76.9375 61.28125 C76.793125 62.41498047 76.64875 63.54871094 76.5 64.71679688 C75.90293244 68.26810494 74.93745591 71.60550251 73.9375 75.0625 C73.62219944 76.87583418 73.34736465 78.69685688 73.12109375 80.5234375 C72.99669922 81.48894531 72.87230469 82.45445313 72.74414062 83.44921875 C72.62232422 84.43535156 72.50050781 85.42148438 72.375 86.4375 C72.1275195 88.42495877 71.87642014 90.41197145 71.62109375 92.3984375 C71.51337646 93.27032715 71.40565918 94.1422168 71.29467773 95.04052734 C70.9375 97.0625 70.9375 97.0625 69.9375 98.0625 C69.9375 98.8875 69.9375 99.7125 69.9375 100.5625 C69.9375 101.3875 69.9375 102.2125 69.9375 103.0625 C69.6075 103.3925 69.2775 103.7225 68.9375 104.0625 C68.7725 105.2175 68.6075 106.3725 68.4375 107.5625 C67.9375 111.0625 67.9375 111.0625 66.9375 112.0625 C66.66416511 113.60984079 66.44656686 115.16712113 66.25390625 116.7265625 C66.06924805 118.16322266 66.06924805 118.16322266 65.88085938 119.62890625 C65.62988664 121.64441036 65.37986357 123.66003299 65.13085938 125.67578125 C65.00646484 126.64128906 64.88207031 127.60679687 64.75390625 128.6015625 C64.64506104 129.48021973 64.53621582 130.35887695 64.42407227 131.26416016 C63.9375 134.0625 63.9375 134.0625 62.95336914 137.47827148 C61.96713583 140.95793772 61.36204346 144.29163564 60.8671875 147.87109375 C60.69316406 149.11181641 60.51914063 150.35253906 60.33984375 151.63085938 C60.07880859 153.54608398 60.07880859 153.54608398 59.8125 155.5 C59.63074219 156.80388672 59.44898438 158.10777344 59.26171875 159.45117188 C58.81585405 162.65435774 58.37459277 165.8581074 57.9375 169.0625 C57.2775 169.0625 56.6175 169.0625 55.9375 169.0625 C55.86402344 170.42568359 55.86402344 170.42568359 55.7890625 171.81640625 C55.24406799 180.97795193 54.26443422 189.98008616 52.9375 199.0625 C51.2875 199.3925 49.6375 199.7225 47.9375 200.0625 C48.081875 200.70316406 48.22625 201.34382812 48.375 202.00390625 C48.560625 202.86886719 48.74625 203.73382813 48.9375 204.625 C49.123125 205.47191406 49.30875 206.31882813 49.5 207.19140625 C49.9375 210.0625 49.9375 210.0625 49.9375 217.0625 C32.7775 217.0625 15.6175 217.0625 -2.0625 217.0625 C-2.0625 214.4225 -2.0625 211.7825 -2.0625 209.0625 C-2.3925 208.4025 -2.7225 207.7425 -3.0625 207.0625 C-3.53327302 203.41033118 -3.93169865 199.75794115 -4.3125 196.09570312 C-4.39489646 192.26123571 -4.39489646 192.26123571 -6.0625 189.0625 C-6.73712912 185.71434068 -7.1512802 182.31927005 -7.625 178.9375 C-7.76357422 177.9990625 -7.90214844 177.060625 -8.04492188 176.09375 C-8.76501626 171.02825847 -9.22546117 166.17806377 -9.0625 161.0625 C-9.7225 161.0625 -10.3825 161.0625 -11.0625 161.0625 C-11.57160422 157.56376246 -12.068106 154.06334399 -12.5625 150.5625 C-12.70558594 149.58023438 -12.84867188 148.59796875 -12.99609375 147.5859375 C-13.77607983 142.01460838 -14.223216 136.68756015 -14.0625 131.0625 C-14.7225 131.0625 -15.3825 131.0625 -16.0625 131.0625 C-16.90931133 125.98163204 -17.15288099 121.21421623 -17.0625 116.0625 C-17.7225 116.0625 -18.3825 116.0625 -19.0625 116.0625 C-19.14814209 115.46187744 -19.23378418 114.86125488 -19.32202148 114.24243164 C-19.71038015 111.53598342 -20.10510329 108.83050164 -20.5 106.125 C-20.63470703 105.17947266 -20.76941406 104.23394531 -20.90820312 103.25976562 C-21.10639648 101.91108398 -21.10639648 101.91108398 -21.30859375 100.53515625 C-21.42904053 99.70250244 -21.5494873 98.86984863 -21.67358398 98.01196289 C-21.87433994 96.06562641 -21.87433994 96.06562641 -23.0625 95.0625 C-23.40925181 93.00461571 -23.69905737 90.93708658 -23.96484375 88.8671875 C-24.21717773 86.95679687 -24.21717773 86.95679687 -24.47460938 85.0078125 C-24.73716144 82.98066631 -24.99797597 80.95330852 -25.25756836 78.92578125 C-25.50972098 76.96817309 -25.7684803 75.01141957 -26.02734375 73.0546875 C-26.1780835 71.88276855 -26.32882324 70.71084961 -26.48413086 69.50341797 C-27.08689887 65.91734269 -28.0627364 62.55616865 -29.0625 59.0625 C-29.44132819 56.80926148 -29.773865 54.54780784 -30.0625 52.28125 C-30.2275 51.02699219 -30.3925 49.77273437 -30.5625 48.48046875 C-30.89583333 45.86848958 -31.22916667 43.25651042 -31.5625 40.64453125 C-31.7275 39.39027344 -31.8925 38.13601562 -32.0625 36.84375 C-32.2790625 35.1431543 -32.2790625 35.1431543 -32.5 33.40820312 C-33.09709816 29.85671302 -34.04063203 26.51315561 -35.0625 23.0625 C-35.48212655 20.69497734 -35.85772603 18.31920089 -36.1875 15.9375 C-36.35507813 14.75929688 -36.52265625 13.58109375 -36.6953125 12.3671875 C-37.00756046 9.55695584 -37.13704939 6.88472695 -37.0625 4.0625 C-35.67224609 3.86333984 -35.67224609 3.86333984 -34.25390625 3.66015625 C-33.05636719 3.48355469 -31.85882813 3.30695312 -30.625 3.125 C-29.43003906 2.95097656 -28.23507813 2.77695313 -27.00390625 2.59765625 C-24.18294324 2.37264787 -24.18294324 2.37264787 -23.0625 1.0625 C-15.37618713 -0.10308085 -7.76027518 -0.05363295 0 0 Z " fill="#FE5B60" transform="translate(181.0625,1.9375)"/>
<path d="M0 0 C0.495 3.96 0.495 3.96 1 8 C1.66 8 2.32 8 3 8 C3.66 11.96 4.32 15.92 5 20 C5.99 20 6.98 20 8 20 C8.50471197 21.76949612 9.00360685 23.54065223 9.5 25.3125 C9.7784375 26.29863281 10.056875 27.28476562 10.34375 28.30078125 C11 31 11 31 11 34 C11.66 34 12.32 34 13 34 C13.66 37.63 14.32 41.26 15 45 C15.66 45 16.32 45 17 45 C18.32 50.61 19.64 56.22 21 62 C21.66 62 22.32 62 23 62 C23.103125 60.845 23.20625 59.69 23.3125 58.5 C23.76693004 54.88349426 24.72896281 51.75401018 26.1015625 48.36328125 C28.01157667 43.33911354 29.45470728 38.14574633 31 33 C31.66 33 32.32 33 33 33 C33.185625 31.453125 33.185625 31.453125 33.375 29.875 C33.93889814 26.37883154 34.78682059 23.31602373 36 20 C36.99 20 37.98 20 39 20 C39.185625 18.2675 39.185625 18.2675 39.375 16.5 C40.11569683 10.61615475 41.32657998 5.34684005 44 0 C48.455 0.99 48.455 0.99 53 2 C53 2.66 53 3.32 53 4 C53.9075 4.103125 54.815 4.20625 55.75 4.3125 C61.26282152 5.08543168 66.62115462 6.59567091 72 8 C72 8.66 72 9.32 72 10 C72.66386719 10.08636719 73.32773438 10.17273438 74.01171875 10.26171875 C78.43893983 10.96619627 81.39811704 11.55780027 85.0625 14.25 C87.19325559 17.27429826 87.74462431 19.33961507 88 23 C88.66 23 89.32 23 90 23 C90.63999515 27.97710512 91.22168377 32.9548048 91.75097656 37.94482422 C91.94894977 39.57868543 92.23665641 41.2016146 92.5546875 42.81640625 C92.92467453 45.33863493 92.99079946 46.63696655 92 49 C86.96686205 54.02481872 76.6045535 63 69 63 C69 63.66 69 64.32 69 65 C65.04 65.99 65.04 65.99 61 67 C61 67.66 61 68.32 61 69 C38.40510967 74.96942016 38.40510967 74.96942016 28 74 C28 74.66 28 75.32 28 76 C0.84702658 76.38303568 -25.1382634 69.03467884 -46 51 C-48 49 -48 49 -48.23046875 45.63671875 C-48.08070896 39.96760663 -47.20406921 34.40444942 -46.3125 28.8125 C-46.08916992 27.21245117 -46.08916992 27.21245117 -45.86132812 25.58007812 C-45.13291236 21.0124828 -44.54096546 17.76957016 -41.85546875 13.94921875 C-38.35750351 11.56141485 -35.02790472 10.23703783 -31 9 C-30.28392578 8.77006348 -29.56785156 8.54012695 -28.83007812 8.30322266 C-26.64354993 7.61420296 -24.44942887 6.95904614 -22.25 6.3125 C-21.50878906 6.08755859 -20.76757812 5.86261719 -20.00390625 5.63085938 C-16.49698895 4.595154 -13.68650077 4 -10 4 C-10 3.34 -10 2.68 -10 2 C-3.375 0 -3.375 0 0 0 Z " fill="#656767" transform="translate(95,391)"/>
<path d="M0 0 C4.47915271 -0.0292814 8.95828042 -0.04689296 13.4375 -0.0625 C15.32758789 -0.07506836 15.32758789 -0.07506836 17.25585938 -0.08789062 C23.92044365 -0.10529163 30.40516939 -0.00862115 37 1 C37.495 1.495 37.495 1.495 38 2 C40.01311449 2.39569108 42.03597208 2.74252191 44.0625 3.0625 C45.16722656 3.23910156 46.27195312 3.41570313 47.41015625 3.59765625 C48.26480469 3.73042969 49.11945313 3.86320313 50 4 C48.53914309 26.79705648 48.53914309 26.79705648 46.02514648 35.29541016 C45.05066121 38.8169247 44.46103299 42.16090611 44 45.78125 C43.835 47.03550781 43.67 48.28976563 43.5 49.58203125 C43.335 50.87496094 43.17 52.16789062 43 53.5 C42.67157123 56.07354732 42.33838531 58.64649289 42 61.21875 C41.855625 62.35248047 41.71125 63.48621094 41.5625 64.65429688 C40.96543244 68.20560494 39.99995591 71.54300251 39 75 C38.68469944 76.81333418 38.40986465 78.63435688 38.18359375 80.4609375 C38.05919922 81.42644531 37.93480469 82.39195313 37.80664062 83.38671875 C37.68482422 84.37285156 37.56300781 85.35898438 37.4375 86.375 C37.1900195 88.36245877 36.93892014 90.34947145 36.68359375 92.3359375 C36.57587646 93.20782715 36.46815918 94.0797168 36.35717773 94.97802734 C36 97 36 97 35 98 C35 98.825 35 99.65 35 100.5 C35 101.325 35 102.15 35 103 C34.67 103.33 34.34 103.66 34 104 C33.835 105.155 33.67 106.31 33.5 107.5 C33 111 33 111 32 112 C31.72666511 113.54734079 31.50906686 115.10462113 31.31640625 116.6640625 C31.19330078 117.62183594 31.07019531 118.57960938 30.94335938 119.56640625 C30.69238664 121.58191036 30.44236357 123.59753299 30.19335938 125.61328125 C30.06896484 126.57878906 29.94457031 127.54429687 29.81640625 128.5390625 C29.70756104 129.41771973 29.59871582 130.29637695 29.48657227 131.20166016 C29 134 29 134 28.01586914 137.41577148 C27.02963583 140.89543772 26.42454346 144.22913564 25.9296875 147.80859375 C25.75566406 149.04931641 25.58164063 150.29003906 25.40234375 151.56835938 C25.22832031 152.84517578 25.05429688 154.12199219 24.875 155.4375 C24.69324219 156.74138672 24.51148438 158.04527344 24.32421875 159.38867188 C23.87835405 162.59185774 23.43709277 165.7956074 23 169 C22.34 169 21.68 169 21 169 C20.95101562 169.90878906 20.90203125 170.81757813 20.8515625 171.75390625 C20.30656799 180.91545193 19.32693422 189.91758616 18 199 C16.02 199 14.04 199 12 199 C11.87882812 198.2265625 11.75765625 197.453125 11.6328125 196.65625 C11.46523437 195.6146875 11.29765625 194.573125 11.125 193.5 C10.88136719 191.96859375 10.88136719 191.96859375 10.6328125 190.40625 C10.04890513 187.26324245 9.28866199 184.20205386 8.49511719 181.10693359 C7.63803223 177.45967366 7.11216312 173.76636603 6.5625 170.0625 C5.03098512 160.08061516 3.29625854 150.14315882 1.49316406 140.20703125 C0.23443183 133.26941975 -1.00433126 126.32849524 -2.22607422 119.38427734 C-2.78190335 116.22731677 -3.34487692 113.07169803 -3.91064453 109.91650391 C-4.73258776 105.32439275 -5.53666803 100.72938654 -6.33166504 96.13253784 C-6.64703596 94.32391885 -6.96757953 92.51619256 -7.29382324 90.70950317 C-10.83937316 71.02811605 -10.30043607 53.88276347 -6.6875 34.25 C-6.3743047 32.47549752 -6.06245174 30.70075758 -5.75195312 28.92578125 C-4.04079211 19.23650472 -2.15119979 9.60211015 0 0 Z " fill="#EC4C53" transform="translate(216,2)"/>
<path d="M0 0 C4.13051807 0.24297165 7.34061182 2.13530085 10.9296875 4.01171875 C13.88221564 5.42113313 16.83070367 6.20767592 20 7 C20 7.66 20 8.32 20 9 C25.94 9 31.88 9 38 9 C38 8.34 38 7.68 38 7 C40.31 6.34 42.62 5.68 45 5 C45.495 11.93 45.495 11.93 46 19 C46.66 19 47.32 19 48 19 C47.979375 17.88625 47.95875 16.7725 47.9375 15.625 C48 12 48 12 49 10 C50.65 10 52.3 10 54 10 C56.53801133 17.61403398 54.57937948 24.64569779 52 32 C51.01 32 50.02 32 49 32 C48.67708984 33.42699219 48.67708984 33.42699219 48.34765625 34.8828125 C46.8872135 39.99114529 44.14467653 44.34108592 41.4375 48.875 C40.93025391 49.74125 40.42300781 50.6075 39.90039062 51.5 C36.18171131 57.81828869 36.18171131 57.81828869 35 59 C34.76807135 60.51469448 34.58784762 62.03754562 34.4375 63.5625 C34.35371094 64.38878906 34.26992187 65.21507812 34.18359375 66.06640625 C34.12300781 66.70449219 34.06242187 67.34257812 34 68 C34.5775 68.226875 35.155 68.45375 35.75 68.6875 C38.78563203 70.45828535 40.24692957 71.93108574 42 75 C41.65341919 77.96853996 41.18834822 80.2602994 40.3125 83.0625 C40.11205078 83.76955078 39.91160156 84.47660156 39.70507812 85.20507812 C39.15408321 87.14174343 38.57802285 89.07122903 38 91 C37.66019336 92.33169829 37.32512593 93.66464161 37 95 C36.01 95 35.02 95 34 95 C32.515 101.435 32.515 101.435 31 108 C30.34 108 29.68 108 29 108 C28.89042969 108.71285156 28.78085938 109.42570312 28.66796875 110.16015625 C27.71901517 115.89245305 26.37762441 120.67412132 24 126 C22.90933659 129.6438073 21.93966768 133.31463669 21 137 C20.34 137 19.68 137 19 137 C18.32635339 134.91891315 17.66133202 132.8350329 17 130.75 C16.62875 129.58984375 16.2575 128.4296875 15.875 127.234375 C15 124 15 124 15 120 C14.34 120 13.68 120 13 120 C11.80712589 116.12315913 11 113.08378077 11 109 C10.34 109 9.68 109 9 109 C8.49528803 107.23050388 7.99639315 105.45934777 7.5 103.6875 C7.2215625 102.70136719 6.943125 101.71523438 6.65625 100.69921875 C6 98 6 98 6 95 C5.01 95 4.02 95 3 95 C1.70756464 90.8803623 0.73747375 87.33168317 1 83 C0.34 83 -0.32 83 -1 83 C-2.70617557 75.39822764 -2.70617557 75.39822764 -1.0234375 72.06640625 C0.3125 70.4375 0.3125 70.4375 3 68 C3.66 68 4.32 68 5 68 C5.11113487 60.53808739 3.29280823 56.27044269 -1.21875 50.390625 C-3.66678042 47.10511049 -5.27290356 43.71005901 -7 40 C-7.54720703 39.02160156 -7.54720703 39.02160156 -8.10546875 38.0234375 C-9 36 -9 36 -9 32 C-9.928125 31.9071875 -9.928125 31.9071875 -10.875 31.8125 C-13 31 -13 31 -14.0859375 28.86328125 C-15.11044605 25.65403011 -15.48760342 22.73213269 -15.75 19.375 C-15.84796875 18.24835938 -15.9459375 17.12171875 -16.046875 15.9609375 C-16 13 -16 13 -14 10 C-9.125 11.75 -9.125 11.75 -8 14 C-7.960008 15.99960012 -7.95653201 18.00047242 -8 20 C-7.34 19.67 -6.68 19.34 -6 19 C-5.74280183 16.97456444 -5.49157878 14.94649776 -5.34375 12.91015625 C-5 11 -5 11 -3 9 C-2.835 7.845 -2.67 6.69 -2.5 5.5 C-2 2 -2 2 0 0 Z " fill="#FBD097" transform="translate(97,316)"/>
<path d="M0 0 C0.13794954 7.06608191 -0.25194283 13.97360585 -1 21 C-0.236875 21.12375 0.52625 21.2475 1.3125 21.375 C4 22 4 22 7 24 C7 24.66 7 25.32 7 26 C4.5 27.625 4.5 27.625 2 29 C2.25265625 29.50402344 2.5053125 30.00804687 2.765625 30.52734375 C3.75916223 32.51756232 4.74758894 34.5103317 5.734375 36.50390625 C6.40582382 37.85698241 7.07771932 39.20983696 7.75 40.5625 C8.10126953 41.26979248 8.45253906 41.97708496 8.81445312 42.70581055 C11.38333781 47.84649381 14.10056412 52.88209673 16.96875 57.86328125 C18 60 18 60 18 63 C18.66 63 19.32 63 20 63 C20.66 65.31 21.32 67.62 22 70 C-0.34475802 71.73738939 -21.03713073 60.57825921 -38 47 C-40 45 -40 45 -40.23046875 41.63671875 C-40.08070896 35.96760663 -39.20406921 30.40444942 -38.3125 24.8125 C-38.08916992 23.21245117 -38.08916992 23.21245117 -37.86132812 21.58007812 C-37.13291236 17.0124828 -36.54096546 13.76957016 -33.85546875 9.94921875 C-30.35823286 7.56191272 -27.02521122 6.24127474 -23 5 C-22.29456055 4.77006348 -21.58912109 4.54012695 -20.86230469 4.30322266 C-18.70731199 3.61211855 -16.54401078 2.95813181 -14.375 2.3125 C-13.28832031 1.97508789 -13.28832031 1.97508789 -12.1796875 1.63085938 C-7.99711403 0.38442217 -4.41475393 -0.25764337 0 0 Z " fill="#656766" transform="translate(87,395)"/>
<path d="M0 0 C0.33 2.64 0.66 5.28 1 8 C1.66 8 2.32 8 3 8 C3.66 11.96 4.32 15.92 5 20 C5.99 20 6.98 20 8 20 C8.50471197 21.76949612 9.00360685 23.54065223 9.5 25.3125 C9.7784375 26.29863281 10.056875 27.28476562 10.34375 28.30078125 C11 31 11 31 11 34 C11.66 34 12.32 34 13 34 C13.99 39.445 13.99 39.445 15 45 C15.66 45 16.32 45 17 45 C18.32 50.61 19.64 56.22 21 62 C21.66 62 22.32 62 23 62 C23.103125 60.845 23.20625 59.69 23.3125 58.5 C23.76693004 54.88349426 24.72896281 51.75401018 26.1015625 48.36328125 C28.01157667 43.33911354 29.45470728 38.14574633 31 33 C31.66 33 32.32 33 33 33 C33.185625 31.453125 33.185625 31.453125 33.375 29.875 C33.93889814 26.37883154 34.78682059 23.31602373 36 20 C36.99 20 37.98 20 39 20 C39.185625 18.2675 39.185625 18.2675 39.375 16.5 C40.11569683 10.61615475 41.32657998 5.34684005 44 0 C48.455 0.99 48.455 0.99 53 2 C53 9.59 53 17.18 53 25 C50.36 25.99 47.72 26.98 45 28 C46.65 29.65 48.3 31.3 50 33 C49.34 35.31 48.68 37.62 48 40 C47.34 40 46.68 40 46 40 C45.88068115 40.73734375 45.7613623 41.4746875 45.63842773 42.234375 C45.00971396 44.9579198 44.17252925 46.84154054 42.78515625 49.25 C42.34623047 50.0234375 41.90730469 50.796875 41.45507812 51.59375 C40.76575195 52.78484375 40.76575195 52.78484375 40.0625 54 C36.09966802 60.79037804 36.09966802 60.79037804 33 68 C32.34 68 31.68 68 31 68 C30.814375 68.86625 30.814375 68.86625 30.625 69.75 C29.99274387 72.02612206 29.08136532 73.90760206 28 76 C20.25863399 76.10920422 12.68604474 75.97159933 5 75 C5 74.67 5 74.34 5 74 C7.97 74 10.94 74 14 74 C13.34 71.69 12.68 69.38 12 67 C11.34 67 10.68 67 10 67 C9.5153125 66.01902344 9.030625 65.03804688 8.53125 64.02734375 C7.85460583 62.66384448 7.17748573 61.30058132 6.5 59.9375 C6.14486328 59.22174805 5.78972656 58.50599609 5.42382812 57.76855469 C3.57073612 54.05748556 1.68064906 50.37628675 -0.3125 46.73828125 C-0.67923828 46.06740479 -1.04597656 45.39652832 -1.42382812 44.70532227 C-2.12880095 43.42444037 -2.84080323 42.1473965 -3.56054688 40.87475586 C-5.39441306 37.53957316 -6 35.91789425 -6 32 C-4.35 31.34 -2.7 30.68 -1 30 C-1 29.34 -1 28.68 -1 28 C-3.64877696 26.58101234 -6.08014819 25.68088981 -9 25 C-9.12109311 17.92278069 -8.85373239 11.02804699 -8 4 C-8.66 4 -9.32 4 -10 4 C-10 3.34 -10 2.68 -10 2 C-3.375 0 -3.375 0 0 0 Z " fill="#807D7D" transform="translate(95,391)"/>
<path d="M0 0 C6.32597337 4.16610532 12.34919019 10.52757195 14.734375 17.80078125 C15 20.51953125 15 20.51953125 14.984375 23.30078125 C14.99210937 24.6775 14.99210937 24.6775 15 26.08203125 C14.71700098 28.97860945 13.93787745 31.16453778 12.734375 33.80078125 C11.744375 33.80078125 10.754375 33.80078125 9.734375 33.80078125 C9.404375 36.77078125 9.074375 39.74078125 8.734375 42.80078125 C8.074375 42.80078125 7.414375 42.80078125 6.734375 42.80078125 C5.744375 36.36578125 5.744375 36.36578125 4.734375 29.80078125 C1.764375 30.29578125 1.764375 30.29578125 -1.265625 30.80078125 C-1.265625 31.46078125 -1.265625 32.12078125 -1.265625 32.80078125 C-7.205625 32.80078125 -13.145625 32.80078125 -19.265625 32.80078125 C-19.265625 32.14078125 -19.265625 31.48078125 -19.265625 30.80078125 C-20.255625 30.71828125 -21.245625 30.63578125 -22.265625 30.55078125 C-26.10264175 30.0226089 -29.0148405 28.53542346 -32.40234375 26.7265625 C-34.66384503 25.6029235 -36.75154146 25.0293343 -39.265625 24.80078125 C-40.64424774 25.97534626 -40.64424774 25.97534626 -40.703125 29.23828125 C-41.265625 32.80078125 -41.265625 32.80078125 -43.265625 34.80078125 C-43.72374175 36.77313458 -43.72374175 36.77313458 -43.890625 38.92578125 C-44.014375 40.20453125 -44.138125 41.48328125 -44.265625 42.80078125 C-45.750625 43.29578125 -45.750625 43.29578125 -47.265625 43.80078125 C-47.595625 41.16078125 -47.925625 38.52078125 -48.265625 35.80078125 C-49.915625 35.14078125 -51.565625 34.48078125 -53.265625 33.80078125 C-53.85914121 14.61042381 -53.85914121 14.61042381 -49.015625 9.36328125 C-46.265625 7.80078125 -46.265625 7.80078125 -43.453125 6.48828125 C-39.83955961 4.57521722 -37.2410165 2.22523329 -34.29296875 -0.578125 C-24.79133738 -8.17576858 -9.92189218 -4.97379828 0 0 Z " fill="#656867" transform="translate(136.265625,292.19921875)"/>
<path d="M0 0 C54.78 0 109.56 0 166 0 C166 3.3 166 6.6 166 10 C111.22 10 56.44 10 0 10 C0 6.7 0 3.4 0 0 Z " fill="#E6F9F8" transform="translate(205,338)"/>
<path d="M0 0 C54.78 0 109.56 0 166 0 C166 2.97 166 5.94 166 9 C111.22 9 56.44 9 0 9 C0 6.03 0 3.06 0 0 Z " fill="#F2FCFB" transform="translate(205,296)"/>
<path d="M0 0 C54.12 0 108.24 0 164 0 C164 2.64 164 5.28 164 8 C109.88 8 55.76 8 0 8 C0 5.36 0 2.72 0 0 Z " fill="#FDFEFE" transform="translate(206,318)"/>
<path d="M0 0 C32.34 0 64.68 0 98 0 C98 2.97 98 5.94 98 9 C65.66 9 33.32 9 0 9 C0 6.03 0 3.06 0 0 Z " fill="#F1FCFB" transform="translate(272,461)"/>
<path d="M0 0 C30.69 0 61.38 0 93 0 C93 2.97 93 5.94 93 9 C62.31 9 31.62 9 0 9 C0 6.03 0 3.06 0 0 Z " fill="#F5FCFC" transform="translate(206,360)"/>
<path d="M0 0 C0.99 0.33 1.98 0.66 3 1 C3.61875 2.3303125 3.61875 2.3303125 4.25 3.6875 C6.1636706 7.30980507 8.12992993 9.09685212 11.28125 11.60546875 C12.97221625 12.97745727 14.4869265 14.43618318 16 16 C15.67 16.33 15.34 16.66 15 17 C14.69745365 19.58769244 14.45248605 22.15805937 14.24609375 24.75390625 C14.18092056 25.52935287 14.11574738 26.3047995 14.04859924 27.10374451 C13.84065341 29.58966445 13.6390133 32.07605115 13.4375 34.5625 C13.29793989 36.24417502 13.15797131 37.9258162 13.01757812 39.60742188 C12.67363782 43.73790289 12.3353533 47.8688133 12 52 C11.34 52 10.68 52 10 52 C8.80712589 48.12315913 8 45.08378077 8 41 C7.34 41 6.68 41 6 41 C5.49528803 39.23050388 4.99639315 37.45934777 4.5 35.6875 C4.2215625 34.70136719 3.943125 33.71523438 3.65625 32.69921875 C3 30 3 30 3 27 C2.01 27 1.02 27 0 27 C-1.29243536 22.8803623 -2.26252625 19.33168317 -2 15 C-2.66 15 -3.32 15 -4 15 C-5.72107623 7.33183857 -5.72107623 7.33183857 -3.953125 4.06640625 C-2.5625 2.4375 -2.5625 2.4375 0 0 Z " fill="#FAF9F8" transform="translate(100,384)"/>
<path d="M0 0 C3.83122905 1.5051257 5.95491462 3.41988617 8 7 C7.65341919 9.96853996 7.18834822 12.2602994 6.3125 15.0625 C6.11205078 15.76955078 5.91160156 16.47660156 5.70507812 17.20507812 C5.15408321 19.14174343 4.57802285 21.07122903 4 23 C3.66019336 24.33169829 3.32512593 25.66464161 3 27 C2.01 27 1.02 27 0 27 C-0.99 31.29 -1.98 35.58 -3 40 C-3.66 40 -4.32 40 -5 40 C-5.12117188 40.77085937 -5.24234375 41.54171875 -5.3671875 42.3359375 C-5.53476563 43.33882813 -5.70234375 44.34171875 -5.875 45.375 C-6.03742188 46.37273437 -6.19984375 47.37046875 -6.3671875 48.3984375 C-7 51 -7 51 -9 53 C-9.08564209 51.96069336 -9.17128418 50.92138672 -9.25952148 49.85058594 C-9.57862179 45.98881355 -9.90206322 42.12741488 -10.22680664 38.26611328 C-10.36666094 36.59596448 -10.50534321 34.92571709 -10.64282227 33.25537109 C-10.84081729 30.85226901 -11.04304663 28.44955483 -11.24609375 26.046875 C-11.3065538 25.30193787 -11.36701385 24.55700073 -11.42930603 23.78948975 C-11.71587625 20.44340417 -12.02496083 17.22314836 -13 14 C-12.09507813 13.48953125 -12.09507813 13.48953125 -11.171875 12.96875 C-5.21113762 9.3538512 -2.57171751 6.48520067 0 0 Z " fill="#FAFBFA" transform="translate(131,384)"/>
<path d="M0 0 C1.66611905 -0.042721 3.33382885 -0.04063832 5 0 C7.52184049 2.52184049 6.78862191 8.90626807 7.0625 12.3125 C7.15337891 13.35212891 7.24425781 14.39175781 7.33789062 15.46289062 C8.17796307 25.65113765 8.93023491 35.36045719 6 45.25 C5.80921875 45.91128906 5.6184375 46.57257813 5.421875 47.25390625 C4.96210333 48.84011853 4.48325723 50.42078443 4 52 C3.34 52 2.68 52 2 52 C-4.46469248 34.88588108 -1.6636356 17.8066529 0 0 Z " fill="#FC5D63" transform="translate(114,401)"/>
<path d="M0 0 C1.85632378 1.80872573 3.4525504 3.57597323 5.0625 5.625 C6.77866905 8.06031981 6.77866905 8.06031981 9 9 C10.7895469 9.09657872 12.58285534 9.12980468 14.375 9.125 C15.33148438 9.12757813 16.28796875 9.13015625 17.2734375 9.1328125 C19.70514295 9.01436266 21.71057523 8.81355413 24 8 C25.10836423 6.11683841 25.10836423 6.11683841 26 4 C26.97648017 2.97702078 27.9739326 1.97323466 29 1 C29.34860727 5.89986887 29.5639771 9.80436856 27.4375 14.3125 C24.50831748 17.54211149 21.69167881 19.67560964 18 22 C17.34 22 16.68 22 16 22 C16 22.99 16 23.98 16 25 C9.55535376 22.85178459 5.03477917 17.28208994 1 12 C0.03929566 9.11788698 -0.10581883 7.30149956 -0.0625 4.3125 C-0.05347656 3.50425781 -0.04445313 2.69601562 -0.03515625 1.86328125 C-0.02355469 1.24839844 -0.01195313 0.63351562 0 0 Z " fill="#EFB97F" transform="translate(102,376)"/>
<path d="M0 0 C0.66 0 1.32 0 2 0 C1.85869714 3.6043588 1.71109836 7.20843519 1.5625 10.8125 C1.50352539 12.31973633 1.50352539 12.31973633 1.44335938 13.85742188 C1.16168543 20.59592939 0.67510594 27.28952975 0 34 C-0.66 34 -1.32 34 -2 34 C-3.19287411 30.12315913 -4 27.08378077 -4 23 C-4.66 23 -5.32 23 -6 23 C-6.50471197 21.23050388 -7.00360685 19.45934777 -7.5 17.6875 C-7.7784375 16.70136719 -8.056875 15.71523438 -8.34375 14.69921875 C-9 12 -9 12 -9 9 C-9.99 9 -10.98 9 -12 9 C-12.33 7.68 -12.66 6.36 -13 5 C-12.01 5.495 -12.01 5.495 -11 6 C-11 6.66 -11 7.32 -11 8 C-10.37351562 7.566875 -9.74703125 7.13375 -9.1015625 6.6875 C-8.28429687 6.130625 -7.46703125 5.57375 -6.625 5 C-5.40683594 4.1646875 -5.40683594 4.1646875 -4.1640625 3.3125 C-2 2 -2 2 0 2 C0 1.34 0 0.68 0 0 Z " fill="#EAE3E4" transform="translate(112,402)"/>
<path d="M0 0 C0.66 0 1.32 0 2 0 C2.66 0.99 3.32 1.98 4 3 C5.61703133 4.38638601 5.61703133 4.38638601 7.4375 5.625 C8.03433594 6.05039062 8.63117188 6.47578125 9.24609375 6.9140625 C11.12193886 8.16872461 11.12193886 8.16872461 14 9 C14.12375 7.700625 14.2475 6.40125 14.375 5.0625 C14.5859375 2.84765625 14.5859375 2.84765625 15 1 C15.66 0.67 16.32 0.34 17 0 C16.34 3.3 15.68 6.6 15 10 C14.01 10 13.02 10 12 10 C11.01 14.29 10.02 18.58 9 23 C8.34 23 7.68 23 7 23 C6.87882812 23.77085937 6.75765625 24.54171875 6.6328125 25.3359375 C6.46523437 26.33882813 6.29765625 27.34171875 6.125 28.375 C5.96257812 29.37273437 5.80015625 30.37046875 5.6328125 31.3984375 C5 34 5 34 3 36 C2.01 24.12 1.02 12.24 0 0 Z " fill="#E9E6E7" transform="translate(119,401)"/>
<path d="M0 0 C2.64624284 0.14021805 5.29184578 0.28689776 7.9375 0.4375 C9.06961914 0.49647461 9.06961914 0.49647461 10.22460938 0.55664062 C15.88671875 0.88671875 15.88671875 0.88671875 17 2 C19.01311449 2.39569108 21.03597208 2.74252191 23.0625 3.0625 C24.71958984 3.32740234 24.71958984 3.32740234 26.41015625 3.59765625 C27.26480469 3.73042969 28.11945313 3.86320313 29 4 C29 4.66 29 5.32 29 6 C25.68679669 5.69467865 22.37460045 5.37954424 19.0625 5.0625 C18.11697266 4.97548828 17.17144531 4.88847656 16.19726562 4.79882812 C15.29814453 4.71181641 14.39902344 4.62480469 13.47265625 4.53515625 C12.22367554 4.41732788 12.22367554 4.41732788 10.94946289 4.29711914 C9 4 9 4 8 3 C6.65252916 2.76924918 5.29622435 2.58846937 3.9375 2.4375 C2.638125 2.293125 1.33875 2.14875 0 2 C0 1.34 0 0.68 0 0 Z " fill="#F27851" transform="translate(237,2)"/>
<path d="M0 0 C1.4540625 0.0309375 1.4540625 0.0309375 2.9375 0.0625 C2.9375 0.7225 2.9375 1.3825 2.9375 2.0625 C-3.61526707 4.34834898 -10.16651439 4.66844368 -17.0625 5.0625 C-17.0625 4.4025 -17.0625 3.7425 -17.0625 3.0625 C-15.67224609 2.86333984 -15.67224609 2.86333984 -14.25390625 2.66015625 C-13.05636719 2.48355469 -11.85882813 2.30695312 -10.625 2.125 C-9.43003906 1.95097656 -8.23507813 1.77695313 -7.00390625 1.59765625 C-3.60766164 0.9797472 -3.48855294 0.07119496 0 0 Z " fill="#FF8959" transform="translate(161.0625,2.9375)"/>
<path d="M0 0 C0 2.31 0 4.62 0 7 C-0.99 7.33 -1.98 7.66 -3 8 C-3.33 5.69 -3.66 3.38 -4 1 C-1 0 -1 0 0 0 Z " fill="#8C8172" transform="translate(92,328)"/>
<path d="" fill="#FFE7B1" transform="translate(0,0)"/>
</svg>
